<svg xmlns="http://www.w3.org/2000/svg" xmlns:xlink="http://www.w3.org/1999/xlink" width="50" zoomAndPan="magnify" viewBox="0 0 37.5 37.499999" height="50" preserveAspectRatio="xMidYMid meet" version="1.0"><defs><clipPath id="d75ca3455c"><path d="M 0 0 L 37.007812 0 L 37.007812 37.007812 L 0 37.007812 Z M 0 0 " clip-rule="nonzero"/></clipPath><clipPath id="e113a907f5"><path d="M 0 0 L 37.007812 0 L 37.007812 37 L 0 37 Z M 0 0 " clip-rule="nonzero"/></clipPath></defs><g clip-path="url(#d75ca3455c)"><path fill="#ffffff" d="M 0 0 L 37.5 0 L 37.5 37.5 L 0 37.5 Z M 0 0 " fill-opacity="1" fill-rule="nonzero"/><path fill="#fefefe" d="M 0 0 L 37.5 0 L 37.5 37.5 L 0 37.5 Z M 0 0 " fill-opacity="1" fill-rule="nonzero"/></g><g clip-path="url(#e113a907f5)"><path fill="#351206" d="M 37.3125 17.96875 C 37.21875 17.605469 36.914062 17.128906 35.996094 16.917969 C 35.445312 16.796875 34.886719 16.734375 34.324219 16.738281 C 34.121094 16.738281 33.914062 16.746094 33.703125 16.761719 L 33.703125 15.523438 C 33.703125 6.972656 26.804688 0.0117188 18.328125 0.0117188 C 9.847656 0.0117188 2.953125 6.972656 2.953125 15.523438 L 2.953125 16.898438 C 2.523438 16.972656 2.113281 17.101562 1.71875 17.289062 C 0.945312 17.671875 0.402344 18.308594 0.226562 19.035156 C 0 19.96875 0.429688 21.050781 1.269531 21.671875 C 1.648438 21.945312 2.066406 22.128906 2.523438 22.226562 C 2.507812 22.265625 2.492188 22.304688 2.476562 22.34375 C 2.289062 22.882812 2.269531 23.433594 2.257812 23.914062 L 2.074219 29.976562 C 2.070312 30.125 2.074219 30.273438 2.085938 30.421875 C 1.980469 30.699219 1.921875 30.984375 1.910156 31.28125 C 1.910156 31.304688 1.910156 31.332031 1.910156 31.359375 C 2.050781 32.902344 3.070312 34.328125 4.785156 35.371094 C 6.449219 36.386719 8.625 36.949219 10.898438 36.949219 L 25.828125 36.949219 C 28.183594 36.949219 30.40625 36.359375 32.089844 35.285156 C 33.859375 34.160156 34.832031 32.636719 34.832031 30.988281 L 34.832031 30.785156 C 34.839844 30.222656 34.660156 29.726562 34.292969 29.300781 C 34.148438 29.148438 33.976562 29.035156 33.777344 28.960938 L 33.777344 25.109375 C 33.78125 25.078125 33.777344 25.042969 33.769531 25.011719 C 33.75 24.808594 33.675781 24.625 33.550781 24.460938 C 34.378906 23.839844 34.550781 23.234375 34.535156 22.808594 L 34.5625 21.476562 C 34.570312 21.417969 34.570312 21.355469 34.5625 21.296875 C 34.5625 21.289062 34.5625 21.28125 34.5625 21.273438 C 34.566406 21.261719 34.566406 21.25 34.5625 21.238281 L 34.5625 21.191406 C 34.523438 20.839844 34.355469 20.519531 34.0625 20.238281 C 34.128906 19.992188 34.21875 19.785156 34.359375 19.695312 C 34.449219 19.640625 34.582031 19.613281 34.769531 19.613281 C 34.847656 19.613281 34.9375 19.617188 35.046875 19.628906 L 35.148438 19.636719 C 35.3125 19.648438 35.480469 19.664062 35.65625 19.664062 C 35.90625 19.667969 36.152344 19.632812 36.390625 19.550781 C 36.988281 19.332031 37.5 18.679688 37.3125 17.96875 Z M 37.3125 17.96875 " fill-opacity="1" fill-rule="nonzero"/></g><path fill="#bb371a" d="M 27.457031 24.050781 C 27.453125 23.910156 27.449219 23.773438 27.441406 23.636719 C 27.242188 23.722656 27.035156 23.792969 26.824219 23.851562 C 26.492188 23.929688 26.207031 23.765625 25.953125 23.621094 C 25.761719 23.511719 25.585938 23.410156 25.4375 23.445312 C 25.25 23.488281 24.976562 23.644531 24.714844 23.792969 C 24.351562 24 23.972656 24.214844 23.648438 24.25 C 23.609375 24.253906 23.574219 24.253906 23.539062 24.257812 C 24.476562 24.285156 25.414062 24.257812 26.347656 24.175781 C 26.71875 24.140625 27.089844 24.097656 27.457031 24.050781 Z M 27.457031 24.050781 " fill-opacity="1" fill-rule="nonzero"/><path fill="#ffcc29" d="M 27.921875 23.402344 C 27.933594 23.6875 27.945312 23.972656 27.957031 24.253906 C 27.980469 24.753906 28 25.25 28.019531 25.746094 L 28.066406 26.878906 L 28.101562 27.800781 C 28.117188 28.238281 28.140625 28.734375 28.375 29.097656 C 28.503906 29.296875 28.683594 29.421875 28.910156 29.472656 C 29.042969 29.503906 29.167969 29.484375 29.285156 29.410156 C 29.535156 29.238281 29.582031 28.839844 29.597656 28.433594 C 29.617188 27.777344 29.65625 27.132812 29.691406 26.535156 L 29.777344 25.28125 C 29.8125 24.777344 29.84375 24.273438 29.875 23.765625 C 29.898438 23.363281 29.914062 22.996094 29.929688 22.644531 C 28.929688 22.386719 28.167969 21.8125 27.375 21.195312 C 27.324219 21.34375 27.296875 21.480469 27.324219 21.546875 C 27.417969 21.6875 27.519531 21.820312 27.632812 21.945312 C 28.042969 22.433594 28.433594 22.894531 28.152344 23.222656 C 28.085938 23.292969 28.007812 23.351562 27.921875 23.402344 Z M 27.921875 23.402344 " fill-opacity="1" fill-rule="nonzero"/><path fill="#86340a" d="M 27.585938 27.171875 C 26.863281 27.261719 26.105469 27.339844 25.316406 27.40625 L 25.230469 27.410156 C 25.085938 27.421875 24.941406 27.433594 24.792969 27.445312 C 23.574219 27.558594 23.015625 27.855469 22.929688 28.433594 C 22.886719 28.703125 22.953125 29.289062 23.027344 29.90625 C 23.078125 30.363281 23.136719 30.871094 23.167969 31.371094 C 25.964844 31.222656 28.464844 30.9375 30.226562 30.566406 C 32.359375 30.113281 32.921875 29.640625 32.921875 29.429688 L 32.921875 25.839844 C 32.492188 26.125 31.6875 26.449219 30.171875 26.761719 C 30.140625 27.296875 30.105469 27.871094 30.085938 28.453125 C 30.074219 28.816406 30.050781 29.484375 29.566406 29.820312 C 29.402344 29.929688 29.226562 29.984375 29.03125 29.984375 C 28.960938 29.984375 28.886719 29.976562 28.816406 29.960938 C 28.453125 29.882812 28.167969 29.6875 27.964844 29.371094 C 27.65625 28.890625 27.632812 28.296875 27.613281 27.828125 Z M 27.585938 27.171875 " fill-opacity="1" fill-rule="nonzero"/><path fill="#6d2100" d="M 32.472656 24.683594 C 31.757812 25.027344 31.019531 25.300781 30.253906 25.496094 L 30.203125 26.25 C 32.335938 25.796875 32.921875 25.328125 32.921875 25.109375 C 32.921875 25.019531 32.796875 24.867188 32.472656 24.683594 Z M 32.472656 24.683594 " fill-opacity="1" fill-rule="nonzero"/><path fill="#bb371a" d="M 8.78125 25.4375 C 8.4375 25.6875 8.058594 25.804688 7.636719 25.792969 C 7.128906 25.78125 6.648438 25.65625 6.199219 25.417969 C 5.710938 25.171875 5.355469 24.890625 5.121094 24.5625 C 5.0625 24.703125 5.003906 24.839844 4.949219 24.976562 C 6.375 25.75 8.859375 26.226562 11.523438 26.226562 L 11.664062 26.226562 C 11.820312 26.234375 11.898438 26.316406 11.898438 26.472656 C 11.898438 26.632812 11.820312 26.714844 11.664062 26.722656 L 11.523438 26.722656 C 8.777344 26.722656 6.289062 26.246094 4.777344 25.445312 C 4.691406 25.6875 4.617188 25.933594 4.554688 26.175781 C 5.863281 27.082031 8.5625 27.664062 11.523438 27.664062 C 13.164062 27.664062 14.738281 27.488281 16.074219 27.15625 L 16.078125 27.15625 C 17.917969 26.695312 19.09375 25.984375 19.222656 25.25 C 19.226562 25.230469 19.226562 25.207031 19.230469 25.183594 C 18.871094 25.390625 18.488281 25.507812 18.078125 25.539062 C 17.277344 25.925781 16.207031 26.242188 14.984375 26.445312 C 14.972656 26.445312 14.957031 26.445312 14.945312 26.445312 C 14.796875 26.441406 14.714844 26.367188 14.703125 26.21875 C 14.691406 26.070312 14.757812 25.980469 14.90625 25.953125 C 15.65625 25.835938 16.390625 25.652344 17.113281 25.402344 C 16.515625 25.179688 16.039062 24.710938 15.847656 24.128906 C 15.800781 23.980469 15.765625 23.824219 15.738281 23.667969 C 15.714844 23.503906 15.671875 23.34375 15.613281 23.1875 C 15.566406 23.078125 15.492188 22.988281 15.398438 22.917969 C 15.484375 23.214844 15.527344 23.519531 15.523438 23.828125 C 15.503906 24.386719 15.253906 24.855469 14.855469 25.09375 C 14.503906 25.300781 14.042969 25.324219 13.585938 25.152344 C 13.199219 25.003906 12.878906 24.753906 12.59375 24.53125 C 12.089844 24.144531 11.589844 23.753906 11.089844 23.367188 L 10.453125 22.871094 C 10.265625 22.726562 10.054688 22.5625 9.835938 22.527344 C 9.726562 22.503906 9.617188 22.511719 9.511719 22.550781 C 9.558594 23.015625 9.609375 23.535156 9.53125 24.042969 C 9.441406 24.640625 9.175781 25.132812 8.78125 25.4375 Z M 8.78125 25.4375 " fill-opacity="1" fill-rule="nonzero"/><path fill="#ffcc29" d="M 3.316406 31.046875 C 3.542969 31.101562 3.789062 30.863281 3.863281 30.617188 C 3.914062 30.40625 3.925781 30.195312 3.894531 29.980469 C 3.886719 29.882812 3.871094 29.785156 3.859375 29.6875 L 3.847656 29.589844 C 3.699219 28.453125 3.761719 27.328125 4.039062 26.214844 C 4.140625 25.804688 4.261719 25.402344 4.410156 25.003906 L 4.410156 25 C 4.535156 24.671875 4.679688 24.328125 4.84375 23.988281 C 4.742188 23.582031 4.746094 23.175781 4.855469 22.769531 C 4.949219 22.410156 5.085938 22.070312 5.265625 21.746094 C 5.285156 21.710938 5.300781 21.679688 5.320312 21.644531 C 4.917969 21.769531 4.507812 21.859375 4.089844 21.921875 C 3.695312 22.042969 3.402344 22.304688 3.285156 22.636719 C 3.140625 23.046875 3.125 23.503906 3.113281 23.945312 L 2.929688 30.007812 C 2.921875 30.167969 2.933594 30.332031 2.957031 30.492188 C 3.011719 30.820312 3.132812 31.007812 3.316406 31.046875 Z M 3.316406 31.046875 " fill-opacity="1" fill-rule="nonzero"/><path fill="#9b1e0a" d="M 20.828125 23.15625 C 20.738281 23.402344 20.628906 23.636719 20.5 23.867188 C 21.246094 24.058594 22.136719 24.183594 23.117188 24.238281 C 22.472656 24.148438 21.898438 23.800781 21.339844 23.457031 C 21.171875 23.355469 21 23.253906 20.828125 23.15625 Z M 20.828125 23.15625 " fill-opacity="1" fill-rule="nonzero"/><path fill="#eba83a" d="M 4 17.375 C 3.996094 17.378906 3.996094 17.378906 4 17.382812 C 13.1875 21.785156 23.671875 21.757812 32.84375 17.292969 L 32.84375 15.523438 C 32.84375 7.449219 26.332031 0.882812 18.328125 0.882812 C 10.324219 0.882812 3.8125 7.449219 3.8125 15.523438 L 3.8125 17.164062 C 3.921875 17.191406 3.984375 17.261719 4 17.375 Z M 4 17.375 " fill-opacity="1" fill-rule="nonzero"/><path fill="#6d2100" d="M 26.359375 26.171875 L 26.300781 26.175781 C 26.316406 26.402344 26.28125 26.617188 26.195312 26.828125 C 26.664062 26.78125 27.125 26.730469 27.566406 26.675781 L 27.539062 26.039062 C 27.144531 26.09375 26.75 26.136719 26.359375 26.171875 Z M 26.359375 26.171875 " fill-opacity="1" fill-rule="nonzero"/><path fill="#bb371a" d="M 19.773438 24.789062 C 19.757812 24.804688 19.742188 24.816406 19.726562 24.828125 L 19.726562 25.117188 C 19.726562 25.117188 19.726562 25.121094 19.726562 25.125 L 19.726562 25.132812 C 21.171875 25.703125 23.667969 25.914062 26.316406 25.683594 C 26.71875 25.644531 27.121094 25.597656 27.519531 25.542969 C 27.507812 25.210938 27.496094 24.878906 27.480469 24.546875 C 27.121094 24.59375 26.757812 24.636719 26.394531 24.671875 C 25.664062 24.738281 24.9375 24.765625 24.246094 24.765625 C 22.699219 24.765625 21.296875 24.609375 20.21875 24.304688 C 20.085938 24.480469 19.9375 24.640625 19.773438 24.789062 Z M 19.773438 24.789062 " fill-opacity="1" fill-rule="nonzero"/><path fill="#ffcc29" d="M 17.773438 27.117188 L 19.464844 27.117188 L 19.558594 27.121094 L 19.570312 27.121094 L 19.667969 27.128906 L 19.683594 27.128906 L 19.753906 27.132812 L 19.777344 27.132812 L 19.828125 27.136719 L 19.851562 27.136719 L 19.894531 27.140625 L 19.914062 27.140625 L 19.960938 27.152344 C 19.988281 27.15625 20.011719 27.164062 20.035156 27.171875 C 20.214844 27.246094 20.390625 27.425781 20.492188 28.734375 C 20.550781 29.453125 20.5625 30.171875 20.527344 30.890625 C 20.523438 30.960938 20.515625 31.039062 20.511719 31.117188 C 20.5 31.300781 20.484375 31.503906 20.476562 31.710938 C 20.457031 32.289062 20.476562 33.105469 20.886719 33.515625 C 21.105469 33.734375 21.421875 33.828125 21.847656 33.808594 C 22.246094 33.789062 22.769531 33.539062 22.6875 31.621094 C 22.664062 31.0625 22.597656 30.46875 22.535156 29.945312 C 22.453125 29.238281 22.390625 28.679688 22.441406 28.339844 C 22.625 27.132812 24.109375 26.992188 24.746094 26.933594 C 24.894531 26.921875 25.042969 26.910156 25.183594 26.898438 L 25.277344 26.890625 C 25.472656 26.878906 25.609375 26.8125 25.695312 26.699219 C 25.796875 26.558594 25.816406 26.351562 25.808594 26.195312 C 23.34375 26.355469 21.042969 26.136719 19.621094 25.601562 C 19.386719 26.191406 18.753906 26.703125 17.773438 27.117188 Z M 17.773438 27.117188 " fill-opacity="1" fill-rule="nonzero"/><path fill="#eba83a" d="M 21.871094 34.320312 C 21.828125 34.320312 21.78125 34.324219 21.738281 34.324219 C 21.238281 34.324219 20.835938 34.179688 20.546875 33.886719 C 20.0625 33.40625 19.976562 32.648438 19.984375 31.976562 C 19.46875 31.984375 18.957031 31.988281 18.460938 31.988281 C 15.160156 31.988281 11.9375 31.8125 9.347656 31.492188 C 9.375 31.824219 9.34375 32.144531 9.253906 32.464844 C 9.132812 32.847656 8.894531 33.132812 8.539062 33.320312 C 8.390625 33.398438 8.234375 33.441406 8.066406 33.441406 C 7.964844 33.441406 7.863281 33.421875 7.761719 33.390625 C 7.4375 33.277344 7.171875 32.976562 7.046875 32.582031 C 6.949219 32.257812 6.949219 31.921875 6.953125 31.625 L 6.957031 31.121094 C 5.824219 30.898438 4.96875 30.648438 4.398438 30.382812 C 4.390625 30.511719 4.367188 30.636719 4.332031 30.761719 C 4.207031 31.171875 3.824219 31.550781 3.382812 31.550781 C 3.320312 31.550781 3.261719 31.546875 3.207031 31.53125 C 3.035156 31.492188 2.886719 31.40625 2.769531 31.273438 C 2.769531 31.28125 2.769531 31.292969 2.769531 31.296875 C 3.03125 33.984375 6.59375 36.082031 10.902344 36.082031 L 25.828125 36.082031 C 28.023438 36.082031 30.085938 35.539062 31.632812 34.554688 C 33.144531 33.59375 33.976562 32.328125 33.976562 30.988281 L 33.976562 30.789062 C 33.980469 30.445312 33.871094 30.140625 33.648438 29.878906 C 33.554688 29.804688 33.449219 29.75 33.335938 29.71875 C 32.550781 31.222656 25.726562 31.730469 23.1875 31.871094 C 23.207031 32.664062 23.140625 34.257812 21.871094 34.320312 Z M 21.871094 34.320312 " fill-opacity="1" fill-rule="nonzero"/><path fill="#81b214" d="M 35.808594 17.765625 C 34.929688 17.574219 34.046875 17.546875 33.160156 17.6875 C 28.476562 19.980469 23.53125 21.128906 18.328125 21.136719 C 13.121094 21.128906 8.175781 19.980469 3.492188 17.6875 C 3.046875 17.75 2.542969 17.84375 2.097656 18.066406 C 1.566406 18.335938 1.175781 18.773438 1.058594 19.242188 C 0.914062 19.84375 1.210938 20.554688 1.777344 20.972656 C 2.277344 21.34375 2.984375 21.515625 3.765625 21.457031 C 3.847656 21.449219 3.925781 21.441406 4.007812 21.429688 C 4.65625 21.347656 5.289062 21.140625 5.902344 20.945312 C 6.027344 20.902344 6.121094 20.9375 6.1875 21.050781 C 6.253906 21.164062 6.242188 21.265625 6.148438 21.355469 C 5.96875 21.542969 5.816406 21.753906 5.691406 21.984375 C 5.535156 22.269531 5.414062 22.570312 5.332031 22.890625 C 5.265625 23.160156 5.210938 23.554688 5.339844 23.925781 C 5.339844 23.925781 5.339844 23.929688 5.339844 23.929688 C 5.347656 23.957031 5.355469 23.984375 5.367188 24.011719 C 5.527344 24.382812 5.867188 24.695312 6.414062 24.972656 C 6.71875 25.125 7.769531 25.582031 8.476562 25.039062 C 8.871094 24.738281 9 24.238281 9.042969 23.964844 C 9.109375 23.515625 9.0625 23.046875 9.015625 22.597656 C 8.996094 22.4375 9.042969 22.300781 9.160156 22.191406 C 9.394531 21.96875 9.789062 22.015625 9.90625 22.03125 C 10.246094 22.085938 10.523438 22.300781 10.746094 22.472656 L 11.386719 22.96875 C 11.886719 23.355469 12.386719 23.746094 12.886719 24.132812 C 13.15625 24.34375 13.4375 24.5625 13.75 24.683594 C 14.066406 24.800781 14.382812 24.792969 14.601562 24.660156 C 14.898438 24.484375 15.015625 24.105469 15.027344 23.804688 C 15.042969 23.433594 14.925781 23.042969 14.808594 22.667969 C 14.789062 22.601562 14.796875 22.539062 14.832031 22.476562 C 14.863281 22.414062 14.914062 22.375 14.980469 22.359375 C 15.4375 22.234375 15.898438 22.589844 16.0625 22.992188 C 16.132812 23.179688 16.183594 23.371094 16.214844 23.570312 C 16.238281 23.707031 16.265625 23.839844 16.308594 23.96875 C 16.488281 24.527344 17.058594 24.964844 17.6875 25.035156 C 17.789062 25.046875 17.890625 25.050781 17.992188 25.042969 C 18.492188 25.007812 18.933594 24.832031 19.320312 24.511719 C 19.363281 24.480469 19.402344 24.445312 19.441406 24.414062 C 19.886719 24.011719 20.234375 23.425781 20.449219 22.722656 C 20.472656 22.648438 20.515625 22.597656 20.585938 22.570312 C 20.65625 22.539062 20.726562 22.539062 20.792969 22.574219 C 21.066406 22.707031 21.332031 22.871094 21.585938 23.027344 C 22.257812 23.4375 22.890625 23.824219 23.59375 23.75 C 23.816406 23.726562 24.160156 23.53125 24.464844 23.355469 C 24.769531 23.183594 25.066406 23.015625 25.320312 22.953125 C 25.652344 22.875 25.9375 23.039062 26.191406 23.183594 C 26.378906 23.292969 26.558594 23.398438 26.707031 23.363281 C 26.964844 23.300781 27.558594 23.0625 27.738281 22.925781 C 27.679688 22.769531 27.394531 22.429688 27.253906 22.257812 C 27.054688 22.023438 26.933594 21.871094 26.875 21.746094 C 26.695312 21.355469 27 20.792969 27.0625 20.683594 C 27.097656 20.617188 27.152344 20.578125 27.226562 20.5625 C 27.296875 20.550781 27.363281 20.5625 27.421875 20.609375 L 27.597656 20.746094 C 28.457031 21.414062 29.203125 21.992188 30.226562 22.199219 C 31.21875 22.402344 32.503906 22.066406 32.933594 21.050781 C 33.015625 20.839844 33.078125 20.625 33.125 20.40625 L 33.132812 20.367188 C 33.261719 19.832031 33.390625 19.269531 33.894531 18.953125 C 34.261719 18.71875 34.691406 18.722656 35.105469 18.757812 L 35.210938 18.765625 C 35.527344 18.792969 35.828125 18.820312 36.089844 18.726562 C 36.316406 18.640625 36.535156 18.398438 36.476562 18.179688 C 36.421875 17.949219 36.082031 17.828125 35.808594 17.765625 Z M 35.808594 17.765625 " fill-opacity="1" fill-rule="nonzero"/><path fill="#bb371a" d="M 33.390625 21.253906 C 32.902344 22.410156 31.550781 22.859375 30.417969 22.734375 C 30.402344 23.070312 30.386719 23.417969 30.363281 23.796875 C 30.339844 24.191406 30.316406 24.582031 30.289062 24.972656 C 30.972656 24.789062 31.636719 24.539062 32.277344 24.226562 C 32.316406 24.183594 32.367188 24.160156 32.421875 24.152344 C 33.253906 23.707031 33.710938 23.222656 33.675781 22.820312 C 33.675781 22.8125 33.675781 22.804688 33.675781 22.800781 C 33.675781 22.792969 33.675781 22.792969 33.675781 22.789062 L 33.683594 22.386719 C 33.207031 22.851562 32.410156 23.292969 31.332031 23.671875 C 31.269531 23.695312 31.207031 23.691406 31.144531 23.660156 C 31.082031 23.628906 31.042969 23.582031 31.019531 23.519531 C 30.996094 23.453125 31 23.390625 31.03125 23.328125 C 31.058594 23.265625 31.105469 23.222656 31.171875 23.203125 C 32.6875 22.667969 33.636719 22.003906 33.707031 21.425781 L 33.707031 21.308594 C 33.6875 21.152344 33.621094 21.015625 33.507812 20.90625 C 33.476562 21.023438 33.4375 21.140625 33.390625 21.253906 Z M 33.390625 21.253906 " fill-opacity="1" fill-rule="nonzero"/><path fill="#ffcc29" d="M 10.632812 28.667969 C 10.71875 28.652344 10.804688 28.640625 10.890625 28.625 C 11.238281 28.5625 11.621094 28.410156 11.792969 28.152344 C 11.703125 28.152344 11.613281 28.15625 11.523438 28.15625 C 10.160156 28.164062 8.8125 28.035156 7.472656 27.769531 L 7.449219 30.917969 L 7.441406 31.628906 C 7.441406 31.902344 7.4375 32.183594 7.515625 32.4375 C 7.589844 32.6875 7.742188 32.859375 7.921875 32.921875 C 8.058594 32.964844 8.191406 32.949219 8.320312 32.878906 C 8.550781 32.753906 8.703125 32.566406 8.785156 32.3125 C 8.890625 31.988281 8.871094 31.628906 8.839844 31.230469 L 8.832031 31.132812 C 8.824219 31.035156 8.816406 30.9375 8.808594 30.835938 C 8.769531 30.070312 8.925781 29.527344 9.292969 29.171875 C 9.664062 28.820312 10.179688 28.738281 10.632812 28.667969 Z M 10.632812 28.667969 " fill-opacity="1" fill-rule="nonzero"/><path fill="#6d2100" d="M 4.433594 26.710938 C 4.421875 26.753906 4.417969 26.792969 4.410156 26.835938 C 4.394531 26.921875 4.378906 27.003906 4.363281 27.089844 C 4.355469 27.140625 4.351562 27.1875 4.34375 27.238281 C 4.332031 27.3125 4.324219 27.390625 4.3125 27.46875 C 4.308594 27.519531 4.304688 27.574219 4.296875 27.625 C 4.292969 27.699219 4.285156 27.773438 4.28125 27.847656 C 4.28125 27.902344 4.273438 27.953125 4.269531 28.003906 C 4.269531 28.082031 4.265625 28.15625 4.265625 28.230469 C 4.265625 28.28125 4.265625 28.332031 4.265625 28.386719 C 4.265625 28.464844 4.265625 28.542969 4.265625 28.617188 C 4.265625 28.667969 4.265625 28.714844 4.269531 28.765625 C 4.269531 28.851562 4.277344 28.9375 4.285156 29.023438 C 4.285156 29.0625 4.289062 29.105469 4.292969 29.144531 C 4.300781 29.273438 4.316406 29.398438 4.332031 29.527344 L 4.34375 29.621094 C 4.351562 29.683594 4.359375 29.746094 4.367188 29.808594 C 4.730469 30.023438 5.46875 30.320312 6.960938 30.617188 L 6.984375 27.660156 C 5.945312 27.410156 5.070312 27.078125 4.4375 26.683594 C 4.4375 26.691406 4.433594 26.703125 4.433594 26.710938 Z M 4.433594 26.710938 " fill-opacity="1" fill-rule="nonzero"/><path fill="#86340a" d="M 9.3125 30.988281 C 11.898438 31.3125 15.136719 31.492188 18.460938 31.492188 C 18.960938 31.492188 19.476562 31.488281 19.996094 31.480469 C 19.996094 31.464844 19.996094 31.453125 19.996094 31.4375 C 19.996094 31.398438 20 31.359375 20.003906 31.320312 L 20.007812 31.261719 C 20.007812 31.207031 20.015625 31.152344 20.019531 31.101562 C 20.023438 31.023438 20.03125 30.949219 20.035156 30.875 C 20.046875 30.667969 20.054688 30.433594 20.054688 30.191406 C 20.054688 29.304688 19.980469 28.296875 19.878906 27.835938 C 19.867188 27.773438 19.84375 27.707031 19.820312 27.644531 L 19.777344 27.640625 C 19.730469 27.636719 19.667969 27.632812 19.597656 27.628906 C 19.050781 27.597656 17.859375 27.609375 16.835938 27.628906 L 16.359375 27.628906 L 16.164062 27.632812 C 15.023438 27.914062 13.710938 28.085938 12.335938 28.132812 C 12.195312 28.617188 11.695312 28.976562 10.972656 29.101562 C 10.886719 29.117188 10.796875 29.132812 10.707031 29.148438 C 10.289062 29.214844 9.894531 29.273438 9.632812 29.523438 C 9.371094 29.773438 9.265625 30.191406 9.300781 30.800781 C 9.304688 30.871094 9.308594 30.929688 9.3125 30.988281 Z M 9.3125 30.988281 " fill-opacity="1" fill-rule="nonzero"/><path fill="#351206" d="M 35.917969 17.28125 C 35.0625 17.09375 34.203125 17.054688 33.335938 17.167969 L 33.335938 15.523438 C 33.335938 7.175781 26.601562 0.382812 18.328125 0.382812 C 10.054688 0.382812 3.320312 7.175781 3.320312 15.523438 L 3.320312 17.210938 C 2.859375 17.277344 2.351562 17.390625 1.882812 17.621094 C 1.207031 17.957031 0.734375 18.503906 0.582031 19.125 C 0.394531 19.914062 0.765625 20.839844 1.488281 21.371094 C 1.933594 21.703125 2.507812 21.898438 3.140625 21.949219 C 3 22.101562 2.894531 22.273438 2.824219 22.46875 C 2.652344 22.953125 2.636719 23.472656 2.625 23.929688 L 2.441406 29.988281 C 2.433594 30.15625 2.441406 30.320312 2.460938 30.484375 C 2.300781 30.8125 2.277344 31.242188 2.277344 31.296875 C 2.277344 31.304688 2.277344 31.316406 2.277344 31.324219 C 2.542969 34.269531 6.332031 36.578125 10.902344 36.578125 L 25.828125 36.578125 C 28.113281 36.578125 30.269531 36.007812 31.894531 34.976562 C 33.550781 33.921875 34.464844 32.503906 34.464844 30.992188 L 34.464844 30.789062 C 34.472656 30.320312 34.320312 29.90625 34.015625 29.550781 C 33.878906 29.394531 33.617188 29.285156 33.410156 29.230469 L 33.410156 25.109375 C 33.410156 25.09375 33.410156 25.078125 33.40625 25.058594 C 33.386719 24.824219 33.246094 24.609375 32.96875 24.414062 C 33.785156 23.910156 34.195312 23.359375 34.167969 22.808594 C 34.167969 22.808594 34.167969 22.808594 34.167969 22.804688 L 34.195312 21.453125 C 34.203125 21.40625 34.203125 21.355469 34.199219 21.304688 L 34.199219 21.300781 C 34.199219 21.300781 34.199219 21.296875 34.199219 21.292969 C 34.199219 21.289062 34.199219 21.277344 34.199219 21.273438 C 34.199219 21.269531 34.199219 21.265625 34.199219 21.261719 L 34.199219 21.242188 C 34.164062 20.921875 33.980469 20.625 33.652344 20.367188 C 33.75 19.949219 33.863281 19.570312 34.164062 19.382812 C 34.410156 19.226562 34.75 19.230469 35.078125 19.257812 L 35.179688 19.265625 C 35.535156 19.296875 35.902344 19.328125 36.265625 19.199219 C 36.703125 19.042969 37.09375 18.5625 36.964844 18.0625 C 36.859375 17.679688 36.507812 17.417969 35.917969 17.28125 Z M 3.808594 15.523438 C 3.808594 7.449219 10.324219 0.882812 18.324219 0.882812 C 26.328125 0.882812 32.839844 7.449219 32.839844 15.523438 L 32.839844 17.292969 C 23.671875 21.757812 13.1875 21.785156 4 17.382812 C 3.996094 17.378906 3.996094 17.378906 4 17.375 C 3.984375 17.261719 3.921875 17.191406 3.808594 17.164062 Z M 2.933594 30.003906 L 3.117188 23.945312 C 3.128906 23.503906 3.140625 23.046875 3.285156 22.636719 C 3.40625 22.300781 3.699219 22.042969 4.089844 21.917969 C 4.507812 21.859375 4.917969 21.765625 5.324219 21.640625 C 5.304688 21.675781 5.285156 21.707031 5.265625 21.742188 C 5.085938 22.066406 4.953125 22.40625 4.859375 22.765625 C 4.75 23.171875 4.742188 23.578125 4.84375 23.984375 C 4.683594 24.328125 4.535156 24.667969 4.414062 25 L 4.414062 25.003906 C 4.265625 25.402344 4.140625 25.804688 4.039062 26.214844 C 3.765625 27.328125 3.699219 28.453125 3.847656 29.589844 L 3.859375 29.6875 C 3.875 29.785156 3.886719 29.882812 3.894531 29.980469 C 3.925781 30.195312 3.914062 30.40625 3.863281 30.617188 C 3.789062 30.863281 3.546875 31.101562 3.316406 31.046875 C 3.132812 31.007812 3.015625 30.820312 2.960938 30.488281 C 2.9375 30.328125 2.925781 30.167969 2.933594 30.003906 Z M 9.511719 22.554688 C 9.617188 22.511719 9.726562 22.503906 9.835938 22.527344 C 10.054688 22.5625 10.265625 22.730469 10.453125 22.871094 L 11.089844 23.367188 C 11.589844 23.757812 12.089844 24.144531 12.59375 24.53125 C 12.878906 24.753906 13.199219 25.007812 13.585938 25.152344 C 14.042969 25.324219 14.503906 25.304688 14.855469 25.09375 C 15.253906 24.859375 15.503906 24.386719 15.523438 23.832031 C 15.527344 23.519531 15.484375 23.214844 15.398438 22.917969 C 15.496094 22.988281 15.566406 23.078125 15.617188 23.1875 C 15.671875 23.34375 15.714844 23.503906 15.738281 23.667969 C 15.765625 23.824219 15.800781 23.980469 15.847656 24.128906 C 16.039062 24.710938 16.515625 25.179688 17.113281 25.402344 C 16.394531 25.652344 15.65625 25.835938 14.90625 25.957031 C 14.761719 25.984375 14.691406 26.070312 14.707031 26.21875 C 14.71875 26.371094 14.796875 26.445312 14.945312 26.449219 C 14.960938 26.449219 14.972656 26.449219 14.988281 26.449219 C 16.214844 26.242188 17.277344 25.925781 18.078125 25.539062 C 18.488281 25.503906 18.871094 25.382812 19.226562 25.179688 C 19.226562 25.199219 19.226562 25.222656 19.222656 25.246094 C 19.09375 25.980469 17.917969 26.691406 16.078125 27.148438 L 16.074219 27.148438 C 14.742188 27.484375 13.167969 27.660156 11.523438 27.660156 C 8.566406 27.660156 5.863281 27.078125 4.558594 26.167969 C 4.621094 25.925781 4.691406 25.683594 4.777344 25.441406 C 6.292969 26.246094 8.78125 26.714844 11.523438 26.714844 L 11.667969 26.714844 C 11.820312 26.707031 11.898438 26.625 11.898438 26.46875 C 11.898438 26.3125 11.820312 26.230469 11.667969 26.222656 L 11.527344 26.222656 C 8.863281 26.222656 6.375 25.746094 4.953125 24.96875 C 5.003906 24.835938 5.0625 24.695312 5.125 24.558594 C 5.359375 24.886719 5.714844 25.167969 6.199219 25.414062 C 6.652344 25.652344 7.132812 25.777344 7.640625 25.789062 C 8.0625 25.800781 8.441406 25.679688 8.78125 25.429688 C 9.175781 25.128906 9.445312 24.632812 9.535156 24.039062 C 9.609375 23.535156 9.554688 23.015625 9.511719 22.554688 Z M 24.242188 24.761719 C 24.933594 24.761719 25.65625 24.730469 26.390625 24.667969 C 26.753906 24.632812 27.117188 24.59375 27.476562 24.546875 C 27.492188 24.878906 27.503906 25.207031 27.519531 25.539062 C 27.117188 25.59375 26.714844 25.644531 26.316406 25.679688 C 23.667969 25.910156 21.171875 25.699219 19.722656 25.132812 L 19.722656 25.125 C 19.722656 25.121094 19.722656 25.121094 19.722656 25.117188 L 19.722656 24.828125 C 19.738281 24.816406 19.753906 24.804688 19.769531 24.789062 C 19.933594 24.640625 20.082031 24.476562 20.214844 24.300781 C 21.296875 24.605469 22.695312 24.761719 24.242188 24.761719 Z M 20.5 23.867188 C 20.628906 23.636719 20.738281 23.402344 20.828125 23.15625 C 21 23.253906 21.171875 23.359375 21.339844 23.457031 C 21.898438 23.800781 22.46875 24.148438 23.117188 24.238281 C 22.140625 24.183594 21.246094 24.058594 20.5 23.867188 Z M 23.542969 24.257812 C 23.578125 24.257812 23.613281 24.253906 23.652344 24.25 C 23.972656 24.214844 24.351562 24 24.714844 23.792969 C 24.980469 23.644531 25.25 23.488281 25.441406 23.445312 C 25.585938 23.410156 25.765625 23.511719 25.957031 23.621094 C 26.207031 23.765625 26.492188 23.929688 26.828125 23.851562 C 27.039062 23.792969 27.242188 23.722656 27.445312 23.636719 C 27.449219 23.773438 27.457031 23.910156 27.460938 24.050781 C 27.09375 24.097656 26.722656 24.140625 26.351562 24.175781 C 25.417969 24.257812 24.480469 24.285156 23.542969 24.257812 Z M 27.632812 21.949219 C 27.519531 21.824219 27.417969 21.691406 27.324219 21.550781 C 27.296875 21.480469 27.324219 21.347656 27.375 21.199219 C 28.167969 21.816406 28.929688 22.390625 29.929688 22.648438 C 29.914062 23 29.898438 23.371094 29.875 23.769531 C 29.84375 24.28125 29.808594 24.785156 29.777344 25.289062 L 29.691406 26.542969 C 29.65625 27.140625 29.617188 27.78125 29.597656 28.4375 C 29.582031 28.839844 29.535156 29.246094 29.285156 29.414062 C 29.167969 29.488281 29.042969 29.511719 28.910156 29.476562 C 28.683594 29.425781 28.503906 29.300781 28.375 29.105469 C 28.140625 28.738281 28.117188 28.242188 28.101562 27.808594 L 28.066406 26.886719 L 28.019531 25.75 C 28 25.253906 27.976562 24.757812 27.957031 24.261719 C 27.949219 23.976562 27.9375 23.691406 27.925781 23.40625 C 28.011719 23.359375 28.085938 23.296875 28.15625 23.226562 C 28.429688 22.898438 28.042969 22.4375 27.632812 21.949219 Z M 27.960938 29.371094 C 28.164062 29.6875 28.449219 29.882812 28.816406 29.960938 C 28.886719 29.976562 28.957031 29.984375 29.027344 29.984375 C 29.222656 29.984375 29.402344 29.929688 29.5625 29.820312 C 30.046875 29.484375 30.070312 28.8125 30.085938 28.453125 C 30.105469 27.871094 30.136719 27.300781 30.167969 26.761719 C 31.683594 26.449219 32.492188 26.125 32.921875 25.839844 L 32.921875 29.429688 C 32.921875 29.636719 32.351562 30.113281 30.226562 30.5625 C 28.460938 30.9375 25.960938 31.222656 23.167969 31.367188 C 23.136719 30.867188 23.078125 30.359375 23.027344 29.902344 C 22.957031 29.285156 22.886719 28.703125 22.929688 28.433594 C 23.015625 27.851562 23.574219 27.558594 24.792969 27.445312 C 24.941406 27.429688 25.085938 27.417969 25.230469 27.410156 L 25.316406 27.402344 C 26.105469 27.335938 26.867188 27.257812 27.585938 27.167969 L 27.613281 27.824219 C 27.628906 28.300781 27.652344 28.890625 27.960938 29.371094 Z M 30.203125 26.25 L 30.253906 25.496094 C 31.019531 25.300781 31.757812 25.027344 32.472656 24.683594 C 32.796875 24.863281 32.921875 25.019531 32.921875 25.109375 C 32.921875 25.328125 32.335938 25.796875 30.203125 26.25 Z M 26.195312 26.828125 C 26.28125 26.617188 26.316406 26.402344 26.300781 26.175781 L 26.359375 26.171875 C 26.75 26.136719 27.144531 26.09375 27.539062 26.039062 L 27.566406 26.675781 C 27.125 26.730469 26.667969 26.78125 26.195312 26.828125 Z M 25.808594 26.214844 C 25.816406 26.371094 25.796875 26.578125 25.695312 26.71875 C 25.613281 26.832031 25.472656 26.898438 25.277344 26.910156 L 25.1875 26.917969 C 25.046875 26.929688 24.898438 26.941406 24.746094 26.953125 C 24.113281 27.011719 22.625 27.152344 22.445312 28.359375 C 22.390625 28.695312 22.457031 29.253906 22.539062 29.964844 C 22.597656 30.488281 22.671875 31.082031 22.691406 31.640625 C 22.773438 33.5625 22.25 33.808594 21.847656 33.828125 C 21.421875 33.847656 21.109375 33.753906 20.890625 33.535156 C 20.476562 33.125 20.457031 32.308594 20.480469 31.730469 C 20.484375 31.523438 20.5 31.320312 20.511719 31.136719 C 20.519531 31.058594 20.523438 30.980469 20.527344 30.90625 C 20.5625 30.191406 20.550781 29.472656 20.496094 28.753906 C 20.394531 27.445312 20.21875 27.265625 20.039062 27.191406 C 20.015625 27.183594 19.988281 27.175781 19.964844 27.171875 L 19.914062 27.160156 L 19.898438 27.160156 L 19.855469 27.15625 L 19.832031 27.15625 L 19.78125 27.152344 L 19.753906 27.152344 L 19.6875 27.148438 L 19.667969 27.148438 L 19.574219 27.140625 L 19.558594 27.140625 L 19.46875 27.136719 L 17.773438 27.136719 C 18.753906 26.722656 19.386719 26.210938 19.621094 25.640625 C 21.042969 26.15625 23.34375 26.375 25.808594 26.214844 Z M 8.808594 30.835938 C 8.816406 30.9375 8.824219 31.035156 8.832031 31.132812 L 8.839844 31.230469 C 8.871094 31.632812 8.886719 31.988281 8.785156 32.3125 C 8.703125 32.566406 8.546875 32.753906 8.320312 32.878906 C 8.191406 32.949219 8.058594 32.964844 7.917969 32.921875 C 7.742188 32.859375 7.585938 32.675781 7.511719 32.4375 C 7.441406 32.195312 7.4375 31.902344 7.441406 31.628906 L 7.449219 30.917969 L 7.472656 27.769531 C 8.808594 28.035156 10.160156 28.164062 11.523438 28.15625 C 11.613281 28.15625 11.703125 28.15625 11.792969 28.152344 C 11.621094 28.40625 11.238281 28.5625 10.890625 28.625 C 10.804688 28.636719 10.71875 28.652344 10.632812 28.664062 C 10.179688 28.734375 9.667969 28.816406 9.292969 29.171875 C 8.921875 29.527344 8.765625 30.070312 8.808594 30.835938 Z M 9.632812 29.53125 C 9.894531 29.28125 10.289062 29.21875 10.707031 29.15625 C 10.796875 29.140625 10.886719 29.125 10.972656 29.113281 C 11.695312 28.984375 12.195312 28.625 12.335938 28.140625 C 13.710938 28.09375 15.019531 27.921875 16.164062 27.640625 L 16.355469 27.636719 L 16.835938 27.636719 C 17.859375 27.617188 19.050781 27.609375 19.597656 27.636719 C 19.667969 27.640625 19.730469 27.644531 19.773438 27.648438 L 19.820312 27.65625 C 19.84375 27.714844 19.863281 27.78125 19.878906 27.84375 C 19.980469 28.304688 20.054688 29.3125 20.054688 30.199219 C 20.054688 30.441406 20.046875 30.675781 20.03125 30.882812 C 20.027344 30.957031 20.023438 31.03125 20.019531 31.109375 C 20.015625 31.160156 20.011719 31.214844 20.007812 31.269531 L 20.003906 31.328125 C 20.003906 31.367188 20 31.40625 19.996094 31.445312 C 19.996094 31.460938 19.996094 31.472656 19.996094 31.488281 C 19.476562 31.496094 18.960938 31.5 18.460938 31.5 C 15.132812 31.5 11.898438 31.320312 9.3125 30.996094 C 9.308594 30.9375 9.300781 30.878906 9.296875 30.816406 C 9.265625 30.199219 9.375 29.78125 9.632812 29.53125 Z M 6.984375 27.660156 L 6.960938 30.617188 C 5.46875 30.320312 4.734375 30.023438 4.371094 29.8125 C 4.363281 29.75 4.351562 29.6875 4.34375 29.625 L 4.332031 29.527344 C 4.316406 29.402344 4.300781 29.273438 4.292969 29.148438 C 4.289062 29.105469 4.285156 29.066406 4.285156 29.023438 C 4.277344 28.9375 4.273438 28.851562 4.269531 28.765625 C 4.269531 28.71875 4.269531 28.667969 4.265625 28.621094 C 4.265625 28.542969 4.265625 28.464844 4.265625 28.386719 C 4.265625 28.335938 4.265625 28.285156 4.265625 28.234375 C 4.265625 28.15625 4.269531 28.082031 4.273438 28.007812 C 4.273438 27.957031 4.277344 27.902344 4.28125 27.851562 C 4.285156 27.777344 4.292969 27.699219 4.300781 27.625 C 4.304688 27.574219 4.308594 27.523438 4.316406 27.472656 C 4.324219 27.394531 4.332031 27.316406 4.34375 27.238281 C 4.351562 27.191406 4.355469 27.140625 4.363281 27.09375 C 4.378906 27.007812 4.394531 26.921875 4.410156 26.839844 C 4.417969 26.796875 4.421875 26.753906 4.433594 26.714844 C 4.433594 26.703125 4.4375 26.695312 4.4375 26.6875 C 5.070312 27.082031 5.949219 27.414062 6.984375 27.660156 Z M 33.335938 29.71875 C 33.449219 29.75 33.554688 29.800781 33.648438 29.875 C 33.871094 30.136719 33.980469 30.441406 33.976562 30.785156 L 33.976562 30.988281 C 33.976562 32.324219 33.144531 33.59375 31.632812 34.554688 C 30.085938 35.542969 28.023438 36.082031 25.828125 36.082031 L 10.902344 36.082031 C 6.59375 36.082031 3.03125 33.984375 2.769531 31.296875 C 2.769531 31.289062 2.769531 31.28125 2.769531 31.273438 C 2.886719 31.40625 3.03125 31.492188 3.203125 31.53125 C 3.261719 31.542969 3.320312 31.550781 3.378906 31.550781 C 3.824219 31.550781 4.203125 31.171875 4.328125 30.761719 C 4.367188 30.636719 4.386719 30.511719 4.394531 30.378906 C 4.96875 30.648438 5.824219 30.898438 6.957031 31.117188 L 6.953125 31.625 C 6.953125 31.921875 6.945312 32.257812 7.046875 32.582031 C 7.167969 32.972656 7.433594 33.273438 7.761719 33.386719 C 7.859375 33.421875 7.960938 33.441406 8.066406 33.441406 C 8.234375 33.4375 8.390625 33.398438 8.539062 33.320312 C 8.890625 33.132812 9.128906 32.847656 9.253906 32.464844 C 9.34375 32.144531 9.375 31.820312 9.347656 31.492188 C 11.9375 31.8125 15.15625 31.984375 18.460938 31.984375 C 18.957031 31.984375 19.464844 31.980469 19.980469 31.972656 C 19.976562 32.644531 20.0625 33.40625 20.542969 33.886719 C 20.835938 34.175781 21.234375 34.324219 21.738281 34.324219 C 21.78125 34.324219 21.824219 34.324219 21.871094 34.320312 C 23.140625 34.257812 23.207031 32.664062 23.1875 31.863281 C 25.726562 31.730469 32.550781 31.222656 33.335938 29.71875 Z M 33.710938 21.308594 L 33.710938 21.429688 C 33.636719 22.007812 32.691406 22.671875 31.171875 23.203125 C 31.109375 23.226562 31.0625 23.269531 31.03125 23.328125 C 31.003906 23.390625 31 23.453125 31.019531 23.519531 C 31.042969 23.585938 31.085938 23.632812 31.144531 23.664062 C 31.207031 23.691406 31.269531 23.695312 31.335938 23.671875 C 32.414062 23.296875 33.210938 22.855469 33.6875 22.390625 L 33.679688 22.792969 C 33.679688 22.796875 33.679688 22.796875 33.679688 22.800781 C 33.679688 22.804688 33.679688 22.8125 33.679688 22.820312 C 33.710938 23.222656 33.257812 23.710938 32.425781 24.15625 C 32.367188 24.160156 32.320312 24.1875 32.28125 24.230469 C 31.640625 24.539062 30.976562 24.789062 30.289062 24.976562 C 30.316406 24.585938 30.34375 24.191406 30.367188 23.796875 C 30.386719 23.421875 30.40625 23.070312 30.417969 22.738281 C 31.554688 22.863281 32.902344 22.414062 33.394531 21.253906 C 33.441406 21.144531 33.480469 21.027344 33.511719 20.910156 C 33.621094 21.019531 33.6875 21.15625 33.710938 21.308594 Z M 36.09375 18.734375 C 35.832031 18.828125 35.53125 18.800781 35.214844 18.773438 L 35.113281 18.765625 C 34.699219 18.730469 34.265625 18.726562 33.898438 18.960938 C 33.398438 19.277344 33.265625 19.835938 33.140625 20.375 L 33.128906 20.414062 C 33.085938 20.636719 33.019531 20.847656 32.941406 21.058594 C 32.511719 22.074219 31.222656 22.410156 30.230469 22.207031 C 29.210938 22 28.464844 21.421875 27.601562 20.753906 L 27.429688 20.617188 C 27.371094 20.574219 27.304688 20.558594 27.230469 20.570312 C 27.160156 20.585938 27.105469 20.625 27.066406 20.691406 C 27.003906 20.800781 26.703125 21.363281 26.878906 21.753906 C 26.9375 21.878906 27.0625 22.03125 27.257812 22.269531 C 27.402344 22.4375 27.6875 22.777344 27.746094 22.933594 C 27.5625 23.066406 26.972656 23.308594 26.710938 23.371094 C 26.566406 23.40625 26.386719 23.304688 26.195312 23.191406 C 25.945312 23.046875 25.660156 22.882812 25.324219 22.960938 C 25.070312 23.023438 24.777344 23.1875 24.472656 23.363281 C 24.164062 23.542969 23.820312 23.734375 23.601562 23.757812 C 22.894531 23.832031 22.261719 23.445312 21.59375 23.035156 C 21.335938 22.878906 21.070312 22.71875 20.796875 22.582031 C 20.730469 22.546875 20.664062 22.546875 20.59375 22.578125 C 20.523438 22.605469 20.476562 22.65625 20.457031 22.730469 C 20.242188 23.433594 19.890625 24.019531 19.445312 24.421875 C 19.40625 24.457031 19.371094 24.488281 19.328125 24.519531 C 18.941406 24.839844 18.496094 25.015625 18 25.050781 C 17.898438 25.058594 17.796875 25.054688 17.695312 25.042969 C 17.0625 24.972656 16.496094 24.535156 16.3125 23.976562 C 16.273438 23.847656 16.242188 23.714844 16.222656 23.582031 C 16.191406 23.382812 16.140625 23.1875 16.070312 23 C 15.902344 22.597656 15.441406 22.242188 14.988281 22.367188 C 14.921875 22.382812 14.871094 22.421875 14.835938 22.484375 C 14.804688 22.546875 14.796875 22.609375 14.816406 22.675781 C 14.929688 23.050781 15.046875 23.441406 15.035156 23.816406 C 15.023438 24.113281 14.90625 24.492188 14.605469 24.667969 C 14.386719 24.804688 14.070312 24.808594 13.757812 24.691406 C 13.445312 24.570312 13.164062 24.355469 12.890625 24.140625 C 12.390625 23.753906 11.890625 23.367188 11.390625 22.976562 L 10.75 22.480469 C 10.53125 22.308594 10.253906 22.09375 9.914062 22.042969 C 9.796875 22.023438 9.398438 21.976562 9.164062 22.199219 C 9.050781 22.3125 9 22.445312 9.019531 22.605469 C 9.066406 23.058594 9.117188 23.523438 9.046875 23.972656 C 9.007812 24.242188 8.878906 24.742188 8.484375 25.046875 C 7.773438 25.589844 6.722656 25.132812 6.417969 24.980469 C 5.875 24.707031 5.53125 24.390625 5.375 24.019531 C 5.363281 23.992188 5.351562 23.964844 5.34375 23.9375 C 5.34375 23.9375 5.34375 23.933594 5.34375 23.933594 C 5.21875 23.5625 5.269531 23.164062 5.339844 22.898438 C 5.417969 22.578125 5.535156 22.273438 5.691406 21.984375 C 5.816406 21.753906 5.96875 21.542969 6.148438 21.355469 C 6.242188 21.265625 6.253906 21.164062 6.1875 21.050781 C 6.121094 20.9375 6.023438 20.902344 5.902344 20.945312 C 5.289062 21.144531 4.652344 21.347656 4.003906 21.429688 C 3.925781 21.441406 3.84375 21.449219 3.765625 21.457031 C 2.984375 21.515625 2.277344 21.34375 1.777344 20.972656 C 1.210938 20.554688 0.910156 19.84375 1.058594 19.242188 C 1.171875 18.773438 1.5625 18.332031 2.097656 18.066406 C 2.542969 17.84375 3.042969 17.75 3.492188 17.6875 C 8.175781 19.980469 13.121094 21.128906 18.324219 21.136719 C 23.53125 21.128906 28.476562 19.980469 33.160156 17.6875 C 34.046875 17.546875 34.929688 17.574219 35.808594 17.765625 C 36.082031 17.828125 36.421875 17.949219 36.484375 18.1875 C 36.542969 18.40625 36.320312 18.652344 36.09375 18.734375 Z M 36.09375 18.734375 " fill-opacity="1" fill-rule="nonzero"/><path fill="#d18920" d="M 24.003906 11.8125 C 24.1875 11.8125 24.363281 11.847656 24.53125 11.917969 C 24.699219 11.988281 24.84375 12.085938 24.972656 12.21875 C 25.101562 12.347656 25.203125 12.496094 25.269531 12.664062 C 25.339844 12.835938 25.375 13.011719 25.375 13.195312 L 25.375 15.796875 C 25.375 15.980469 25.339844 16.15625 25.269531 16.328125 C 25.203125 16.496094 25.101562 16.644531 24.972656 16.773438 C 24.84375 16.90625 24.699219 17.003906 24.53125 17.074219 C 24.363281 17.144531 24.1875 17.179688 24.003906 17.179688 C 23.824219 17.179688 23.648438 17.144531 23.480469 17.074219 C 23.3125 17.003906 23.164062 16.90625 23.035156 16.773438 C 22.90625 16.644531 22.808594 16.496094 22.738281 16.328125 C 22.667969 16.15625 22.632812 15.980469 22.632812 15.796875 L 22.632812 13.195312 C 22.632812 13.011719 22.667969 12.835938 22.738281 12.664062 C 22.808594 12.496094 22.90625 12.347656 23.035156 12.21875 C 23.164062 12.085938 23.3125 11.988281 23.480469 11.917969 C 23.648438 11.847656 23.824219 11.8125 24.003906 11.8125 Z M 24.003906 11.8125 " fill-opacity="1" fill-rule="nonzero"/><path fill="#d18920" d="M 12.402344 17.179688 C 12.582031 17.179688 12.757812 17.144531 12.925781 17.074219 C 13.09375 17.003906 13.242188 16.90625 13.371094 16.777344 C 13.5 16.644531 13.597656 16.496094 13.667969 16.328125 C 13.738281 16.15625 13.769531 15.980469 13.773438 15.796875 L 13.773438 13.195312 C 13.773438 13.011719 13.738281 12.835938 13.667969 12.667969 C 13.597656 12.496094 13.5 12.347656 13.371094 12.21875 C 13.242188 12.089844 13.09375 11.988281 12.925781 11.917969 C 12.757812 11.847656 12.582031 11.8125 12.402344 11.8125 C 12.21875 11.8125 12.042969 11.847656 11.875 11.917969 C 11.707031 11.988281 11.558594 12.089844 11.429688 12.21875 C 11.300781 12.347656 11.203125 12.496094 11.132812 12.667969 C 11.0625 12.835938 11.03125 13.011719 11.03125 13.195312 L 11.03125 15.796875 C 11.03125 15.980469 11.066406 16.15625 11.132812 16.328125 C 11.203125 16.496094 11.304688 16.644531 11.429688 16.777344 C 11.558594 16.90625 11.707031 17.003906 11.875 17.074219 C 12.042969 17.144531 12.21875 17.179688 12.402344 17.179688 Z M 12.402344 17.179688 " fill-opacity="1" fill-rule="nonzero"/><path fill="#351206" d="M 24.304688 11.511719 C 24.484375 11.511719 24.660156 11.546875 24.828125 11.613281 C 24.996094 11.683594 25.144531 11.785156 25.273438 11.914062 C 25.402344 12.042969 25.5 12.195312 25.570312 12.363281 C 25.640625 12.53125 25.675781 12.710938 25.675781 12.894531 L 25.675781 15.496094 C 25.675781 15.679688 25.640625 15.855469 25.570312 16.023438 C 25.5 16.195312 25.402344 16.34375 25.273438 16.472656 C 25.144531 16.601562 24.996094 16.703125 24.828125 16.773438 C 24.660156 16.84375 24.484375 16.878906 24.304688 16.878906 C 24.121094 16.878906 23.949219 16.84375 23.78125 16.773438 C 23.613281 16.703125 23.464844 16.601562 23.335938 16.472656 C 23.207031 16.34375 23.105469 16.195312 23.039062 16.023438 C 22.96875 15.855469 22.933594 15.679688 22.933594 15.496094 L 22.933594 12.894531 C 22.933594 12.710938 22.96875 12.53125 23.039062 12.363281 C 23.105469 12.195312 23.207031 12.042969 23.335938 11.914062 C 23.464844 11.785156 23.613281 11.683594 23.78125 11.613281 C 23.949219 11.546875 24.121094 11.511719 24.304688 11.511719 Z M 24.304688 11.511719 " fill-opacity="1" fill-rule="nonzero"/><path fill="#351206" d="M 12.699219 16.878906 C 12.882812 16.878906 13.058594 16.84375 13.226562 16.773438 C 13.394531 16.703125 13.542969 16.601562 13.671875 16.472656 C 13.796875 16.34375 13.898438 16.195312 13.96875 16.023438 C 14.035156 15.855469 14.070312 15.679688 14.070312 15.496094 L 14.070312 12.894531 C 14.074219 12.707031 14.042969 12.527344 13.976562 12.355469 C 13.910156 12.183594 13.808594 12.027344 13.679688 11.894531 C 13.550781 11.761719 13.402344 11.660156 13.230469 11.585938 C 13.0625 11.515625 12.886719 11.480469 12.699219 11.480469 C 12.515625 11.480469 12.339844 11.515625 12.167969 11.585938 C 12 11.660156 11.847656 11.761719 11.71875 11.894531 C 11.589844 12.027344 11.492188 12.183594 11.425781 12.355469 C 11.355469 12.527344 11.324219 12.707031 11.328125 12.894531 L 11.328125 15.496094 C 11.328125 15.679688 11.363281 15.855469 11.433594 16.023438 C 11.503906 16.195312 11.601562 16.34375 11.730469 16.472656 C 11.859375 16.601562 12.007812 16.703125 12.175781 16.773438 C 12.34375 16.84375 12.519531 16.878906 12.699219 16.878906 Z M 12.699219 16.878906 " fill-opacity="1" fill-rule="nonzero"/><path fill="#351206" d="M 15.523438 17.621094 C 15.613281 17.671875 17.035156 18.480469 18.746094 18.480469 C 19.761719 18.496094 20.683594 18.203125 21.507812 17.601562 C 21.578125 17.554688 21.617188 17.488281 21.632812 17.402344 C 21.644531 17.316406 21.628906 17.242188 21.578125 17.171875 C 21.527344 17.101562 21.460938 17.0625 21.378906 17.046875 C 21.292969 17.035156 21.21875 17.050781 21.148438 17.101562 C 18.839844 18.785156 15.871094 17.109375 15.832031 17.085938 C 15.757812 17.042969 15.679688 17.03125 15.597656 17.054688 C 15.515625 17.078125 15.453125 17.125 15.414062 17.199219 C 15.371094 17.273438 15.359375 17.351562 15.382812 17.433594 C 15.402344 17.515625 15.453125 17.578125 15.523438 17.621094 Z M 15.523438 17.621094 " fill-opacity="1" fill-rule="nonzero"/><path fill="#ffffff" d="M 24.53125 12.152344 L 25.007812 12.152344 C 25.085938 12.152344 25.152344 12.179688 25.207031 12.234375 C 25.261719 12.289062 25.289062 12.359375 25.289062 12.4375 L 25.289062 13.910156 C 25.289062 13.988281 25.261719 14.054688 25.207031 14.109375 C 25.152344 14.167969 25.085938 14.195312 25.007812 14.195312 L 24.53125 14.195312 C 24.453125 14.195312 24.382812 14.167969 24.328125 14.109375 C 24.273438 14.054688 24.246094 13.988281 24.246094 13.910156 L 24.246094 12.4375 C 24.246094 12.359375 24.273438 12.289062 24.328125 12.234375 C 24.382812 12.179688 24.453125 12.152344 24.53125 12.152344 Z M 24.53125 12.152344 " fill-opacity="1" fill-rule="nonzero"/><path fill="#ffffff" d="M 12.925781 12.152344 L 13.402344 12.152344 C 13.480469 12.152344 13.546875 12.179688 13.601562 12.234375 C 13.65625 12.289062 13.6875 12.359375 13.6875 12.4375 L 13.6875 13.910156 C 13.6875 13.988281 13.65625 14.054688 13.601562 14.109375 C 13.546875 14.167969 13.480469 14.195312 13.402344 14.195312 L 12.925781 14.195312 C 12.847656 14.195312 12.78125 14.167969 12.726562 14.109375 C 12.667969 14.054688 12.640625 13.988281 12.640625 13.910156 L 12.640625 12.4375 C 12.640625 12.359375 12.667969 12.289062 12.726562 12.234375 C 12.78125 12.179688 12.847656 12.152344 12.925781 12.152344 Z M 12.925781 12.152344 " fill-opacity="1" fill-rule="nonzero"/><path fill="#d18920" d="M 32.539062 17.441406 C 29.476562 18.441406 18.238281 21.644531 10.855469 17.601562 C 2.238281 12.882812 8.703125 4.570312 8.703125 4.570312 C 7.933594 5.257812 7.242188 6.015625 6.632812 6.847656 C 6.023438 7.683594 5.511719 8.570312 5.089844 9.515625 C 4.667969 10.460938 4.347656 11.4375 4.132812 12.453125 C 3.917969 13.464844 3.808594 14.488281 3.808594 15.523438 L 3.808594 17.164062 C 3.921875 17.191406 3.984375 17.261719 4 17.375 C 3.996094 17.378906 3.996094 17.378906 4 17.382812 C 13.082031 21.738281 23.441406 21.757812 32.539062 17.441406 Z M 32.539062 17.441406 " fill-opacity="1" fill-rule="nonzero"/><path fill="#648900" d="M 32.707031 17.90625 C 28.148438 20.050781 23.355469 21.128906 18.324219 21.136719 C 13.121094 21.128906 8.175781 19.980469 3.492188 17.6875 C 3.046875 17.75 2.542969 17.84375 2.097656 18.066406 C 1.566406 18.335938 1.175781 18.773438 1.058594 19.242188 C 0.914062 19.84375 1.210938 20.554688 1.777344 20.972656 C 2.277344 21.34375 2.984375 21.515625 3.765625 21.457031 C 3.847656 21.449219 3.925781 21.441406 4.007812 21.429688 C 4.65625 21.347656 5.289062 21.140625 5.902344 20.945312 C 6.027344 20.902344 6.121094 20.9375 6.1875 21.050781 C 6.253906 21.164062 6.242188 21.265625 6.148438 21.355469 C 5.96875 21.542969 5.816406 21.753906 5.691406 21.984375 C 5.535156 22.269531 5.414062 22.570312 5.332031 22.890625 C 5.296875 23.039062 5.273438 23.191406 5.265625 23.347656 C 5.476562 23.542969 5.714844 23.695312 5.984375 23.796875 C 6.277344 23.90625 6.609375 23.949219 6.902344 23.835938 C 8.027344 23.402344 7.554688 21.378906 8.605469 20.785156 C 9.214844 20.445312 9.960938 20.800781 10.558594 21.160156 C 11.742188 21.867188 12.902344 22.613281 14.042969 23.386719 C 14.421875 22.976562 14 22.226562 14.332031 21.777344 C 14.582031 21.433594 15.113281 21.484375 15.492188 21.679688 C 16.417969 22.152344 16.941406 23.1875 17.816406 23.753906 C 18.140625 23.960938 18.644531 24.066406 18.859375 23.742188 C 18.945312 23.617188 18.960938 23.464844 19 23.316406 C 19.195312 22.589844 20.007812 22.175781 20.753906 22.191406 C 21.503906 22.207031 22.199219 22.554688 22.867188 22.894531 C 23.164062 23.042969 23.550781 22.972656 23.84375 22.808594 C 24.132812 22.640625 24.394531 22.40625 24.71875 22.332031 C 25.324219 22.199219 26.140625 22.601562 26.472656 22.078125 C 26.6875 21.726562 26.453125 21.242188 26.632812 20.871094 C 26.878906 20.371094 27.597656 20.476562 28.144531 20.558594 C 30.019531 20.828125 31.976562 19.648438 32.707031 17.90625 Z M 32.707031 17.90625 " fill-opacity="1" fill-rule="nonzero"/><path fill="#afd34a" d="M 36.484375 18.1875 C 36.421875 17.949219 36.085938 17.828125 35.808594 17.765625 C 35.542969 17.703125 35.273438 17.660156 35.003906 17.636719 C 35.050781 17.699219 35.066406 17.769531 35.058594 17.847656 C 35.035156 17.941406 34.984375 18.011719 34.90625 18.066406 C 34.714844 18.21875 34.5 18.304688 34.257812 18.324219 C 33.984375 18.347656 33.691406 18.277344 33.445312 18.390625 C 33.066406 18.566406 32.980469 19.058594 32.886719 19.464844 C 32.636719 20.535156 31.851562 21.566406 30.773438 21.726562 C 29.875 21.859375 29.019531 21.378906 28.132812 21.15625 C 28.789062 21.644531 29.421875 22.042969 30.230469 22.207031 C 31.222656 22.410156 32.511719 22.074219 32.941406 21.058594 C 33.019531 20.847656 33.085938 20.632812 33.128906 20.414062 L 33.140625 20.375 C 33.265625 19.839844 33.398438 19.277344 33.898438 18.960938 C 34.265625 18.726562 34.699219 18.726562 35.113281 18.761719 L 35.214844 18.773438 C 35.53125 18.800781 35.832031 18.824219 36.09375 18.730469 C 36.320312 18.652344 36.542969 18.40625 36.484375 18.1875 Z M 36.484375 18.1875 " fill-opacity="1" fill-rule="nonzero"/><path fill="#afd34a" d="M 27.746094 22.933594 C 27.6875 22.777344 27.402344 22.4375 27.257812 22.269531 L 27.234375 22.238281 C 27.238281 22.265625 27.246094 22.289062 27.246094 22.316406 C 27.261719 22.464844 27.25 22.632812 27.148438 22.742188 C 27.085938 22.808594 27.011719 22.851562 26.929688 22.878906 C 26.683594 22.96875 26.433594 23.011719 26.175781 23.003906 C 26.066406 22.996094 25.957031 23 25.847656 23.015625 C 25.96875 23.066406 26.085938 23.125 26.195312 23.191406 C 26.386719 23.300781 26.566406 23.40625 26.710938 23.371094 C 26.972656 23.308594 27.5625 23.070312 27.746094 22.933594 Z M 27.746094 22.933594 " fill-opacity="1" fill-rule="nonzero"/><path fill="#ffc673" d="M 30.4375 10.039062 C 30.234375 10.042969 30.085938 9.949219 29.996094 9.761719 C 28.808594 7.222656 26.867188 5.261719 24.234375 3.921875 C 24.113281 3.863281 24.03125 3.769531 23.988281 3.640625 C 23.945312 3.507812 23.957031 3.382812 24.015625 3.261719 C 24.078125 3.140625 24.171875 3.058594 24.300781 3.015625 C 24.429688 2.972656 24.554688 2.984375 24.671875 3.046875 C 27.507812 4.484375 29.59375 6.601562 30.878906 9.339844 C 30.914062 9.414062 30.929688 9.496094 30.925781 9.578125 C 30.917969 9.664062 30.894531 9.742188 30.851562 9.8125 C 30.804688 9.882812 30.746094 9.9375 30.671875 9.980469 C 30.601562 10.019531 30.523438 10.039062 30.4375 10.039062 Z M 30.4375 10.039062 " fill-opacity="1" fill-rule="nonzero"/><path fill="#ffc673" d="M 21.980469 2.972656 C 21.929688 2.972656 21.882812 2.964844 21.835938 2.949219 C 20.136719 2.421875 18.890625 2.335938 18.878906 2.335938 C 18.75 2.320312 18.644531 2.261719 18.5625 2.160156 C 18.480469 2.0625 18.441406 1.945312 18.449219 1.816406 C 18.457031 1.683594 18.511719 1.574219 18.605469 1.488281 C 18.699219 1.398438 18.8125 1.355469 18.941406 1.355469 C 19 1.359375 20.316406 1.449219 22.125 2.015625 C 22.242188 2.050781 22.332031 2.121094 22.394531 2.222656 C 22.457031 2.324219 22.480469 2.4375 22.464844 2.558594 C 22.445312 2.675781 22.390625 2.777344 22.300781 2.855469 C 22.207031 2.9375 22.101562 2.976562 21.980469 2.976562 Z M 21.980469 2.972656 " fill-opacity="1" fill-rule="nonzero"/><path fill="#d85c48" d="M 33.707031 21.429688 L 33.707031 21.308594 C 33.6875 21.152344 33.621094 21.019531 33.507812 20.90625 C 33.476562 21.023438 33.433594 21.140625 33.386719 21.253906 C 33.199219 21.691406 32.902344 22.035156 32.496094 22.285156 C 32.242188 22.566406 31.957031 22.8125 31.640625 23.023438 C 32.882812 22.527344 33.644531 21.945312 33.707031 21.429688 Z M 33.707031 21.429688 " fill-opacity="1" fill-rule="nonzero"/><path fill="#d85c48" d="M 32.847656 23.902344 C 33.40625 23.53125 33.703125 23.148438 33.675781 22.820312 C 33.675781 22.8125 33.675781 22.808594 33.675781 22.800781 C 33.675781 22.792969 33.675781 22.796875 33.675781 22.792969 L 33.683594 22.390625 C 33.46875 22.59375 33.230469 22.773438 32.96875 22.925781 C 33.015625 23.113281 33.015625 23.304688 32.96875 23.492188 C 32.9375 23.628906 32.890625 23.765625 32.847656 23.902344 Z M 32.847656 23.902344 " fill-opacity="1" fill-rule="nonzero"/><path fill="#9b1e0a" d="M 20.214844 24.300781 C 20.082031 24.476562 19.933594 24.640625 19.773438 24.789062 C 19.757812 24.804688 19.742188 24.816406 19.726562 24.828125 L 19.726562 25.117188 C 19.726562 25.117188 19.726562 25.121094 19.726562 25.125 L 19.726562 25.132812 C 20.609375 25.480469 21.886719 25.695312 23.351562 25.757812 C 23.332031 25.699219 23.316406 25.644531 23.304688 25.585938 C 23.25 25.308594 23.226562 25.027344 23.230469 24.742188 C 22.085938 24.683594 21.054688 24.535156 20.214844 24.300781 Z M 20.214844 24.300781 " fill-opacity="1" fill-rule="nonzero"/><path fill="#81b214" d="M 1.710938 18.800781 C 1.6875 18.640625 1.683594 18.480469 1.695312 18.320312 C 1.371094 18.574219 1.144531 18.902344 1.058594 19.242188 C 0.914062 19.84375 1.210938 20.554688 1.777344 20.972656 C 2.277344 21.34375 2.984375 21.515625 3.765625 21.457031 C 3.847656 21.449219 3.925781 21.441406 4.007812 21.429688 C 4.0625 21.425781 4.117188 21.414062 4.171875 21.40625 C 3.742188 21.082031 3.0625 20.996094 2.644531 20.601562 C 2.125 20.109375 1.816406 19.507812 1.710938 18.800781 Z M 1.710938 18.800781 " fill-opacity="1" fill-rule="nonzero"/><path fill="#9b1e0a" d="M 8.988281 25.246094 C 9.265625 25.378906 9.742188 25.359375 10.042969 25.378906 C 10.429688 25.40625 10.816406 25.414062 11.203125 25.394531 C 11.441406 25.386719 11.695312 25.363281 11.882812 25.21875 C 12.105469 25.050781 12.1875 24.753906 12.207031 24.480469 C 12.210938 24.398438 12.210938 24.316406 12.207031 24.230469 L 11.09375 23.367188 L 10.453125 22.871094 C 10.265625 22.726562 10.054688 22.5625 9.835938 22.527344 C 9.726562 22.503906 9.617188 22.511719 9.511719 22.554688 C 9.558594 23.019531 9.609375 23.535156 9.53125 24.042969 C 9.472656 24.5 9.292969 24.902344 8.988281 25.246094 Z M 8.988281 25.246094 " fill-opacity="1" fill-rule="nonzero"/><path fill="#9b1e0a" d="M 14.90625 25.0625 C 15.132812 24.996094 15.34375 24.890625 15.539062 24.75 C 15.695312 24.628906 15.820312 24.480469 15.917969 24.308594 C 15.890625 24.25 15.867188 24.191406 15.847656 24.132812 C 15.804688 23.980469 15.765625 23.828125 15.742188 23.671875 C 15.714844 23.503906 15.671875 23.34375 15.613281 23.1875 C 15.566406 23.078125 15.492188 22.988281 15.398438 22.917969 C 15.484375 23.214844 15.527344 23.519531 15.523438 23.828125 C 15.503906 24.363281 15.273438 24.816406 14.90625 25.0625 Z M 14.90625 25.0625 " fill-opacity="1" fill-rule="nonzero"/><path fill="#9b1e0a" d="M 13.710938 25.257812 C 13.78125 25.257812 13.851562 25.25 13.921875 25.246094 C 13.804688 25.222656 13.695312 25.195312 13.585938 25.152344 C 13.203125 25.007812 12.882812 24.757812 12.601562 24.539062 C 12.652344 24.800781 12.988281 25.105469 13.1875 25.1875 C 13.355469 25.25 13.53125 25.269531 13.710938 25.257812 Z M 13.710938 25.257812 " fill-opacity="1" fill-rule="nonzero"/><path fill="#9b1e0a" d="M 7.207031 25.773438 L 7.214844 25.757812 C 6.859375 25.695312 6.519531 25.585938 6.199219 25.421875 C 5.710938 25.175781 5.355469 24.894531 5.121094 24.566406 C 5.0625 24.707031 5.003906 24.84375 4.949219 24.980469 C 5.539062 25.296875 6.3125 25.566406 7.207031 25.773438 Z M 7.207031 25.773438 " fill-opacity="1" fill-rule="nonzero"/><path fill="#9b1e0a" d="M 6.941406 27.148438 C 6.894531 26.839844 6.914062 26.539062 7.007812 26.242188 C 6.136719 26.035156 5.378906 25.765625 4.773438 25.445312 C 4.691406 25.691406 4.617188 25.933594 4.554688 26.175781 C 5.121094 26.566406 5.945312 26.898438 6.941406 27.148438 Z M 6.941406 27.148438 " fill-opacity="1" fill-rule="nonzero"/><path fill="#d85c48" d="M 11.664062 26.226562 C 12.730469 26.253906 13.789062 26.171875 14.839844 25.980469 C 14.863281 25.96875 14.886719 25.960938 14.90625 25.957031 C 15.214844 25.90625 15.507812 25.847656 15.789062 25.785156 L 15.816406 25.777344 L 15.847656 25.769531 C 16.144531 25.699219 16.402344 25.628906 16.617188 25.566406 C 16.789062 25.515625 16.957031 25.460938 17.113281 25.40625 C 16.953125 25.34375 16.800781 25.265625 16.65625 25.167969 C 15.636719 25.859375 11.664062 26.226562 11.664062 26.226562 Z M 11.664062 26.226562 " fill-opacity="1" fill-rule="nonzero"/><path fill="#d18920" d="M 10.902344 36.082031 L 25.828125 36.082031 C 27.433594 36.082031 28.96875 35.789062 30.289062 35.25 C 9.160156 37.488281 10.167969 31.585938 10.167969 31.585938 C 9.886719 31.558594 9.613281 31.527344 9.347656 31.492188 C 9.375 31.824219 9.34375 32.148438 9.253906 32.464844 C 9.128906 32.847656 8.890625 33.132812 8.539062 33.324219 C 8.390625 33.402344 8.234375 33.441406 8.066406 33.441406 C 7.960938 33.441406 7.859375 33.425781 7.761719 33.390625 C 7.4375 33.277344 7.167969 32.976562 7.046875 32.585938 C 6.945312 32.257812 6.949219 31.921875 6.953125 31.625 L 6.957031 31.121094 C 5.824219 30.898438 4.96875 30.652344 4.398438 30.382812 C 4.390625 30.511719 4.367188 30.640625 4.328125 30.765625 C 4.207031 31.171875 3.824219 31.554688 3.378906 31.554688 C 3.320312 31.554688 3.261719 31.546875 3.203125 31.535156 C 3.03125 31.496094 2.886719 31.40625 2.769531 31.273438 C 2.769531 31.28125 2.769531 31.292969 2.769531 31.300781 C 3.03125 33.984375 6.59375 36.082031 10.902344 36.082031 Z M 10.902344 36.082031 " fill-opacity="1" fill-rule="nonzero"/><path fill="#ffc673" d="M 30.703125 30.964844 C 32.277344 30.863281 33.871094 31.191406 33.222656 33.125 C 33.714844 32.464844 33.976562 31.738281 33.976562 30.992188 L 33.976562 30.789062 C 33.980469 30.445312 33.871094 30.140625 33.648438 29.878906 C 33.554688 29.804688 33.449219 29.753906 33.335938 29.722656 C 33.058594 30.25 32.03125 30.65625 30.703125 30.964844 Z M 30.703125 30.964844 " fill-opacity="1" fill-rule="nonzero"/><path fill="#6d2100" d="M 19.996094 31.480469 C 19.996094 31.464844 19.996094 31.453125 19.996094 31.4375 C 19.996094 31.398438 20 31.359375 20.003906 31.320312 L 20.007812 31.261719 C 20.007812 31.207031 20.015625 31.152344 20.019531 31.101562 C 20.023438 31.023438 20.03125 30.949219 20.035156 30.875 C 16.066406 30.761719 14.90625 29.210938 14.640625 27.933594 C 13.875 28.046875 13.109375 28.117188 12.335938 28.140625 C 12.195312 28.625 11.695312 28.984375 10.972656 29.113281 C 10.886719 29.125 10.796875 29.140625 10.707031 29.15625 C 10.289062 29.222656 9.894531 29.28125 9.632812 29.53125 C 9.371094 29.78125 9.265625 30.199219 9.300781 30.808594 C 9.304688 30.867188 9.308594 30.925781 9.3125 30.988281 C 11.898438 31.3125 15.136719 31.492188 18.460938 31.492188 C 18.960938 31.492188 19.476562 31.488281 19.996094 31.480469 Z M 19.996094 31.480469 " fill-opacity="1" fill-rule="nonzero"/><path fill="#6d2100" d="M 26.402344 28.378906 C 26.199219 28.429688 25.984375 28.480469 25.785156 28.421875 C 25.582031 28.367188 25.433594 28.222656 25.242188 28.164062 C 25.007812 28.09375 24.800781 28.140625 24.617188 28.308594 C 24.566406 28.363281 24.511719 28.414062 24.457031 28.464844 C 24.265625 28.605469 24.003906 28.546875 23.769531 28.503906 C 23.539062 28.460938 23.25 28.460938 23.121094 28.65625 C 23.519531 28.527344 23.929688 28.9375 24.320312 28.773438 C 24.546875 28.675781 24.703125 28.402344 24.953125 28.394531 C 25.0625 28.390625 25.164062 28.441406 25.269531 28.480469 C 25.585938 28.59375 26.085938 28.515625 26.402344 28.378906 Z M 26.402344 28.378906 " fill-opacity="1" fill-rule="nonzero"/><path fill="#6d2100" d="M 26.539062 30.027344 C 26.769531 29.929688 26.921875 29.65625 27.171875 29.648438 C 27.285156 29.65625 27.390625 29.683594 27.488281 29.730469 C 27.714844 29.8125 28.03125 29.800781 28.304688 29.730469 C 28.289062 29.71875 28.273438 29.707031 28.257812 29.695312 C 28.171875 29.703125 28.089844 29.695312 28.003906 29.671875 C 27.8125 29.617188 27.652344 29.472656 27.460938 29.414062 C 27.226562 29.34375 27.019531 29.394531 26.839844 29.558594 C 26.789062 29.613281 26.734375 29.664062 26.675781 29.714844 C 26.488281 29.855469 26.222656 29.796875 25.992188 29.753906 C 25.757812 29.710938 25.472656 29.710938 25.339844 29.90625 C 25.742188 29.777344 26.152344 30.191406 26.539062 30.027344 Z M 26.539062 30.027344 " fill-opacity="1" fill-rule="nonzero"/><path fill="#6d2100" d="M 17.554688 28.015625 C 17.355469 28.0625 17.140625 28.113281 16.941406 28.058594 C 16.738281 28 16.589844 27.855469 16.394531 27.796875 C 16.164062 27.730469 15.957031 27.777344 15.773438 27.941406 C 15.722656 27.996094 15.667969 28.046875 15.613281 28.097656 C 15.421875 28.238281 15.160156 28.183594 14.925781 28.140625 C 14.695312 28.097656 14.40625 28.09375 14.277344 28.292969 C 14.675781 28.160156 15.085938 28.574219 15.472656 28.40625 C 15.703125 28.3125 15.859375 28.039062 16.109375 28.03125 C 16.21875 28.039062 16.324219 28.066406 16.425781 28.113281 C 16.746094 28.230469 17.246094 28.148438 17.554688 28.015625 Z M 17.554688 28.015625 " fill-opacity="1" fill-rule="nonzero"/><path fill="#6d2100" d="M 20.054688 29.84375 C 20.035156 29.855469 20.019531 29.871094 20.003906 29.882812 C 19.953125 29.941406 19.898438 29.992188 19.839844 30.042969 C 19.648438 30.183594 19.386719 30.125 19.152344 30.082031 C 18.921875 30.039062 18.636719 30.039062 18.503906 30.238281 C 18.902344 30.101562 19.3125 30.515625 19.703125 30.351562 C 19.835938 30.296875 19.941406 30.183594 20.058594 30.09375 C 20.054688 30.011719 20.054688 29.925781 20.054688 29.84375 Z M 20.054688 29.84375 " fill-opacity="1" fill-rule="nonzero"/><path fill="#aa4f26" d="M 30.703125 30.453125 C 32.4375 30.039062 32.921875 29.621094 32.921875 29.429688 L 32.921875 25.839844 C 32.640625 26.023438 32.199219 26.230469 31.507812 26.433594 C 31.507812 26.433594 32.515625 28.945312 30.703125 30.453125 Z M 30.703125 30.453125 " fill-opacity="1" fill-rule="nonzero"/><path fill="#6d2100" d="M 27.019531 31.058594 C 25.167969 31.226562 23.140625 31.058594 23.140625 31.058594 C 23.15625 31.214844 23.15625 31.214844 23.164062 31.371094 C 24.535156 31.296875 25.839844 31.191406 27.019531 31.058594 Z M 27.019531 31.058594 " fill-opacity="1" fill-rule="nonzero"/><path fill="#6d2100" d="M 27.679688 30.976562 C 27.632812 30.984375 27.578125 30.988281 27.519531 31 Z M 27.679688 30.976562 " fill-opacity="1" fill-rule="nonzero"/><path fill="#d18920" d="M 18.136719 5.167969 L 18.210938 5.167969 C 18.289062 5.167969 18.359375 5.195312 18.414062 5.253906 C 18.472656 5.308594 18.5 5.378906 18.5 5.460938 L 18.5 6.226562 C 18.5 6.304688 18.472656 6.375 18.414062 6.433594 C 18.359375 6.488281 18.289062 6.515625 18.210938 6.515625 L 18.136719 6.515625 C 18.058594 6.515625 17.988281 6.488281 17.933594 6.433594 C 17.878906 6.375 17.847656 6.304688 17.847656 6.226562 L 17.847656 5.460938 C 17.847656 5.378906 17.878906 5.308594 17.933594 5.253906 C 17.988281 5.195312 18.058594 5.167969 18.136719 5.167969 Z M 18.136719 5.167969 " fill-opacity="1" fill-rule="nonzero"/><path fill="#d18920" d="M 21.003906 3.097656 L 21.078125 3.097656 C 21.160156 3.097656 21.226562 3.125 21.28125 3.183594 C 21.339844 3.238281 21.367188 3.308594 21.367188 3.390625 L 21.367188 4.15625 C 21.367188 4.234375 21.339844 4.304688 21.28125 4.363281 C 21.226562 4.417969 21.160156 4.445312 21.078125 4.445312 L 21.003906 4.445312 C 20.925781 4.445312 20.859375 4.417969 20.800781 4.363281 C 20.746094 4.304688 20.71875 4.234375 20.71875 4.15625 L 20.71875 3.390625 C 20.71875 3.308594 20.746094 3.238281 20.800781 3.183594 C 20.859375 3.125 20.925781 3.097656 21.003906 3.097656 Z M 21.003906 3.097656 " fill-opacity="1" fill-rule="nonzero"/><path fill="#d18920" d="M 15.007812 3.222656 L 15.078125 3.222656 C 15.160156 3.222656 15.226562 3.25 15.285156 3.308594 C 15.339844 3.363281 15.367188 3.433594 15.367188 3.511719 L 15.367188 4.28125 C 15.367188 4.359375 15.339844 4.429688 15.285156 4.484375 C 15.226562 4.542969 15.160156 4.570312 15.078125 4.570312 L 15.007812 4.570312 C 14.925781 4.570312 14.859375 4.542969 14.804688 4.484375 C 14.746094 4.429688 14.71875 4.359375 14.71875 4.28125 L 14.71875 3.511719 C 14.71875 3.433594 14.746094 3.363281 14.804688 3.308594 C 14.859375 3.25 14.925781 3.222656 15.007812 3.222656 Z M 15.007812 3.222656 " fill-opacity="1" fill-rule="nonzero"/><path fill="#d18920" d="M 23.605469 5.84375 L 23.679688 5.84375 C 23.757812 5.84375 23.828125 5.871094 23.882812 5.925781 C 23.9375 5.984375 23.96875 6.054688 23.96875 6.132812 L 23.96875 6.898438 C 23.96875 6.980469 23.9375 7.050781 23.882812 7.105469 C 23.828125 7.164062 23.757812 7.191406 23.679688 7.191406 L 23.605469 7.191406 C 23.527344 7.191406 23.457031 7.164062 23.402344 7.105469 C 23.34375 7.050781 23.316406 6.980469 23.316406 6.898438 L 23.316406 6.132812 C 23.316406 6.054688 23.34375 5.984375 23.402344 5.925781 C 23.457031 5.871094 23.527344 5.84375 23.605469 5.84375 Z M 23.605469 5.84375 " fill-opacity="1" fill-rule="nonzero"/><path fill="#d18920" d="M 21.332031 7.960938 L 21.402344 7.960938 C 21.484375 7.960938 21.550781 7.988281 21.609375 8.042969 C 21.664062 8.101562 21.691406 8.171875 21.691406 8.25 L 21.691406 9.015625 C 21.691406 9.097656 21.664062 9.167969 21.609375 9.222656 C 21.550781 9.28125 21.484375 9.308594 21.402344 9.308594 L 21.332031 9.308594 C 21.25 9.308594 21.183594 9.28125 21.125 9.222656 C 21.070312 9.167969 21.042969 9.097656 21.042969 9.015625 L 21.042969 8.25 C 21.042969 8.171875 21.070312 8.101562 21.125 8.042969 C 21.183594 7.988281 21.25 7.960938 21.332031 7.960938 Z M 21.332031 7.960938 " fill-opacity="1" fill-rule="nonzero"/><path fill="#d18920" d="M 15.332031 8.070312 L 15.40625 8.070312 C 15.484375 8.070312 15.554688 8.097656 15.609375 8.15625 C 15.664062 8.210938 15.695312 8.28125 15.695312 8.363281 L 15.695312 9.128906 C 15.695312 9.207031 15.664062 9.277344 15.609375 9.335938 C 15.554688 9.390625 15.484375 9.417969 15.40625 9.417969 L 15.332031 9.417969 C 15.253906 9.417969 15.183594 9.390625 15.128906 9.335938 C 15.070312 9.277344 15.042969 9.207031 15.042969 9.128906 L 15.042969 8.363281 C 15.042969 8.28125 15.070312 8.210938 15.128906 8.15625 C 15.183594 8.097656 15.253906 8.070312 15.332031 8.070312 Z M 15.332031 8.070312 " fill-opacity="1" fill-rule="nonzero"/><path fill="#d18920" d="M 11.625 4.910156 L 11.699219 4.910156 C 11.777344 4.910156 11.847656 4.941406 11.902344 4.996094 C 11.960938 5.054688 11.988281 5.121094 11.988281 5.203125 L 11.988281 5.96875 C 11.988281 6.050781 11.960938 6.117188 11.902344 6.175781 C 11.847656 6.230469 11.777344 6.261719 11.699219 6.261719 L 11.625 6.261719 C 11.546875 6.261719 11.476562 6.230469 11.421875 6.175781 C 11.367188 6.117188 11.335938 6.050781 11.335938 5.96875 L 11.335938 5.203125 C 11.335938 5.121094 11.367188 5.054688 11.421875 4.996094 C 11.476562 4.941406 11.546875 4.910156 11.625 4.910156 Z M 11.625 4.910156 " fill-opacity="1" fill-rule="nonzero"/><path fill="#e5b223" d="M 5.265625 21.742188 C 5.285156 21.710938 5.304688 21.675781 5.324219 21.644531 C 5.054688 21.722656 4.78125 21.792969 4.5 21.851562 C 4.242188 22.820312 3.191406 26.949219 3.546875 28.78125 C 3.855469 30.390625 3.429688 30.867188 3.210938 31.003906 C 3.242188 31.023438 3.277344 31.039062 3.3125 31.046875 C 3.542969 31.101562 3.785156 30.863281 3.859375 30.617188 C 3.914062 30.40625 3.921875 30.195312 3.894531 29.980469 C 3.882812 29.882812 3.871094 29.785156 3.859375 29.6875 L 3.84375 29.589844 C 3.695312 28.453125 3.761719 27.328125 4.035156 26.214844 C 4.136719 25.804688 4.261719 25.402344 4.410156 25.003906 L 4.410156 25 C 4.535156 24.671875 4.675781 24.328125 4.84375 23.988281 C 4.738281 23.582031 4.746094 23.175781 4.855469 22.769531 C 4.949219 22.410156 5.085938 22.066406 5.265625 21.742188 Z M 5.265625 21.742188 " fill-opacity="1" fill-rule="nonzero"/><path fill="#e5b223" d="M 11.792969 28.15625 C 11.703125 28.15625 11.613281 28.160156 11.523438 28.160156 C 10.933594 28.160156 10.355469 28.136719 9.792969 28.09375 C 9.15625 28.328125 8.394531 28.914062 8.546875 30.382812 C 8.804688 32.847656 7.917969 32.925781 7.917969 32.925781 C 8.054688 32.96875 8.191406 32.953125 8.316406 32.882812 C 8.546875 32.757812 8.703125 32.566406 8.78125 32.316406 C 8.886719 31.992188 8.867188 31.632812 8.835938 31.230469 L 8.828125 31.136719 C 8.820312 31.039062 8.8125 30.941406 8.808594 30.839844 C 8.765625 30.074219 8.921875 29.53125 9.292969 29.175781 C 9.660156 28.824219 10.179688 28.738281 10.628906 28.667969 C 10.714844 28.65625 10.800781 28.644531 10.886719 28.628906 C 11.238281 28.558594 11.617188 28.410156 11.792969 28.15625 Z M 11.792969 28.15625 " fill-opacity="1" fill-rule="nonzero"/><path fill="#e5b223" d="M 21.113281 32.960938 C 20.953125 32.488281 20.851562 31.753906 20.9375 30.617188 C 21.167969 27.527344 20.671875 26.617188 20.246094 26.433594 C 20.042969 26.34375 19.625 26.246094 19.25 26.171875 C 18.914062 26.523438 18.421875 26.839844 17.773438 27.117188 L 19.464844 27.117188 L 19.554688 27.121094 L 19.570312 27.121094 L 19.664062 27.128906 L 19.683594 27.128906 L 19.75 27.132812 L 19.777344 27.132812 L 19.828125 27.136719 L 19.851562 27.136719 L 19.894531 27.140625 L 19.910156 27.140625 L 19.960938 27.152344 C 19.984375 27.15625 20.011719 27.164062 20.035156 27.171875 C 20.214844 27.246094 20.386719 27.425781 20.492188 28.734375 C 20.546875 29.453125 20.558594 30.171875 20.523438 30.890625 C 20.519531 30.960938 20.515625 31.039062 20.507812 31.117188 C 20.496094 31.300781 20.480469 31.503906 20.476562 31.710938 C 20.457031 32.230469 20.46875 32.9375 20.769531 33.375 C 20.78125 33.390625 20.789062 33.402344 20.800781 33.417969 C 20.808594 33.425781 20.816406 33.4375 20.824219 33.445312 C 20.84375 33.46875 20.863281 33.492188 20.886719 33.511719 C 21.105469 33.730469 21.417969 33.828125 21.84375 33.804688 C 22.066406 33.796875 22.320312 33.714844 22.492188 33.332031 C 21.390625 33.738281 21.125 32.992188 21.113281 32.960938 Z M 21.113281 32.960938 " fill-opacity="1" fill-rule="nonzero"/><path fill="#ffe18d" d="M 22.421875 33.101562 C 22.410156 33.101562 22.398438 33.101562 22.390625 33.097656 C 22.304688 33.078125 22.269531 33.023438 22.292969 32.9375 C 22.328125 32.777344 22.355469 32.617188 22.367188 32.457031 C 22.378906 32.367188 22.425781 32.328125 22.515625 32.335938 C 22.601562 32.34375 22.644531 32.394531 22.636719 32.484375 C 22.621094 32.65625 22.589844 32.828125 22.550781 33 C 22.535156 33.070312 22.492188 33.101562 22.421875 33.101562 Z M 22.421875 33.101562 " fill-opacity="1" fill-rule="nonzero"/><path fill="#ffe18d" d="M 22.523438 32.238281 L 22.519531 32.238281 C 22.429688 32.234375 22.386719 32.1875 22.390625 32.097656 C 22.402344 31.703125 22.382812 31.308594 22.339844 30.914062 C 22.328125 30.824219 22.367188 30.773438 22.457031 30.765625 C 22.546875 30.753906 22.59375 30.792969 22.605469 30.882812 C 22.652344 31.289062 22.671875 31.699219 22.660156 32.109375 C 22.65625 32.195312 22.613281 32.238281 22.523438 32.238281 Z M 22.523438 32.238281 " fill-opacity="1" fill-rule="nonzero"/><path fill="#e5b223" d="M 29.285156 29.414062 C 29.34375 29.371094 29.390625 29.320312 29.429688 29.253906 C 27.933594 29.539062 28.234375 22.984375 28.296875 21.878906 C 27.984375 21.667969 27.683594 21.4375 27.375 21.199219 C 27.324219 21.34375 27.296875 21.484375 27.328125 21.550781 C 27.417969 21.691406 27.523438 21.824219 27.636719 21.949219 C 28.042969 22.4375 28.433594 22.898438 28.15625 23.222656 C 28.085938 23.296875 28.011719 23.355469 27.925781 23.402344 C 27.9375 23.6875 27.949219 23.972656 27.960938 24.257812 C 27.980469 24.753906 28 25.25 28.019531 25.746094 L 28.066406 26.878906 L 28.101562 27.800781 C 28.117188 28.238281 28.140625 28.734375 28.375 29.097656 C 28.503906 29.296875 28.683594 29.421875 28.910156 29.472656 C 29.042969 29.503906 29.167969 29.484375 29.285156 29.414062 Z M 29.285156 29.414062 " fill-opacity="1" fill-rule="nonzero"/><path fill="#ffe18d" d="M 29.316406 28.582031 L 29.3125 28.582031 C 29.222656 28.578125 29.179688 28.53125 29.183594 28.441406 L 29.222656 27.761719 C 29.226562 27.675781 29.273438 27.632812 29.359375 27.636719 C 29.449219 27.640625 29.492188 27.6875 29.488281 27.777344 L 29.453125 28.457031 C 29.449219 28.539062 29.402344 28.582031 29.316406 28.582031 Z M 29.316406 28.582031 " fill-opacity="1" fill-rule="nonzero"/><path fill="#ffe18d" d="M 29.382812 27.3125 L 29.378906 27.3125 C 29.289062 27.304688 29.246094 27.257812 29.25 27.167969 L 29.433594 23.691406 C 29.4375 23.601562 29.484375 23.558594 29.574219 23.5625 C 29.664062 23.566406 29.707031 23.613281 29.699219 23.703125 L 29.519531 27.183594 C 29.515625 27.269531 29.46875 27.3125 29.382812 27.3125 Z M 29.382812 27.3125 " fill-opacity="1" fill-rule="nonzero"/><path fill="#ffe18d" d="M 7.726562 32.136719 C 7.636719 32.136719 7.59375 32.09375 7.59375 32.003906 L 7.59375 31.324219 C 7.59375 31.234375 7.636719 31.1875 7.726562 31.1875 C 7.816406 31.1875 7.859375 31.234375 7.859375 31.324219 L 7.859375 32.003906 C 7.859375 32.09375 7.816406 32.136719 7.726562 32.136719 Z M 7.726562 32.136719 " fill-opacity="1" fill-rule="nonzero"/><path fill="#ffe18d" d="M 7.726562 30.976562 C 7.636719 30.976562 7.59375 30.933594 7.59375 30.84375 L 7.59375 29.5 C 7.59375 29.410156 7.636719 29.367188 7.726562 29.367188 C 7.816406 29.367188 7.859375 29.410156 7.859375 29.5 L 7.859375 30.84375 C 7.859375 30.933594 7.816406 30.976562 7.726562 30.976562 Z M 7.726562 30.976562 " fill-opacity="1" fill-rule="nonzero"/></svg>