<svg xmlns="http://www.w3.org/2000/svg" xmlns:xlink="http://www.w3.org/1999/xlink" width="50" zoomAndPan="magnify" viewBox="0 0 37.5 37.499999" height="50" preserveAspectRatio="xMidYMid meet" version="1.0"><defs><clipPath id="c0dbcf7879"><path d="M 0 0 L 37.007812 0 L 37.007812 37.007812 L 0 37.007812 Z M 0 0 " clip-rule="nonzero"/></clipPath><clipPath id="9eb5aaf58a"><path d="M 7.53125 0.1875 L 30 0.1875 L 30 37.007812 L 7.53125 37.007812 Z M 7.53125 0.1875 " clip-rule="nonzero"/></clipPath><clipPath id="ac70b8e3d7"><path d="M 8 16 L 29 16 L 29 37.007812 L 8 37.007812 Z M 8 16 " clip-rule="nonzero"/></clipPath><clipPath id="c1e47dbda0"><path d="M 19 0.1875 L 29 0.1875 L 29 8 L 19 8 Z M 19 0.1875 " clip-rule="nonzero"/></clipPath><clipPath id="a48706e5c8"><path d="M 8 16 L 13 16 L 13 37.007812 L 8 37.007812 Z M 8 16 " clip-rule="nonzero"/></clipPath><clipPath id="867aa6ac0d"><path d="M 24 16 L 29 16 L 29 37.007812 L 24 37.007812 Z M 24 16 " clip-rule="nonzero"/></clipPath><clipPath id="4f458ff444"><path d="M 11 35 L 26 35 L 26 37.007812 L 11 37.007812 Z M 11 35 " clip-rule="nonzero"/></clipPath><clipPath id="a53d02c28d"><path d="M 24 0.1875 L 29 0.1875 L 29 5 L 24 5 Z M 24 0.1875 " clip-rule="nonzero"/></clipPath><clipPath id="bb8aa09429"><path d="M 24 0.1875 L 29 0.1875 L 29 4 L 24 4 Z M 24 0.1875 " clip-rule="nonzero"/></clipPath><clipPath id="ac4a53299e"><path d="M 8 16 L 29 16 L 29 37.007812 L 8 37.007812 Z M 8 16 " clip-rule="nonzero"/></clipPath><clipPath id="e7e41f77e2"><path d="M 7.53125 6 L 13 6 L 13 17 L 7.53125 17 Z M 7.53125 6 " clip-rule="nonzero"/></clipPath><clipPath id="9323e0c964"><path d="M 18 0.1875 L 30 0.1875 L 30 8 L 18 8 Z M 18 0.1875 " clip-rule="nonzero"/></clipPath><clipPath id="a750d92fd8"><path d="M 24 0.1875 L 29 0.1875 L 29 5 L 24 5 Z M 24 0.1875 " clip-rule="nonzero"/></clipPath></defs><g clip-path="url(#c0dbcf7879)"><path fill="#ffffff" d="M 0 0 L 37.5 0 L 37.5 37.5 L 0 37.5 Z M 0 0 " fill-opacity="1" fill-rule="nonzero"/><path fill="#ffffff" d="M 0 0 L 37.5 0 L 37.5 37.5 L 0 37.5 Z M 0 0 " fill-opacity="1" fill-rule="nonzero"/></g><g clip-path="url(#9eb5aaf58a)"><path fill="#210006" d="M 29.058594 3.941406 C 29.148438 3.617188 29.125 3.304688 28.984375 3 C 28.253906 1.367188 25.929688 0.476562 25.46875 0.316406 C 25.28125 0.246094 25.085938 0.210938 24.882812 0.207031 C 24.570312 0.203125 24.289062 0.300781 24.046875 0.5 C 23.90625 0.472656 23.769531 0.453125 23.636719 0.433594 C 23.46875 0.414062 23.296875 0.402344 23.125 0.402344 C 22.476562 0.40625 21.855469 0.550781 21.269531 0.835938 C 20.6875 1.121094 20.191406 1.515625 19.78125 2.027344 L 18.597656 3.609375 C 18.394531 3.8125 18.316406 4.054688 18.371094 4.335938 C 18.472656 4.890625 18.878906 5.570312 19.414062 6.078125 L 19.414062 6.75 L 19.402344 6.734375 L 18.441406 5.625 C 18.332031 5.5 18.199219 5.46875 18.046875 5.527344 L 16.71875 6.039062 L 16.71875 4.019531 C 16.71875 3.925781 16.683594 3.839844 16.617188 3.773438 L 15.871094 3.011719 C 15.800781 2.941406 15.71875 2.90625 15.621094 2.90625 L 13.253906 2.90625 C 13.152344 2.90625 13.0625 2.945312 12.992188 3.019531 C 12.925781 3.097656 12.894531 3.1875 12.902344 3.289062 L 13.183594 6.847656 L 12.765625 4.613281 C 12.757812 4.570312 12.742188 4.527344 12.714844 4.488281 L 12.054688 3.476562 C 11.984375 3.371094 11.886719 3.316406 11.761719 3.316406 C 11.730469 3.316406 11.703125 3.320312 11.671875 3.328125 L 9.539062 3.871094 C 9.445312 3.894531 9.375 3.945312 9.324219 4.027344 C 9.277344 4.105469 9.257812 4.191406 9.277344 4.285156 L 9.644531 6.113281 L 7.808594 6.714844 C 7.722656 6.746094 7.65625 6.796875 7.613281 6.875 C 7.566406 6.953125 7.554688 7.039062 7.570312 7.125 L 9.421875 16.03125 L 8.367188 16.03125 C 8.261719 16.03125 8.171875 16.070312 8.101562 16.152344 C 8.03125 16.230469 8.003906 16.324219 8.015625 16.433594 L 10.808594 37.371094 C 10.835938 37.578125 10.953125 37.679688 11.160156 37.679688 L 25.628906 37.679688 C 25.835938 37.679688 25.953125 37.578125 25.980469 37.371094 L 28.773438 16.433594 C 28.789062 16.324219 28.761719 16.230469 28.691406 16.152344 C 28.621094 16.070312 28.53125 16.03125 28.421875 16.03125 L 27.433594 16.03125 L 28.097656 12.972656 C 28.5 12.695312 28.789062 12.078125 28.839844 11.371094 C 28.871094 10.949219 29.019531 10.507812 29.160156 10.082031 C 29.425781 9.285156 29.726562 8.386719 29.144531 7.625 C 29.449219 6.832031 29.785156 5.402344 29.058594 3.941406 Z M 29.058594 3.941406 " fill-opacity="1" fill-rule="nonzero"/></g><path fill="#dd8d0e" d="M 12.167969 16.234375 C 12.25 16.234375 12.332031 16.238281 12.414062 16.253906 L 10.648438 7.128906 L 10.011719 6.527344 L 8.09375 7.152344 L 9.980469 16.234375 Z M 12.167969 16.234375 " fill-opacity="1" fill-rule="nonzero"/><path fill="#ffb830" d="M 10.929688 6.976562 L 12.738281 16.34375 C 13.085938 16.480469 13.351562 16.710938 13.53125 17.042969 C 13.875 17.664062 14.320312 18.203125 14.867188 18.65625 L 12.277344 4.738281 L 11.691406 3.84375 L 9.800781 4.328125 L 10.191406 6.277344 Z M 10.929688 6.976562 " fill-opacity="1" fill-rule="nonzero"/><g clip-path="url(#ac70b8e3d7)"><path fill="#ff2626" d="M 24.621094 16.535156 C 24.394531 16.539062 24.179688 16.59375 23.984375 16.710938 C 23.789062 16.828125 23.632812 16.988281 23.523438 17.1875 C 23.273438 17.648438 22.96875 18.066406 22.605469 18.441406 C 22.605469 18.457031 22.605469 18.476562 22.605469 18.492188 C 22.605469 18.511719 22.605469 18.519531 22.605469 18.53125 C 22.605469 18.546875 22.605469 18.570312 22.605469 18.59375 L 22.605469 18.636719 L 22.597656 18.695312 L 22.59375 18.742188 C 22.59375 18.761719 22.589844 18.78125 22.585938 18.800781 C 22.582031 18.820312 22.582031 18.835938 22.578125 18.851562 L 22.566406 18.902344 C 22.5625 18.925781 22.558594 18.945312 22.554688 18.964844 L 22.546875 19.011719 C 22.542969 19.035156 22.535156 19.058594 22.53125 19.085938 C 22.53125 19.09375 22.527344 19.105469 22.523438 19.113281 C 22.515625 19.148438 22.507812 19.183594 22.5 19.214844 C 22.476562 19.320312 22.453125 19.421875 22.445312 19.476562 C 22.414062 19.761719 22.390625 20.046875 22.371094 20.332031 C 22.363281 20.425781 22.355469 20.519531 22.351562 20.613281 C 22.339844 20.769531 22.328125 20.925781 22.316406 21.082031 C 22.296875 21.363281 22.261719 21.632812 22.09375 21.851562 C 22.074219 21.871094 22.058594 21.890625 22.039062 21.910156 C 22.03125 21.917969 22.023438 21.925781 22.019531 21.929688 C 22.011719 21.9375 21.992188 21.957031 21.976562 21.96875 L 21.949219 21.988281 C 21.9375 21.996094 21.921875 22.007812 21.90625 22.015625 L 21.878906 22.035156 L 21.832031 22.058594 C 21.824219 22.0625 21.816406 22.066406 21.804688 22.070312 C 21.785156 22.082031 21.765625 22.089844 21.742188 22.097656 L 21.730469 22.101562 C 21.703125 22.109375 21.679688 22.117188 21.652344 22.121094 L 21.621094 22.128906 L 21.570312 22.136719 L 21.535156 22.136719 C 21.519531 22.136719 21.503906 22.136719 21.488281 22.136719 L 21.457031 22.136719 C 21.421875 22.136719 21.386719 22.132812 21.351562 22.128906 L 21.335938 22.125 C 21.304688 22.121094 21.273438 22.113281 21.242188 22.105469 L 21.226562 22.101562 C 21.191406 22.089844 21.160156 22.078125 21.128906 22.0625 L 21.109375 22.050781 C 21.074219 22.035156 21.042969 22.015625 21.015625 21.996094 C 20.800781 21.839844 20.664062 21.570312 20.617188 21.21875 C 20.601562 21.097656 20.59375 20.972656 20.589844 20.855469 C 20.585938 20.71875 20.574219 20.585938 20.554688 20.453125 C 20.523438 20.28125 20.429688 20.070312 20.273438 20.046875 C 20.238281 20.042969 20.207031 20.042969 20.171875 20.046875 L 20.0625 20.046875 L 20.035156 20.042969 L 20 20.035156 L 19.972656 20.027344 L 19.957031 20.023438 L 19.902344 20.039062 L 19.808594 20.066406 L 19.808594 20.054688 C 19.0625 20.238281 18.308594 20.277344 17.550781 20.164062 C 16.789062 20.054688 16.078125 19.800781 15.414062 19.410156 C 15.269531 19.324219 15.132812 19.234375 15.003906 19.140625 C 14.277344 18.621094 13.695312 17.972656 13.265625 17.1875 C 13.109375 16.898438 12.875 16.703125 12.558594 16.601562 C 12.433594 16.558594 12.300781 16.539062 12.167969 16.539062 L 8.539062 16.539062 L 11.292969 37.167969 L 25.496094 37.167969 L 28.25 16.535156 Z M 24.621094 16.535156 " fill-opacity="1" fill-rule="nonzero"/></g><path fill="#bd1616" d="M 25.542969 9.324219 L 25.546875 9.183594 C 25.558594 8.867188 25.648438 8.578125 25.820312 8.3125 C 25.988281 8.046875 26.21875 7.84375 26.5 7.707031 L 26.589844 7.664062 C 26.675781 7.628906 26.757812 7.59375 26.839844 7.5625 L 26.851562 7.558594 C 26.847656 7.550781 26.84375 7.542969 26.839844 7.539062 C 26.78125 7.460938 26.722656 7.386719 26.664062 7.3125 C 25.953125 6.402344 25.101562 5.652344 24.105469 5.0625 C 23.753906 4.855469 23.394531 4.679688 23.019531 4.527344 C 22.933594 4.492188 22.847656 4.457031 22.765625 4.425781 L 22.679688 4.394531 C 22.621094 4.375 22.566406 4.355469 22.507812 4.335938 C 22.472656 4.324219 22.441406 4.3125 22.40625 4.300781 C 22.351562 4.285156 22.300781 4.265625 22.246094 4.25 L 22.136719 4.21875 C 22.085938 4.203125 22.035156 4.1875 21.984375 4.175781 L 21.871094 4.144531 L 21.71875 4.109375 L 21.601562 4.082031 L 21.449219 4.046875 L 21.332031 4.027344 L 21.175781 3.992188 L 21.0625 3.972656 L 21.023438 3.964844 L 21.3125 5.285156 L 21.410156 5.734375 C 21.496094 6.136719 21.585938 6.550781 21.578125 6.976562 C 21.570312 7.421875 21.457031 7.851562 21.347656 8.269531 C 21.324219 8.363281 21.300781 8.457031 21.277344 8.546875 C 21.007812 9.632812 20.90625 10.734375 20.972656 11.855469 C 20.988281 12.125 21.015625 12.433594 21.15625 12.683594 C 21.269531 12.882812 21.507812 13.074219 21.761719 13.035156 C 21.945312 13 22.101562 12.847656 22.261719 12.691406 C 22.394531 12.542969 22.546875 12.421875 22.714844 12.324219 C 22.757812 12.304688 22.796875 12.285156 22.839844 12.273438 C 22.929688 12.242188 23.023438 12.21875 23.117188 12.199219 L 23.328125 12.15625 L 23.328125 12.160156 C 23.382812 12.148438 23.4375 12.136719 23.492188 12.117188 C 24.046875 11.933594 24.367188 11.347656 24.707031 10.722656 C 24.933594 10.304688 25.171875 9.875 25.492188 9.554688 Z M 25.542969 9.324219 " fill-opacity="1" fill-rule="nonzero"/><path fill="#ffb830" d="M 15.230469 18.929688 C 15.335938 19.007812 15.449219 19.082031 15.570312 19.152344 C 16.054688 19.4375 16.570312 19.648438 17.121094 19.777344 L 15.453125 6.738281 L 16.214844 6.445312 L 16.214844 4.082031 L 15.554688 3.414062 L 13.417969 3.414062 L 14.214844 13.496094 Z M 15.230469 18.929688 " fill-opacity="1" fill-rule="nonzero"/><path fill="#d1d3d4" d="M 19.429688 3.867188 C 19.335938 3.867188 19.242188 3.875 19.152344 3.878906 C 19.136719 3.882812 19.121094 3.882812 19.101562 3.886719 L 19.085938 3.890625 C 19.078125 3.894531 19.066406 3.898438 19.054688 3.902344 L 19.039062 3.910156 C 19.027344 3.914062 19.019531 3.917969 19.011719 3.925781 C 19.007812 3.925781 19 3.933594 18.996094 3.9375 L 18.972656 3.953125 L 18.964844 3.957031 C 18.878906 4.035156 18.847656 4.128906 18.867188 4.242188 C 18.929688 4.582031 19.183594 5.105469 19.617188 5.566406 L 19.617188 3.867188 Z M 19.429688 3.867188 " fill-opacity="1" fill-rule="nonzero"/><path fill="#dd8d0e" d="M 17.433594 19.839844 C 18.199219 19.976562 18.957031 19.949219 19.710938 19.765625 C 19.667969 19.652344 19.667969 19.539062 19.710938 19.425781 C 19.722656 19.390625 19.738281 19.359375 19.753906 19.332031 L 19.613281 17.089844 L 18.984375 7.027344 L 18.128906 6.039062 L 15.785156 6.9375 Z M 17.433594 19.839844 " fill-opacity="1" fill-rule="nonzero"/><path fill="#ffb830" d="M 16.921875 7.988281 L 15.960938 6.871094 L 15.785156 6.9375 L 17.433594 19.84375 C 17.734375 19.894531 18.03125 19.921875 18.335938 19.921875 Z M 16.921875 7.988281 " fill-opacity="1" fill-rule="nonzero"/><path fill="#ffb830" d="M 23.589844 12.410156 C 23.488281 12.441406 23.386719 12.464844 23.285156 12.484375 L 22.503906 18.101562 C 22.796875 17.777344 23.046875 17.425781 23.257812 17.042969 C 23.394531 16.792969 23.585938 16.59375 23.828125 16.449219 C 23.902344 16.410156 23.976562 16.375 24.054688 16.34375 L 25.351562 10.222656 C 25.21875 10.429688 25.09375 10.652344 24.972656 10.875 C 24.621094 11.519531 24.253906 12.1875 23.589844 12.410156 Z M 23.589844 12.410156 " fill-opacity="1" fill-rule="nonzero"/><g clip-path="url(#c1e47dbda0)"><path fill="#ffffff" d="M 27.019531 2.40625 C 25.84375 1.574219 24.683594 1.078125 23.574219 0.9375 C 22.304688 0.777344 21.003906 1.3125 20.183594 2.339844 L 19.261719 3.570312 C 19.304688 3.570312 19.347656 3.570312 19.390625 3.566406 L 19.476562 3.566406 C 19.523438 3.566406 19.570312 3.566406 19.617188 3.566406 L 19.921875 3.566406 C 20.15625 3.570312 20.398438 3.585938 20.636719 3.613281 L 20.636719 3.609375 L 20.851562 3.636719 L 20.957031 3.652344 C 21.507812 3.730469 22.050781 3.855469 22.582031 4.035156 C 22.765625 4.09375 22.953125 4.164062 23.132812 4.238281 C 23.523438 4.398438 23.898438 4.582031 24.257812 4.796875 C 25.285156 5.40625 26.167969 6.179688 26.902344 7.121094 C 26.980469 7.214844 27.054688 7.3125 27.125 7.414062 L 27.15625 7.449219 L 27.171875 7.445312 C 27.238281 7.425781 27.304688 7.410156 27.367188 7.390625 L 27.40625 7.382812 C 27.46875 7.367188 27.527344 7.355469 27.582031 7.347656 L 27.601562 7.34375 C 27.664062 7.332031 27.722656 7.324219 27.78125 7.320312 L 27.820312 7.316406 C 27.878906 7.3125 27.933594 7.308594 27.988281 7.308594 L 28.003906 7.308594 C 28.058594 7.308594 28.113281 7.3125 28.164062 7.316406 L 28.191406 7.316406 C 28.242188 7.324219 28.292969 7.332031 28.339844 7.34375 L 28.371094 7.351562 C 28.417969 7.363281 28.464844 7.375 28.511719 7.394531 L 28.527344 7.402344 C 28.570312 7.417969 28.613281 7.4375 28.652344 7.460938 C 28.65625 7.464844 28.660156 7.464844 28.664062 7.46875 C 29.070312 6.421875 29.527344 4.175781 27.019531 2.40625 Z M 27.019531 2.40625 " fill-opacity="1" fill-rule="nonzero"/></g><path fill="#bd1616" d="M 28.632812 7.816406 L 28.617188 7.804688 C 28.605469 7.792969 28.589844 7.78125 28.574219 7.773438 C 28.5625 7.761719 28.550781 7.753906 28.539062 7.746094 C 28.527344 7.742188 28.511719 7.730469 28.5 7.726562 C 28.488281 7.71875 28.476562 7.710938 28.460938 7.703125 C 28.449219 7.699219 28.433594 7.691406 28.417969 7.6875 L 28.378906 7.671875 L 28.335938 7.65625 C 28.320312 7.652344 28.304688 7.648438 28.292969 7.644531 L 28.246094 7.636719 C 28.230469 7.632812 28.214844 7.628906 28.199219 7.628906 L 28.152344 7.621094 L 28.105469 7.617188 L 28.058594 7.617188 C 28.042969 7.617188 28.027344 7.617188 28.011719 7.617188 L 27.863281 7.617188 L 27.8125 7.621094 L 27.765625 7.625 L 27.714844 7.632812 L 27.667969 7.640625 L 27.617188 7.648438 L 27.570312 7.660156 L 27.519531 7.671875 L 27.472656 7.679688 L 27.421875 7.691406 L 27.378906 7.703125 L 27.277344 7.734375 L 27.234375 7.746094 L 27.148438 7.773438 C 27.035156 7.808594 26.921875 7.855469 26.804688 7.902344 L 26.765625 7.914062 L 26.699219 7.949219 C 26.449219 8.054688 26.25 8.222656 26.097656 8.445312 C 25.941406 8.671875 25.863281 8.917969 25.851562 9.191406 L 25.851562 9.273438 L 25.863281 9.28125 C 25.902344 9.316406 25.945312 9.355469 25.988281 9.390625 L 26.015625 9.414062 C 26.058594 9.449219 26.101562 9.488281 26.148438 9.523438 C 26.351562 9.695312 26.582031 9.886719 26.832031 10.121094 C 27.324219 10.574219 27.28125 10.886719 27.230469 11.25 C 27.167969 11.570312 27.183594 11.890625 27.273438 12.203125 C 27.335938 12.417969 27.425781 12.5625 27.53125 12.613281 C 27.597656 12.640625 27.664062 12.640625 27.730469 12.605469 C 27.996094 12.492188 28.289062 12.023438 28.339844 11.335938 C 28.375 10.851562 28.53125 10.378906 28.683594 9.925781 C 28.945312 9.140625 29.171875 8.464844 28.726562 7.910156 C 28.699219 7.875 28.667969 7.84375 28.632812 7.816406 Z M 28.632812 7.816406 " fill-opacity="1" fill-rule="nonzero"/><path fill="#ffb830" d="M 27.496094 12.917969 L 27.484375 12.914062 C 27.453125 12.90625 27.425781 12.894531 27.398438 12.882812 C 27.265625 12.820312 27.085938 12.667969 26.976562 12.285156 C 26.875 11.929688 26.855469 11.570312 26.921875 11.203125 C 26.96875 10.871094 26.996094 10.6875 26.621094 10.339844 C 26.375 10.113281 26.148438 9.921875 25.945312 9.753906 C 25.90625 9.722656 25.871094 9.691406 25.835938 9.660156 C 25.8125 9.679688 25.789062 9.699219 25.765625 9.71875 L 24.382812 16.25 C 24.40625 16.25 24.429688 16.246094 24.453125 16.242188 L 24.5 16.238281 C 24.539062 16.234375 24.582031 16.234375 24.621094 16.234375 L 26.871094 16.234375 L 27.589844 12.929688 L 27.582031 12.929688 C 27.550781 12.929688 27.523438 12.925781 27.496094 12.917969 Z M 27.496094 12.917969 " fill-opacity="1" fill-rule="nonzero"/><path fill="#ffb830" d="M 20.707031 3.925781 L 20.65625 3.917969 C 20.550781 3.90625 20.449219 3.898438 20.347656 3.890625 L 20.300781 3.886719 C 20.1875 3.878906 20.070312 3.871094 19.957031 3.867188 L 19.921875 3.867188 L 19.921875 17.082031 L 20.042969 19.03125 C 20.046875 19.03125 20.050781 19.027344 20.054688 19.023438 L 20.121094 18.972656 L 20.128906 18.96875 L 20.167969 18.941406 L 20.171875 18.941406 L 20.214844 18.90625 L 20.222656 18.902344 L 20.269531 18.867188 L 20.273438 18.863281 L 20.332031 18.824219 C 20.414062 18.765625 20.511719 18.699219 20.617188 18.632812 C 20.640625 18.617188 20.667969 18.601562 20.691406 18.582031 L 20.703125 18.578125 L 20.773438 18.535156 L 20.785156 18.523438 L 20.851562 18.484375 L 20.871094 18.472656 L 20.9375 18.433594 L 20.957031 18.425781 L 21.027344 18.386719 L 21.042969 18.378906 C 21.070312 18.363281 21.097656 18.347656 21.128906 18.332031 C 21.191406 18.300781 21.25 18.269531 21.308594 18.242188 L 21.316406 18.242188 C 21.34375 18.226562 21.367188 18.214844 21.394531 18.203125 L 21.414062 18.195312 L 21.484375 18.167969 L 21.507812 18.15625 L 21.570312 18.132812 L 21.597656 18.125 L 21.65625 18.105469 L 21.683594 18.09375 L 21.746094 18.078125 L 21.773438 18.070312 C 21.792969 18.066406 21.8125 18.058594 21.832031 18.054688 L 21.855469 18.050781 C 21.878906 18.042969 21.90625 18.039062 21.929688 18.035156 L 21.933594 18.035156 C 21.960938 18.03125 21.988281 18.027344 22.011719 18.027344 L 22.023438 18.027344 L 22.085938 18.023438 L 22.109375 18.023438 C 22.125 18.023438 22.144531 18.023438 22.15625 18.023438 L 22.183594 18.023438 L 22.210938 18.027344 L 22.972656 12.558594 L 22.945312 12.566406 C 22.914062 12.578125 22.882812 12.589844 22.855469 12.605469 C 22.714844 12.6875 22.589844 12.792969 22.480469 12.914062 C 22.292969 13.101562 22.097656 13.292969 21.8125 13.34375 C 21.777344 13.347656 21.742188 13.351562 21.707031 13.351562 L 21.695312 13.351562 C 21.660156 13.351562 21.628906 13.347656 21.59375 13.34375 L 21.574219 13.339844 C 21.542969 13.335938 21.507812 13.328125 21.476562 13.316406 L 21.457031 13.308594 C 21.421875 13.300781 21.390625 13.289062 21.363281 13.273438 L 21.347656 13.265625 C 21.316406 13.253906 21.289062 13.238281 21.257812 13.21875 L 21.246094 13.210938 C 21.214844 13.191406 21.1875 13.171875 21.160156 13.148438 L 21.140625 13.136719 C 21.113281 13.113281 21.085938 13.085938 21.0625 13.0625 L 21.046875 13.046875 C 21.019531 13.019531 20.996094 12.988281 20.972656 12.960938 C 20.96875 12.957031 20.964844 12.949219 20.964844 12.945312 C 20.9375 12.914062 20.917969 12.878906 20.898438 12.84375 C 20.722656 12.539062 20.6875 12.1875 20.671875 11.882812 C 20.605469 10.734375 20.710938 9.601562 20.988281 8.484375 C 21.011719 8.390625 21.035156 8.296875 21.058594 8.203125 C 21.164062 7.800781 21.273438 7.390625 21.277344 6.980469 C 21.285156 6.585938 21.199219 6.191406 21.117188 5.808594 L 21.019531 5.355469 C 20.914062 4.875 20.808594 4.398438 20.707031 3.925781 Z M 20.707031 3.925781 " fill-opacity="1" fill-rule="nonzero"/><path fill="#bd1616" d="M 22.25 18.355469 C 21.953125 18.148438 20.875 18.777344 20.238281 19.265625 C 20.160156 19.320312 20.09375 19.382812 20.035156 19.457031 C 20.019531 19.480469 20.007812 19.503906 19.996094 19.53125 C 19.96875 19.597656 19.976562 19.660156 20.027344 19.714844 L 20.03125 19.722656 L 20.042969 19.726562 C 20.082031 19.738281 20.125 19.742188 20.167969 19.738281 L 20.246094 19.738281 C 20.269531 19.738281 20.292969 19.738281 20.320312 19.742188 C 20.636719 19.796875 20.800781 20.117188 20.851562 20.402344 C 20.875 20.546875 20.886719 20.691406 20.890625 20.835938 C 20.894531 20.953125 20.902344 21.066406 20.917969 21.175781 C 20.941406 21.359375 21.007812 21.609375 21.191406 21.746094 C 21.296875 21.816406 21.414062 21.84375 21.539062 21.828125 C 21.667969 21.808594 21.769531 21.75 21.851562 21.652344 C 21.96875 21.5 21.996094 21.289062 22.015625 21.050781 C 22.027344 20.894531 22.035156 20.738281 22.046875 20.582031 C 22.074219 20.207031 22.101562 19.816406 22.144531 19.433594 C 22.148438 19.394531 22.15625 19.351562 22.167969 19.300781 C 22.179688 19.25 22.191406 19.195312 22.207031 19.132812 C 22.257812 18.902344 22.332031 18.582031 22.292969 18.421875 C 22.292969 18.410156 22.289062 18.398438 22.28125 18.386719 C 22.273438 18.375 22.261719 18.363281 22.25 18.355469 Z M 22.25 18.355469 " fill-opacity="1" fill-rule="nonzero"/><g clip-path="url(#a48706e5c8)"><path fill="#ffe6e6" d="M 9.625 16.535156 L 12.414062 37.171875 L 11.292969 37.171875 L 8.539062 16.535156 Z M 9.625 16.535156 " fill-opacity="1" fill-rule="nonzero"/></g><g clip-path="url(#867aa6ac0d)"><path fill="#bd1616" d="M 27.167969 16.535156 L 24.382812 37.171875 L 25.5 37.171875 L 28.253906 16.535156 Z M 27.167969 16.535156 " fill-opacity="1" fill-rule="nonzero"/></g><g clip-path="url(#4f458ff444)"><path fill="#bd1616" d="M 25.5 37.167969 C 25.5 37.167969 18.976562 33.386719 11.292969 37.167969 Z M 25.5 37.167969 " fill-opacity="1" fill-rule="nonzero"/></g><path fill="#ffb830" d="M 12.414062 16.253906 L 10.648438 7.128906 L 10.011719 6.527344 L 11.835938 16.234375 L 12.167969 16.234375 C 12.25 16.234375 12.332031 16.238281 12.414062 16.253906 Z M 12.414062 16.253906 " fill-opacity="1" fill-rule="nonzero"/><path fill="#dd8d0e" d="M 10.191406 6.277344 L 10.929688 6.976562 L 12.738281 16.34375 C 13.085938 16.480469 13.351562 16.710938 13.53125 17.042969 C 13.722656 17.386719 13.949219 17.710938 14.207031 18.007812 L 11.691406 3.84375 L 9.800781 4.328125 Z M 10.191406 6.277344 " fill-opacity="1" fill-rule="nonzero"/><path fill="#dd8d0e" d="M 14.214844 13.496094 L 15.230469 18.929688 C 15.335938 19.007812 15.449219 19.082031 15.570312 19.152344 C 15.804688 19.292969 16.050781 19.414062 16.308594 19.515625 L 15.859375 9.90625 L 15.539062 6.816406 L 15.707031 6.640625 L 15.554688 3.417969 L 13.417969 3.417969 Z M 14.214844 13.496094 " fill-opacity="1" fill-rule="nonzero"/><path fill="#ffb830" d="M 15.785156 6.9375 L 16.921875 7.988281 L 18.984375 7.027344 L 18.128906 6.035156 Z M 15.785156 6.9375 " fill-opacity="1" fill-rule="nonzero"/><path fill="#dd8d0e" d="M 22.851562 12.601562 C 22.710938 12.683594 22.585938 12.789062 22.476562 12.910156 C 22.292969 13.097656 22.097656 13.292969 21.8125 13.339844 C 21.785156 13.34375 21.757812 13.34375 21.730469 13.347656 L 21.285156 18.25 L 21.3125 18.238281 L 21.316406 18.238281 C 21.34375 18.226562 21.371094 18.214844 21.398438 18.203125 L 21.417969 18.195312 L 21.484375 18.164062 L 21.511719 18.15625 L 21.570312 18.132812 L 21.597656 18.121094 L 21.660156 18.101562 L 21.6875 18.09375 L 21.75 18.074219 L 21.773438 18.066406 C 21.792969 18.0625 21.816406 18.058594 21.835938 18.050781 L 21.855469 18.046875 C 21.882812 18.042969 21.90625 18.039062 21.929688 18.035156 L 21.9375 18.035156 C 21.964844 18.03125 21.988281 18.027344 22.015625 18.023438 L 22.023438 18.023438 L 22.089844 18.019531 L 22.113281 18.019531 C 22.128906 18.019531 22.144531 18.019531 22.160156 18.019531 L 22.1875 18.019531 L 22.214844 18.023438 L 22.972656 12.554688 L 22.949219 12.5625 C 22.914062 12.574219 22.882812 12.585938 22.851562 12.601562 Z M 22.851562 12.601562 " fill-opacity="1" fill-rule="nonzero"/><path fill="#dd8d0e" d="M 25.351562 10.222656 C 25.21875 10.429688 25.09375 10.652344 24.972656 10.875 C 24.679688 11.414062 24.371094 11.972656 23.890625 12.269531 L 22.96875 17.511719 C 23.074219 17.359375 23.171875 17.203125 23.257812 17.042969 C 23.394531 16.792969 23.585938 16.597656 23.828125 16.453125 C 23.902344 16.410156 23.976562 16.375 24.054688 16.347656 Z M 25.351562 10.222656 " fill-opacity="1" fill-rule="nonzero"/><path fill="#dd8d0e" d="M 26.871094 16.234375 L 27.589844 12.929688 L 27.582031 12.929688 C 27.550781 12.929688 27.523438 12.925781 27.496094 12.917969 L 27.484375 12.914062 C 27.453125 12.90625 27.425781 12.898438 27.398438 12.882812 C 27.265625 12.824219 27.089844 12.667969 26.980469 12.285156 C 26.980469 12.277344 26.976562 12.269531 26.972656 12.261719 L 26.121094 16.234375 Z M 26.871094 16.234375 " fill-opacity="1" fill-rule="nonzero"/><g clip-path="url(#a53d02c28d)"><path fill="#231f20" d="M 28.804688 4.039062 L 28.539062 3.898438 C 28.636719 3.664062 28.632812 3.433594 28.523438 3.207031 C 27.878906 1.765625 25.726562 0.945312 25.304688 0.792969 C 24.613281 0.550781 24.296875 0.960938 24.285156 0.980469 L 24.039062 0.800781 C 24.054688 0.777344 24.492188 0.1875 25.402344 0.507812 C 25.847656 0.667969 28.105469 1.53125 28.800781 3.085938 C 28.949219 3.402344 28.949219 3.71875 28.804688 4.039062 Z M 28.804688 4.039062 " fill-opacity="1" fill-rule="nonzero"/></g><path fill="#930000" d="M 26.667969 7.308594 C 25.953125 6.394531 25.101562 5.644531 24.105469 5.058594 C 23.757812 4.851562 23.394531 4.671875 23.019531 4.519531 C 22.933594 4.488281 22.851562 4.453125 22.765625 4.421875 L 22.679688 4.390625 C 22.625 4.371094 22.566406 4.351562 22.507812 4.328125 C 22.476562 4.316406 22.441406 4.308594 22.40625 4.296875 C 22.355469 4.277344 22.300781 4.261719 22.25 4.246094 L 22.140625 4.214844 C 22.085938 4.199219 22.035156 4.183594 21.984375 4.171875 L 21.871094 4.140625 L 21.71875 4.101562 L 21.601562 4.078125 L 21.449219 4.042969 L 21.335938 4.019531 L 21.175781 3.992188 L 21.0625 3.972656 L 21.023438 3.964844 L 21.3125 5.285156 L 21.359375 5.515625 C 23.144531 5.824219 24.78125 6.945312 25.695312 8.511719 L 25.699219 8.519531 C 25.867188 8.152344 26.132812 7.878906 26.496094 7.699219 L 26.585938 7.660156 C 26.671875 7.625 26.753906 7.589844 26.835938 7.558594 L 26.851562 7.550781 C 26.84375 7.546875 26.839844 7.539062 26.835938 7.53125 C 26.78125 7.457031 26.726562 7.382812 26.667969 7.308594 Z M 26.667969 7.308594 " fill-opacity="1" fill-rule="nonzero"/><path fill="#930000" d="M 25.644531 7.175781 C 25.398438 6.992188 25.019531 6.976562 24.722656 7.050781 C 25.292969 7.742188 25.570312 8.785156 25.089844 9.539062 C 24.933594 9.785156 24.714844 9.980469 24.554688 10.222656 C 24.253906 10.679688 24.167969 11.308594 23.71875 11.621094 C 23.351562 11.875 22.816406 11.859375 22.53125 12.203125 C 22.425781 12.328125 22.371094 12.488281 22.28125 12.621094 C 22.128906 12.84375 21.925781 12.984375 21.664062 13.039062 C 21.695312 13.042969 21.730469 13.039062 21.761719 13.035156 C 21.949219 13.003906 22.105469 12.847656 22.265625 12.691406 C 22.394531 12.546875 22.546875 12.425781 22.71875 12.328125 C 22.757812 12.304688 22.800781 12.289062 22.84375 12.273438 C 22.933594 12.242188 23.023438 12.21875 23.121094 12.203125 L 23.328125 12.160156 L 23.328125 12.164062 C 23.386719 12.152344 23.441406 12.136719 23.492188 12.121094 C 24.050781 11.933594 24.367188 11.347656 24.707031 10.726562 C 24.9375 10.308594 25.171875 9.875 25.492188 9.558594 L 25.542969 9.320312 L 25.546875 9.175781 C 25.566406 8.636719 25.789062 8.203125 26.21875 7.875 C 26.0625 7.617188 25.886719 7.363281 25.644531 7.175781 Z M 25.644531 7.175781 " fill-opacity="1" fill-rule="nonzero"/><path fill="#e24747" d="M 21.285156 12.007812 C 21.1875 12.007812 21.136719 11.957031 21.132812 11.859375 C 21.125 11.621094 21.125 11.386719 21.128906 11.152344 C 21.132812 11.054688 21.183594 11.003906 21.28125 11.003906 C 21.382812 11.003906 21.429688 11.058594 21.429688 11.160156 C 21.425781 11.386719 21.425781 11.617188 21.433594 11.851562 C 21.4375 11.953125 21.386719 12.003906 21.285156 12.007812 Z M 21.285156 12.007812 " fill-opacity="1" fill-rule="nonzero"/><path fill="#e24747" d="M 21.304688 10.761719 L 21.296875 10.761719 C 21.195312 10.753906 21.148438 10.703125 21.152344 10.601562 C 21.195312 9.878906 21.3125 9.171875 21.503906 8.476562 C 21.535156 8.382812 21.597656 8.347656 21.691406 8.375 C 21.789062 8.402344 21.824219 8.464844 21.796875 8.5625 C 21.613281 9.234375 21.496094 9.921875 21.457031 10.621094 C 21.449219 10.714844 21.398438 10.761719 21.304688 10.761719 Z M 21.304688 10.761719 " fill-opacity="1" fill-rule="nonzero"/><path fill="#930000" d="M 21.761719 21.738281 C 21.738281 21.734375 21.710938 21.730469 21.6875 21.734375 C 21.585938 21.738281 21.488281 21.730469 21.394531 21.707031 C 21.292969 21.683594 21.214844 21.625 21.160156 21.539062 C 21.128906 21.46875 21.113281 21.398438 21.109375 21.324219 L 20.996094 20.210938 C 20.976562 20.042969 20.957031 19.859375 20.84375 19.734375 C 20.742188 19.628906 20.621094 19.566406 20.480469 19.542969 C 20.390625 19.519531 20.292969 19.503906 20.234375 19.4375 C 20.199219 19.402344 20.183594 19.355469 20.1875 19.308594 C 20.132812 19.351562 20.082031 19.398438 20.039062 19.457031 C 20.023438 19.480469 20.011719 19.503906 20 19.53125 C 19.972656 19.597656 19.980469 19.660156 20.03125 19.714844 L 20.035156 19.722656 L 20.046875 19.726562 C 20.089844 19.738281 20.128906 19.742188 20.171875 19.738281 L 20.25 19.738281 C 20.273438 19.738281 20.296875 19.738281 20.324219 19.742188 C 20.640625 19.796875 20.804688 20.117188 20.855469 20.402344 C 20.878906 20.546875 20.890625 20.691406 20.894531 20.835938 C 20.898438 20.953125 20.90625 21.066406 20.921875 21.175781 C 20.945312 21.359375 21.011719 21.609375 21.199219 21.746094 C 21.386719 21.871094 21.574219 21.871094 21.761719 21.738281 Z M 21.761719 21.738281 " fill-opacity="1" fill-rule="nonzero"/><path fill="#e24747" d="M 22.28125 18.390625 C 22.273438 18.375 22.261719 18.363281 22.25 18.355469 C 22.027344 18.199219 21.363281 18.515625 20.777344 18.890625 C 20.875 18.875 21.109375 18.75 21.171875 18.726562 C 21.324219 18.675781 21.480469 18.632812 21.636719 18.59375 C 21.710938 18.570312 21.785156 18.566406 21.859375 18.582031 C 21.984375 18.625 22.050781 18.769531 22.050781 18.902344 C 22.050781 19.035156 22.003906 19.160156 21.984375 19.292969 C 21.96875 19.429688 21.964844 19.570312 21.976562 19.710938 L 22.03125 20.804688 C 22.039062 20.730469 22.042969 20.65625 22.046875 20.585938 C 22.074219 20.207031 22.101562 19.816406 22.144531 19.4375 C 22.148438 19.398438 22.15625 19.351562 22.167969 19.304688 C 22.179688 19.253906 22.191406 19.195312 22.207031 19.136719 C 22.261719 18.902344 22.335938 18.582031 22.296875 18.425781 C 22.292969 18.410156 22.289062 18.398438 22.28125 18.390625 Z M 22.28125 18.390625 " fill-opacity="1" fill-rule="nonzero"/><path fill="#e24747" d="M 28.59375 9.289062 C 28.585938 9.289062 28.578125 9.289062 28.566406 9.289062 C 28.46875 9.273438 28.425781 9.214844 28.445312 9.113281 C 28.503906 8.777344 28.46875 8.519531 28.351562 8.371094 C 28.292969 8.292969 28.214844 8.246094 28.117188 8.230469 C 28.011719 8.226562 27.960938 8.175781 27.96875 8.066406 C 27.976562 7.960938 28.03125 7.914062 28.136719 7.925781 C 28.324219 7.949219 28.476562 8.03125 28.589844 8.183594 C 28.765625 8.40625 28.816406 8.742188 28.742188 9.167969 C 28.726562 9.25 28.675781 9.289062 28.59375 9.289062 Z M 28.59375 9.289062 " fill-opacity="1" fill-rule="nonzero"/><path fill="#930000" d="M 27.726562 12.605469 C 27.777344 12.582031 27.824219 12.550781 27.867188 12.511719 C 27.660156 12.402344 27.527344 12.230469 27.480469 12 C 27.4375 11.777344 27.4375 11.558594 27.488281 11.335938 C 27.535156 11.0625 27.609375 10.777344 27.550781 10.507812 C 27.417969 9.886719 26.675781 9.597656 26.40625 9.027344 C 26.269531 8.726562 26.265625 8.425781 26.402344 8.121094 C 26.046875 8.386719 25.863281 8.742188 25.851562 9.1875 L 25.851562 9.273438 L 25.859375 9.28125 C 25.898438 9.316406 25.941406 9.351562 25.984375 9.386719 L 26.015625 9.410156 C 26.054688 9.449219 26.097656 9.484375 26.144531 9.519531 C 26.347656 9.691406 26.578125 9.882812 26.832031 10.117188 C 27.320312 10.574219 27.277344 10.886719 27.226562 11.246094 C 27.164062 11.570312 27.179688 11.886719 27.273438 12.203125 C 27.335938 12.414062 27.425781 12.558594 27.53125 12.609375 C 27.59375 12.636719 27.660156 12.636719 27.726562 12.605469 Z M 27.726562 12.605469 " fill-opacity="1" fill-rule="nonzero"/><g clip-path="url(#bb8aa09429)"><path fill="#ffffff" d="M 24.296875 0.757812 C 24.296875 0.757812 27.714844 2.199219 28.617188 3.867188 L 28.816406 3.515625 C 28.816406 3.515625 28.117188 1.96875 27.050781 1.464844 C 25.984375 0.957031 25.070312 0.558594 24.800781 0.566406 C 24.613281 0.578125 24.445312 0.640625 24.296875 0.757812 Z M 24.296875 0.757812 " fill-opacity="1" fill-rule="nonzero"/></g><path fill="#d1d3d4" d="M 27.019531 2.40625 C 26.777344 2.230469 26.53125 2.074219 26.289062 1.929688 C 27.058594 2.800781 28.890625 5.265625 27.171875 7.445312 C 27.238281 7.425781 27.304688 7.40625 27.367188 7.390625 L 27.40625 7.382812 C 27.46875 7.367188 27.527344 7.355469 27.582031 7.34375 L 27.601562 7.339844 C 27.664062 7.332031 27.722656 7.324219 27.78125 7.316406 L 27.820312 7.3125 C 27.878906 7.308594 27.933594 7.304688 27.988281 7.304688 L 28.003906 7.304688 C 28.058594 7.304688 28.113281 7.308594 28.164062 7.316406 L 28.191406 7.316406 C 28.242188 7.320312 28.292969 7.328125 28.339844 7.339844 L 28.371094 7.347656 C 28.417969 7.359375 28.464844 7.375 28.511719 7.390625 L 28.527344 7.398438 C 28.570312 7.417969 28.613281 7.4375 28.652344 7.460938 C 28.65625 7.460938 28.660156 7.464844 28.664062 7.464844 C 29.070312 6.421875 29.527344 4.175781 27.019531 2.40625 Z M 27.019531 2.40625 " fill-opacity="1" fill-rule="nonzero"/><path fill="#d1d3d4" d="M 27.050781 1.464844 L 26.835938 1.363281 C 26.863281 1.4375 26.875 1.515625 26.863281 1.59375 C 26.832031 1.765625 26.710938 1.875 26.578125 1.964844 C 27.40625 2.5 28.238281 3.164062 28.617188 3.867188 L 28.816406 3.515625 C 28.816406 3.515625 28.117188 1.96875 27.050781 1.464844 Z M 27.050781 1.464844 " fill-opacity="1" fill-rule="nonzero"/><g clip-path="url(#ac4a53299e)"><path fill="#210006" d="M 25.628906 37.476562 L 11.160156 37.476562 C 11.070312 37.476562 11.023438 37.433594 11.007812 37.34375 L 8.214844 16.40625 C 8.199219 16.289062 8.25 16.230469 8.367188 16.234375 L 12.167969 16.234375 C 12.453125 16.234375 12.714844 16.304688 12.960938 16.449219 C 13.203125 16.59375 13.394531 16.792969 13.53125 17.039062 C 13.9375 17.785156 14.488281 18.402344 15.175781 18.898438 C 15.300781 18.984375 15.429688 19.070312 15.566406 19.152344 C 16.21875 19.539062 16.921875 19.78125 17.675781 19.878906 C 18.425781 19.976562 19.167969 19.925781 19.898438 19.71875 L 19.914062 19.714844 C 19.957031 19.699219 20 19.703125 20.042969 19.726562 C 20.082031 19.738281 20.125 19.742188 20.164062 19.738281 C 20.214844 19.734375 20.265625 19.738281 20.316406 19.742188 C 20.632812 19.796875 20.800781 20.117188 20.847656 20.402344 C 20.871094 20.542969 20.882812 20.6875 20.886719 20.835938 C 20.894531 20.953125 20.898438 21.0625 20.914062 21.175781 C 20.9375 21.359375 21.007812 21.609375 21.191406 21.746094 C 21.296875 21.816406 21.414062 21.84375 21.539062 21.824219 C 21.664062 21.808594 21.769531 21.75 21.851562 21.652344 C 21.96875 21.5 21.992188 21.289062 22.011719 21.046875 C 22.023438 20.894531 22.035156 20.738281 22.046875 20.582031 C 22.070312 20.203125 22.097656 19.816406 22.144531 19.433594 C 22.152344 19.355469 22.175781 19.253906 22.203125 19.132812 C 22.257812 18.898438 22.332031 18.578125 22.292969 18.421875 C 22.28125 18.367188 22.292969 18.320312 22.332031 18.277344 C 22.699219 17.90625 23.007812 17.496094 23.257812 17.039062 C 23.394531 16.789062 23.585938 16.589844 23.828125 16.445312 C 23.925781 16.386719 24.03125 16.339844 24.136719 16.308594 C 24.296875 16.253906 24.457031 16.226562 24.621094 16.230469 L 28.421875 16.230469 C 28.46875 16.230469 28.507812 16.246094 28.539062 16.28125 C 28.566406 16.316406 28.578125 16.355469 28.574219 16.402344 L 25.777344 37.34375 C 25.765625 37.433594 25.71875 37.476562 25.628906 37.476562 Z M 11.292969 37.167969 L 25.496094 37.167969 L 28.25 16.535156 L 24.621094 16.535156 C 24.394531 16.539062 24.179688 16.59375 23.984375 16.710938 C 23.789062 16.828125 23.632812 16.988281 23.523438 17.1875 C 23.273438 17.648438 22.96875 18.066406 22.605469 18.441406 C 22.628906 18.664062 22.558594 18.960938 22.5 19.207031 C 22.476562 19.3125 22.453125 19.414062 22.445312 19.472656 C 22.40625 19.847656 22.378906 20.234375 22.351562 20.609375 C 22.339844 20.765625 22.328125 20.917969 22.316406 21.078125 C 22.296875 21.355469 22.261719 21.625 22.09375 21.84375 C 21.960938 22.003906 21.789062 22.101562 21.582031 22.128906 C 21.375 22.160156 21.1875 22.113281 21.015625 21.996094 C 20.800781 21.839844 20.664062 21.570312 20.617188 21.21875 C 20.601562 21.097656 20.59375 20.972656 20.589844 20.855469 C 20.585938 20.71875 20.574219 20.585938 20.554688 20.453125 C 20.523438 20.28125 20.429688 20.070312 20.273438 20.046875 C 20.238281 20.042969 20.207031 20.042969 20.171875 20.046875 C 20.097656 20.050781 20.027344 20.042969 19.957031 20.023438 C 19.1875 20.234375 18.410156 20.289062 17.625 20.183594 C 16.835938 20.078125 16.101562 19.824219 15.414062 19.417969 C 15.269531 19.332031 15.132812 19.242188 15.003906 19.148438 C 14.277344 18.628906 13.695312 17.972656 13.265625 17.1875 C 13.109375 16.898438 12.875 16.703125 12.558594 16.601562 C 12.433594 16.558594 12.300781 16.539062 12.167969 16.539062 L 8.539062 16.539062 Z M 11.292969 37.167969 " fill-opacity="1" fill-rule="nonzero"/></g><path fill="#210006" d="M 21.835938 23.773438 C 22.003906 23.773438 22.164062 23.804688 22.316406 23.867188 C 22.46875 23.933594 22.605469 24.023438 22.722656 24.140625 C 22.84375 24.257812 22.933594 24.394531 22.996094 24.550781 C 23.058594 24.703125 23.09375 24.863281 23.09375 25.03125 L 23.09375 27.257812 C 23.09375 27.425781 23.058594 27.585938 22.996094 27.738281 C 22.933594 27.894531 22.84375 28.03125 22.722656 28.148438 C 22.605469 28.265625 22.46875 28.355469 22.316406 28.421875 C 22.164062 28.484375 22.003906 28.515625 21.835938 28.515625 C 21.667969 28.515625 21.507812 28.484375 21.355469 28.421875 C 21.203125 28.355469 21.066406 28.265625 20.949219 28.148438 C 20.828125 28.03125 20.738281 27.894531 20.675781 27.738281 C 20.613281 27.585938 20.578125 27.425781 20.578125 27.257812 L 20.578125 25.03125 C 20.578125 24.863281 20.613281 24.703125 20.675781 24.550781 C 20.738281 24.394531 20.828125 24.257812 20.949219 24.140625 C 21.066406 24.023438 21.203125 23.933594 21.355469 23.867188 C 21.507812 23.804688 21.667969 23.773438 21.835938 23.773438 Z M 21.835938 23.773438 " fill-opacity="1" fill-rule="nonzero"/><path fill="#ffffff" d="M 21.484375 24.550781 C 21.582031 24.550781 21.664062 24.585938 21.734375 24.652344 C 21.800781 24.722656 21.835938 24.804688 21.835938 24.902344 L 21.835938 25.523438 C 21.835938 25.617188 21.800781 25.703125 21.734375 25.769531 C 21.664062 25.839844 21.582031 25.871094 21.484375 25.871094 C 21.390625 25.871094 21.304688 25.839844 21.238281 25.769531 C 21.167969 25.703125 21.136719 25.617188 21.136719 25.523438 L 21.136719 24.902344 C 21.136719 24.804688 21.167969 24.722656 21.238281 24.652344 C 21.304688 24.585938 21.390625 24.550781 21.484375 24.550781 Z M 21.484375 24.550781 " fill-opacity="1" fill-rule="nonzero"/><path fill="#210006" d="M 15.664062 28.515625 C 15.5 28.515625 15.339844 28.484375 15.183594 28.421875 C 15.03125 28.355469 14.894531 28.265625 14.777344 28.148438 C 14.660156 28.03125 14.570312 27.894531 14.503906 27.738281 C 14.441406 27.585938 14.410156 27.425781 14.410156 27.257812 L 14.410156 25.03125 C 14.410156 24.863281 14.441406 24.703125 14.503906 24.550781 C 14.570312 24.394531 14.660156 24.257812 14.777344 24.140625 C 14.894531 24.023438 15.03125 23.933594 15.183594 23.867188 C 15.339844 23.804688 15.5 23.773438 15.664062 23.773438 C 15.832031 23.773438 15.992188 23.804688 16.144531 23.867188 C 16.300781 23.933594 16.4375 24.023438 16.554688 24.140625 C 16.671875 24.257812 16.761719 24.394531 16.824219 24.550781 C 16.890625 24.703125 16.921875 24.863281 16.921875 25.03125 L 16.921875 27.257812 C 16.921875 27.425781 16.890625 27.585938 16.824219 27.738281 C 16.761719 27.894531 16.671875 28.03125 16.554688 28.148438 C 16.4375 28.265625 16.300781 28.355469 16.144531 28.421875 C 15.992188 28.484375 15.832031 28.515625 15.664062 28.515625 Z M 15.664062 28.515625 " fill-opacity="1" fill-rule="nonzero"/><path fill="#ffffff" d="M 16.015625 25.871094 C 15.917969 25.871094 15.835938 25.839844 15.769531 25.769531 C 15.699219 25.703125 15.664062 25.617188 15.664062 25.523438 L 15.664062 24.902344 C 15.664062 24.804688 15.699219 24.722656 15.769531 24.652344 C 15.835938 24.585938 15.917969 24.550781 16.015625 24.550781 C 16.113281 24.550781 16.195312 24.585938 16.261719 24.652344 C 16.332031 24.722656 16.367188 24.804688 16.367188 24.902344 L 16.367188 25.523438 C 16.367188 25.617188 16.332031 25.703125 16.261719 25.769531 C 16.195312 25.839844 16.113281 25.871094 16.015625 25.871094 Z M 16.015625 25.871094 " fill-opacity="1" fill-rule="nonzero"/><path fill="#210006" d="M 24.183594 16.609375 C 24.136719 16.609375 24.09375 16.589844 24.066406 16.550781 C 24.035156 16.511719 24.023438 16.46875 24.035156 16.421875 L 25.546875 9.304688 C 25.558594 9.25 25.59375 9.210938 25.648438 9.195312 C 25.703125 9.175781 25.75 9.1875 25.792969 9.222656 C 25.894531 9.3125 26.015625 9.414062 26.140625 9.519531 C 26.34375 9.6875 26.574219 9.882812 26.828125 10.113281 C 27.320312 10.570312 27.273438 10.882812 27.222656 11.246094 C 27.160156 11.566406 27.175781 11.882812 27.269531 12.199219 C 27.332031 12.410156 27.421875 12.554688 27.527344 12.605469 C 27.59375 12.636719 27.660156 12.632812 27.722656 12.601562 C 27.78125 12.578125 27.832031 12.585938 27.878906 12.625 C 27.929688 12.664062 27.945312 12.714844 27.933594 12.773438 L 27.140625 16.414062 C 27.121094 16.496094 27.074219 16.535156 26.992188 16.535156 L 24.621094 16.535156 C 24.488281 16.535156 24.355469 16.554688 24.230469 16.597656 C 24.214844 16.601562 24.199219 16.605469 24.183594 16.609375 Z M 25.789062 9.621094 L 25.777344 9.667969 L 24.382812 16.25 C 24.460938 16.238281 24.542969 16.234375 24.621094 16.234375 L 26.871094 16.234375 L 27.589844 12.929688 C 27.523438 12.929688 27.457031 12.910156 27.398438 12.882812 C 27.265625 12.820312 27.089844 12.667969 26.980469 12.285156 C 26.875 11.929688 26.855469 11.570312 26.925781 11.203125 C 26.972656 10.871094 26.996094 10.6875 26.621094 10.339844 C 26.375 10.113281 26.148438 9.921875 25.949219 9.753906 Z M 25.789062 9.621094 " fill-opacity="1" fill-rule="nonzero"/><g clip-path="url(#e7e41f77e2)"><path fill="#210006" d="M 12.457031 16.484375 L 10.648438 7.128906 L 10.011719 6.527344 L 8.09375 7.152344 L 10.007812 16.351562 L 9.710938 16.414062 L 7.769531 7.085938 C 7.75 6.992188 7.785156 6.933594 7.875 6.90625 L 10.003906 6.210938 C 10.0625 6.191406 10.113281 6.203125 10.15625 6.242188 L 10.894531 6.941406 C 10.917969 6.964844 10.933594 6.992188 10.9375 7.023438 L 12.753906 16.425781 Z M 12.457031 16.484375 " fill-opacity="1" fill-rule="nonzero"/></g><path fill="#210006" d="M 14.941406 19.046875 L 12.277344 4.738281 L 11.691406 3.84375 L 9.800781 4.328125 L 10.199219 6.324219 L 9.902344 6.386719 L 9.476562 4.246094 C 9.457031 4.148438 9.496094 4.089844 9.585938 4.066406 L 11.722656 3.523438 C 11.792969 3.503906 11.847656 3.527344 11.886719 3.585938 L 12.546875 4.597656 C 12.558594 4.613281 12.566406 4.632812 12.570312 4.652344 L 15.238281 18.992188 Z M 14.941406 19.046875 " fill-opacity="1" fill-rule="nonzero"/><path fill="#210006" d="M 17.148438 19.992188 L 15.46875 6.855469 C 15.457031 6.777344 15.492188 6.722656 15.566406 6.695312 L 18.121094 5.714844 C 18.183594 5.691406 18.242188 5.703125 18.289062 5.757812 L 19.246094 6.867188 C 19.269531 6.890625 19.28125 6.921875 19.285156 6.957031 L 19.917969 17.070312 L 19.617188 17.089844 L 18.984375 7.027344 L 18.128906 6.039062 L 15.785156 6.9375 L 17.449219 19.953125 Z M 17.148438 19.992188 " fill-opacity="1" fill-rule="nonzero"/><path fill="#210006" d="M 19.949219 20.011719 C 19.914062 20.011719 19.886719 20.003906 19.859375 19.984375 C 19.816406 19.957031 19.796875 19.917969 19.792969 19.871094 L 19.792969 19.851562 C 19.789062 19.785156 19.816406 19.738281 19.871094 19.707031 C 19.929688 19.679688 19.984375 19.683594 20.035156 19.722656 C 20.09375 19.753906 20.117188 19.804688 20.113281 19.871094 C 20.109375 19.9375 20.074219 19.984375 20.007812 20.003906 L 19.992188 20.007812 C 19.980469 20.011719 19.964844 20.011719 19.949219 20.011719 Z M 20.042969 19.726562 Z M 20.027344 19.71875 Z M 20.027344 19.71875 " fill-opacity="1" fill-rule="nonzero"/><path fill="#210006" d="M 19.910156 19.519531 C 19.898438 19.519531 19.882812 19.519531 19.871094 19.515625 C 19.800781 19.496094 19.765625 19.449219 19.761719 19.378906 L 19.617188 17.089844 L 19.617188 3.710938 C 19.617188 3.667969 19.632812 3.632812 19.660156 3.601562 C 19.691406 3.574219 19.726562 3.558594 19.769531 3.558594 C 20.132812 3.5625 20.492188 3.589844 20.847656 3.636719 C 20.921875 3.644531 20.964844 3.683594 20.976562 3.753906 C 21.089844 4.265625 21.203125 4.777344 21.3125 5.285156 L 21.410156 5.738281 C 21.496094 6.136719 21.585938 6.550781 21.578125 6.976562 C 21.570312 7.421875 21.457031 7.855469 21.347656 8.269531 C 21.324219 8.363281 21.300781 8.457031 21.277344 8.550781 C 21.007812 9.636719 20.90625 10.738281 20.972656 11.855469 C 20.988281 12.125 21.015625 12.4375 21.15625 12.683594 C 21.269531 12.882812 21.507812 13.078125 21.761719 13.035156 C 21.945312 13.003906 22.101562 12.847656 22.261719 12.691406 C 22.394531 12.546875 22.546875 12.425781 22.714844 12.328125 C 22.757812 12.304688 22.796875 12.289062 22.839844 12.273438 C 22.929688 12.242188 23.023438 12.21875 23.117188 12.203125 C 23.167969 12.191406 23.214844 12.203125 23.25 12.242188 C 23.289062 12.277344 23.304688 12.320312 23.296875 12.371094 L 22.988281 14.589844 C 22.988281 14.59375 22.988281 14.597656 22.988281 14.601562 L 22.480469 18.25 C 22.472656 18.304688 22.445312 18.34375 22.390625 18.367188 C 22.339844 18.390625 22.289062 18.382812 22.242188 18.351562 C 21.953125 18.148438 20.875 18.777344 20.234375 19.265625 C 20.160156 19.320312 20.089844 19.382812 20.03125 19.457031 C 20.003906 19.5 19.964844 19.519531 19.910156 19.519531 Z M 19.917969 3.867188 L 19.917969 17.082031 L 20.042969 19.035156 C 20.046875 19.03125 20.050781 19.027344 20.054688 19.023438 C 20.316406 18.824219 21.539062 17.921875 22.210938 18.023438 L 22.691406 14.570312 C 22.691406 14.566406 22.691406 14.5625 22.691406 14.558594 L 22.96875 12.554688 C 22.960938 12.558594 22.949219 12.5625 22.941406 12.566406 C 22.910156 12.574219 22.878906 12.585938 22.851562 12.601562 C 22.710938 12.6875 22.585938 12.789062 22.476562 12.914062 C 22.289062 13.097656 22.09375 13.292969 21.808594 13.339844 C 21.46875 13.398438 21.09375 13.191406 20.894531 12.84375 C 20.71875 12.539062 20.6875 12.1875 20.667969 11.882812 C 20.601562 10.734375 20.707031 9.601562 20.984375 8.484375 C 21.007812 8.390625 21.03125 8.300781 21.054688 8.203125 C 21.160156 7.804688 21.269531 7.390625 21.277344 6.980469 C 21.28125 6.585938 21.195312 6.191406 21.113281 5.808594 L 21.015625 5.355469 C 20.910156 4.882812 20.808594 4.40625 20.707031 3.929688 C 20.441406 3.894531 20.179688 3.875 19.917969 3.867188 Z M 19.917969 3.867188 " fill-opacity="1" fill-rule="nonzero"/><path fill="#210006" d="M 13.914062 13.527344 L 13.101562 3.273438 C 13.09375 3.164062 13.144531 3.109375 13.253906 3.109375 L 15.621094 3.109375 C 15.660156 3.109375 15.699219 3.125 15.726562 3.15625 L 16.472656 3.914062 C 16.503906 3.945312 16.515625 3.980469 16.515625 4.019531 L 16.515625 6.550781 L 16.214844 6.550781 L 16.214844 4.082031 L 15.554688 3.414062 L 13.417969 3.414062 L 14.21875 13.503906 Z M 13.914062 13.527344 " fill-opacity="1" fill-rule="nonzero"/><path fill="#210006" d="M 19.769531 6.070312 C 19.730469 6.070312 19.699219 6.058594 19.667969 6.035156 C 19.113281 5.554688 18.671875 4.855469 18.570312 4.296875 C 18.527344 4.078125 18.589844 3.890625 18.753906 3.742188 C 18.757812 3.734375 18.761719 3.730469 18.765625 3.726562 C 18.871094 3.636719 18.992188 3.585938 19.132812 3.574219 C 19.339844 3.5625 19.554688 3.558594 19.769531 3.558594 C 19.871094 3.5625 19.921875 3.609375 19.917969 3.710938 L 19.917969 5.921875 C 19.921875 5.984375 19.890625 6.03125 19.832031 6.058594 C 19.8125 6.066406 19.789062 6.070312 19.769531 6.070312 Z M 18.976562 3.949219 L 18.964844 3.957031 C 18.878906 4.035156 18.847656 4.128906 18.867188 4.242188 C 18.929688 4.582031 19.183594 5.105469 19.617188 5.5625 L 19.617188 3.863281 C 19.460938 3.863281 19.304688 3.871094 19.152344 3.878906 C 19.085938 3.882812 19.027344 3.90625 18.976562 3.949219 Z M 18.976562 3.949219 " fill-opacity="1" fill-rule="nonzero"/><g clip-path="url(#9323e0c964)"><path fill="#210006" d="M 28.734375 7.851562 C 28.695312 7.851562 28.660156 7.839844 28.632812 7.8125 C 28.265625 7.492188 27.621094 7.613281 27.148438 7.769531 C 27.074219 7.796875 27.019531 7.777344 26.976562 7.714844 C 26.878906 7.578125 26.773438 7.441406 26.667969 7.308594 C 25.953125 6.394531 25.101562 5.644531 24.105469 5.058594 C 23.757812 4.851562 23.394531 4.671875 23.019531 4.519531 C 21.976562 4.09375 20.890625 3.875 19.765625 3.863281 C 19.558594 3.863281 19.351562 3.863281 19.152344 3.878906 C 19.082031 3.882812 19.019531 3.910156 18.964844 3.957031 C 18.898438 4.015625 18.832031 4.015625 18.765625 3.953125 C 18.699219 3.890625 18.691406 3.824219 18.746094 3.75 L 19.945312 2.152344 C 20.832031 1.039062 22.238281 0.460938 23.613281 0.636719 C 24.773438 0.785156 25.980469 1.296875 27.195312 2.15625 C 30.035156 4.164062 29.3125 6.746094 28.867188 7.761719 C 28.839844 7.820312 28.792969 7.851562 28.730469 7.851562 Z M 27.988281 7.304688 C 28.230469 7.296875 28.453125 7.351562 28.664062 7.464844 C 29.070312 6.421875 29.53125 4.175781 27.019531 2.402344 C 25.84375 1.574219 24.683594 1.078125 23.574219 0.9375 C 22.304688 0.777344 21.003906 1.3125 20.183594 2.339844 L 19.261719 3.570312 C 19.429688 3.558594 19.601562 3.558594 19.769531 3.558594 C 20.132812 3.5625 20.492188 3.589844 20.851562 3.636719 C 21.636719 3.738281 22.398438 3.941406 23.132812 4.238281 C 23.523438 4.398438 23.898438 4.585938 24.257812 4.796875 C 25.285156 5.40625 26.167969 6.179688 26.902344 7.121094 C 26.988281 7.230469 27.074219 7.339844 27.15625 7.453125 C 27.425781 7.363281 27.703125 7.3125 27.988281 7.304688 Z M 27.988281 7.304688 " fill-opacity="1" fill-rule="nonzero"/></g><path fill="#210006" d="M 25.734375 9.746094 L 25.527344 9.527344 C 25.589844 9.464844 25.660156 9.410156 25.730469 9.359375 L 25.90625 9.605469 C 25.847656 9.648438 25.789062 9.695312 25.734375 9.746094 Z M 25.734375 9.746094 " fill-opacity="1" fill-rule="nonzero"/><path fill="#210006" d="M 20.683594 3.816406 L 20.671875 3.769531 L 20.96875 3.710938 L 20.980469 3.757812 Z M 20.683594 3.816406 " fill-opacity="1" fill-rule="nonzero"/><path fill="#210006" d="M 27.617188 12.933594 C 27.542969 12.933594 27.46875 12.917969 27.398438 12.882812 C 27.269531 12.820312 27.089844 12.667969 26.980469 12.285156 C 26.878906 11.929688 26.859375 11.570312 26.925781 11.203125 C 26.972656 10.871094 27 10.6875 26.625 10.339844 C 26.378906 10.113281 26.152344 9.921875 25.949219 9.753906 C 25.824219 9.648438 25.703125 9.546875 25.597656 9.453125 C 25.5625 9.421875 25.542969 9.382812 25.546875 9.335938 L 25.550781 9.179688 C 25.558594 8.847656 25.660156 8.546875 25.84375 8.273438 C 26.03125 8 26.277344 7.796875 26.578125 7.667969 L 26.59375 7.660156 C 26.75 7.589844 26.902344 7.53125 27.050781 7.484375 C 27.851562 7.214844 28.453125 7.25 28.832031 7.585938 L 28.84375 7.59375 C 28.886719 7.632812 28.921875 7.675781 28.957031 7.71875 C 29.507812 8.402344 29.234375 9.226562 28.96875 10.023438 C 28.820312 10.460938 28.671875 10.910156 28.640625 11.359375 C 28.585938 12.09375 28.265625 12.707031 27.847656 12.886719 C 27.773438 12.917969 27.699219 12.933594 27.617188 12.933594 Z M 25.851562 9.273438 C 25.941406 9.351562 26.039062 9.433594 26.144531 9.523438 C 26.347656 9.691406 26.578125 9.882812 26.832031 10.117188 C 27.324219 10.574219 27.277344 10.886719 27.226562 11.25 C 27.164062 11.570312 27.179688 11.886719 27.273438 12.203125 C 27.335938 12.414062 27.425781 12.558594 27.53125 12.609375 C 27.597656 12.640625 27.664062 12.636719 27.726562 12.605469 C 27.992188 12.492188 28.285156 12.019531 28.335938 11.335938 C 28.371094 10.851562 28.527344 10.378906 28.679688 9.925781 C 28.941406 9.140625 29.167969 8.460938 28.722656 7.910156 C 28.695312 7.875 28.667969 7.847656 28.636719 7.820312 L 28.625 7.808594 C 28.253906 7.496094 27.617188 7.617188 27.148438 7.773438 C 27.011719 7.816406 26.875 7.871094 26.734375 7.933594 C 26.722656 7.9375 26.710938 7.945312 26.703125 7.949219 C 26.453125 8.054688 26.25 8.21875 26.097656 8.445312 C 25.941406 8.667969 25.863281 8.914062 25.851562 9.1875 Z M 25.851562 9.273438 " fill-opacity="1" fill-rule="nonzero"/><path fill="#210006" d="M 21.695312 13.347656 C 21.386719 13.347656 21.070312 13.148438 20.890625 12.835938 C 20.710938 12.527344 20.683594 12.179688 20.667969 11.875 C 20.601562 10.726562 20.703125 9.59375 20.980469 8.480469 C 21.003906 8.382812 21.03125 8.292969 21.054688 8.195312 C 21.160156 7.796875 21.265625 7.382812 21.273438 6.976562 C 21.28125 6.582031 21.195312 6.1875 21.109375 5.800781 L 21.011719 5.351562 C 20.902344 4.839844 20.792969 4.328125 20.679688 3.820312 C 20.667969 3.769531 20.679688 3.722656 20.714844 3.683594 C 20.753906 3.644531 20.796875 3.628906 20.847656 3.636719 C 21.636719 3.738281 22.398438 3.9375 23.132812 4.238281 C 23.523438 4.398438 23.898438 4.585938 24.257812 4.796875 C 25.285156 5.40625 26.167969 6.179688 26.902344 7.121094 C 27.011719 7.257812 27.117188 7.398438 27.21875 7.542969 C 27.25 7.585938 27.257812 7.628906 27.242188 7.675781 C 27.222656 7.726562 27.191406 7.757812 27.144531 7.773438 C 27.007812 7.820312 26.871094 7.871094 26.730469 7.933594 C 26.71875 7.941406 26.710938 7.945312 26.699219 7.949219 C 26.449219 8.054688 26.246094 8.21875 26.09375 8.445312 C 25.941406 8.667969 25.859375 8.917969 25.851562 9.1875 L 25.847656 9.347656 C 25.847656 9.355469 25.84375 9.363281 25.84375 9.375 L 25.78125 9.671875 C 25.773438 9.703125 25.761719 9.726562 25.738281 9.75 C 25.433594 10.039062 25.199219 10.464844 24.976562 10.875 C 24.621094 11.523438 24.257812 12.191406 23.589844 12.414062 C 23.476562 12.449219 23.359375 12.476562 23.242188 12.496094 L 23.179688 12.503906 C 23.097656 12.519531 23.019531 12.542969 22.945312 12.566406 C 22.914062 12.578125 22.882812 12.589844 22.851562 12.605469 C 22.710938 12.6875 22.585938 12.792969 22.476562 12.914062 C 22.292969 13.101562 22.097656 13.296875 21.8125 13.34375 C 21.773438 13.347656 21.734375 13.347656 21.695312 13.347656 Z M 21.023438 3.96875 L 21.3125 5.285156 L 21.410156 5.738281 C 21.496094 6.136719 21.585938 6.550781 21.578125 6.976562 C 21.570312 7.421875 21.457031 7.855469 21.347656 8.269531 C 21.324219 8.363281 21.300781 8.457031 21.277344 8.550781 C 21.007812 9.636719 20.90625 10.738281 20.972656 11.855469 C 20.988281 12.125 21.015625 12.4375 21.15625 12.683594 C 21.269531 12.882812 21.507812 13.078125 21.761719 13.035156 C 21.945312 13.003906 22.101562 12.847656 22.261719 12.691406 C 22.394531 12.546875 22.546875 12.425781 22.714844 12.328125 C 22.757812 12.304688 22.796875 12.289062 22.839844 12.273438 C 22.929688 12.242188 23.023438 12.21875 23.117188 12.203125 L 23.183594 12.191406 C 23.289062 12.175781 23.390625 12.152344 23.492188 12.121094 C 24.046875 11.933594 24.367188 11.347656 24.707031 10.726562 C 24.933594 10.308594 25.171875 9.875 25.492188 9.558594 L 25.542969 9.320312 L 25.546875 9.175781 C 25.554688 8.847656 25.652344 8.542969 25.839844 8.269531 C 26.027344 7.996094 26.269531 7.796875 26.574219 7.664062 L 26.589844 7.65625 C 26.675781 7.617188 26.765625 7.582031 26.851562 7.550781 C 26.789062 7.464844 26.730469 7.386719 26.667969 7.304688 C 25.953125 6.394531 25.101562 5.644531 24.105469 5.054688 C 23.757812 4.851562 23.394531 4.671875 23.019531 4.519531 C 22.375 4.257812 21.710938 4.074219 21.023438 3.96875 Z M 21.023438 3.96875 " fill-opacity="1" fill-rule="nonzero"/><path fill="#210006" d="M 21.464844 22.136719 C 21.300781 22.136719 21.148438 22.089844 21.015625 21.992188 C 20.800781 21.835938 20.664062 21.570312 20.617188 21.21875 C 20.601562 21.09375 20.59375 20.96875 20.589844 20.851562 C 20.585938 20.71875 20.574219 20.585938 20.554688 20.453125 C 20.523438 20.28125 20.429688 20.070312 20.269531 20.042969 C 20.238281 20.042969 20.207031 20.042969 20.171875 20.042969 C 20.085938 20.050781 20 20.039062 19.917969 20.007812 C 19.910156 20.003906 19.902344 20 19.894531 19.992188 C 19.878906 19.984375 19.863281 19.976562 19.851562 19.964844 C 19.671875 19.820312 19.628906 19.640625 19.710938 19.425781 C 19.730469 19.375 19.757812 19.328125 19.789062 19.285156 C 19.863281 19.1875 19.953125 19.097656 20.054688 19.027344 C 20.347656 18.800781 21.839844 17.699219 22.421875 18.105469 C 22.460938 18.136719 22.5 18.171875 22.527344 18.210938 C 22.558594 18.257812 22.578125 18.304688 22.589844 18.355469 C 22.644531 18.585938 22.566406 18.929688 22.5 19.207031 C 22.476562 19.316406 22.453125 19.414062 22.445312 19.472656 C 22.402344 19.847656 22.375 20.234375 22.351562 20.609375 C 22.339844 20.765625 22.328125 20.917969 22.316406 21.078125 C 22.292969 21.355469 22.261719 21.625 22.09375 21.84375 C 21.929688 22.042969 21.722656 22.140625 21.464844 22.136719 Z M 20.210938 19.738281 C 20.246094 19.734375 20.285156 19.738281 20.320312 19.742188 C 20.636719 19.796875 20.800781 20.117188 20.851562 20.402344 C 20.875 20.542969 20.886719 20.6875 20.890625 20.835938 C 20.898438 20.953125 20.902344 21.0625 20.917969 21.175781 C 20.941406 21.359375 21.011719 21.609375 21.195312 21.746094 C 21.300781 21.816406 21.414062 21.84375 21.542969 21.824219 C 21.667969 21.808594 21.773438 21.75 21.855469 21.652344 C 21.972656 21.5 21.996094 21.289062 22.015625 21.046875 C 22.027344 20.894531 22.039062 20.738281 22.046875 20.582031 C 22.074219 20.203125 22.101562 19.816406 22.144531 19.433594 C 22.152344 19.355469 22.179688 19.253906 22.207031 19.132812 C 22.261719 18.898438 22.335938 18.578125 22.296875 18.421875 C 22.292969 18.410156 22.289062 18.398438 22.285156 18.386719 C 22.273438 18.371094 22.265625 18.359375 22.25 18.351562 C 21.957031 18.144531 20.875 18.773438 20.238281 19.261719 C 20.164062 19.316406 20.09375 19.378906 20.035156 19.453125 C 20.019531 19.476562 20.007812 19.5 19.996094 19.527344 C 19.96875 19.597656 19.980469 19.660156 20.03125 19.714844 L 20.035156 19.714844 L 20.042969 19.722656 C 20.085938 19.734375 20.125 19.734375 20.167969 19.730469 Z M 20.042969 19.726562 Z M 20.042969 19.726562 " fill-opacity="1" fill-rule="nonzero"/><g clip-path="url(#a750d92fd8)"><path fill="#210006" d="M 28.804688 4.039062 L 28.539062 3.898438 C 28.636719 3.664062 28.632812 3.433594 28.523438 3.207031 C 27.878906 1.765625 25.726562 0.945312 25.304688 0.792969 C 24.613281 0.550781 24.296875 0.960938 24.285156 0.980469 L 24.039062 0.800781 C 24.054688 0.777344 24.492188 0.1875 25.402344 0.507812 C 25.847656 0.667969 28.105469 1.53125 28.800781 3.085938 C 28.949219 3.402344 28.949219 3.71875 28.804688 4.039062 Z M 28.804688 4.039062 " fill-opacity="1" fill-rule="nonzero"/></g><path fill="#210006" d="M 18.78125 32.058594 C 16.574219 32.058594 15.042969 30.867188 15.019531 30.847656 C 14.953125 30.785156 14.949219 30.71875 15.003906 30.644531 C 15.0625 30.574219 15.128906 30.5625 15.203125 30.609375 C 15.851562 31.074219 16.558594 31.402344 17.332031 31.589844 C 19.054688 32.015625 20.738281 31.683594 22.339844 30.601562 C 22.421875 30.546875 22.492188 30.5625 22.546875 30.644531 C 22.601562 30.726562 22.589844 30.796875 22.507812 30.851562 C 21.167969 31.757812 19.890625 32.058594 18.78125 32.058594 Z M 18.78125 32.058594 " fill-opacity="1" fill-rule="nonzero"/></svg>