<svg xmlns="http://www.w3.org/2000/svg" xmlns:xlink="http://www.w3.org/1999/xlink" width="50" zoomAndPan="magnify" viewBox="0 0 37.5 37.499999" height="50" preserveAspectRatio="xMidYMid meet" version="1.0"><defs><clipPath id="ca7a746032"><path d="M 0 0 L 37.007812 0 L 37.007812 37.007812 L 0 37.007812 Z M 0 0 " clip-rule="nonzero"/></clipPath><clipPath id="2bbcafd0e8"><path d="M 1.238281 0.0117188 L 36.476562 0.0117188 L 36.476562 37.007812 L 1.238281 37.007812 Z M 1.238281 0.0117188 " clip-rule="nonzero"/></clipPath><clipPath id="81ee10b35b"><path d="M 1.230469 1 L 33 1 L 33 35 L 1.230469 35 Z M 1.230469 1 " clip-rule="nonzero"/></clipPath><clipPath id="d441ecb8f7"><path d="M 5 0.0117188 L 36.480469 0.0117188 L 36.480469 37.007812 L 5 37.007812 Z M 5 0.0117188 " clip-rule="nonzero"/></clipPath></defs><g clip-path="url(#ca7a746032)"><path fill="#ffffff" d="M 0 0 L 37.5 0 L 37.5 37.5 L 0 37.5 Z M 0 0 " fill-opacity="1" fill-rule="nonzero"/><path fill="#ffffff" d="M 0 0 L 37.5 0 L 37.5 37.5 L 0 37.5 Z M 0 0 " fill-opacity="1" fill-rule="nonzero"/></g><g clip-path="url(#2bbcafd0e8)"><path fill="#211d1d" d="M 25.234375 21.613281 C 25.296875 21.613281 25.359375 21.609375 25.421875 21.601562 C 25.398438 21.691406 25.378906 21.792969 25.375 21.914062 C 25.296875 21.925781 25.195312 21.941406 25.082031 21.96875 C 25.136719 21.84375 25.183594 21.726562 25.234375 21.613281 Z M 36.027344 34.898438 C 36 34.503906 35.820312 32.957031 34.636719 32.046875 C 33.789062 31.398438 32.636719 31.230469 31.199219 31.546875 C 31.007812 31.242188 30.445312 30.507812 29.367188 30.320312 C 29.425781 30.007812 29.460938 29.414062 29.046875 28.988281 C 28.738281 28.671875 28.25 28.519531 27.585938 28.535156 C 27.183594 27.613281 26.332031 26.375 24.722656 25.332031 C 24.835938 25.351562 24.960938 25.371094 25.089844 25.382812 C 25.191406 25.394531 25.339844 25.410156 25.507812 25.410156 C 25.808594 25.410156 26.167969 25.359375 26.410156 25.144531 C 26.527344 25.039062 26.605469 24.910156 26.644531 24.753906 C 27.1875 24.988281 28.523438 25.46875 29.75 25.050781 C 30.09375 25.09375 31.984375 25.234375 32.722656 23.230469 C 32.902344 22.738281 32.992188 21.863281 32.667969 21.113281 C 32.773438 20.679688 32.726562 20.257812 32.519531 19.855469 C 31.808594 18.460938 29.34375 17.628906 27.707031 17.222656 C 28.035156 16.042969 28.441406 14.957031 28.867188 13.828125 C 29.390625 12.445312 29.929688 11.015625 30.394531 9.238281 C 30.558594 9.273438 30.726562 9.292969 30.894531 9.292969 C 31.199219 9.292969 31.503906 9.230469 31.808594 9.089844 C 32.328125 8.84375 32.734375 8.332031 32.945312 7.648438 C 33.257812 6.648438 33.097656 5.457031 32.515625 4.460938 C 31.53125 2.78125 28.683594 1.574219 26.285156 1.117188 C 26.09375 1.03125 24.828125 0.476562 22.882812 0.183594 C 20.980469 -0.101562 18.054688 -0.167969 14.894531 1.113281 C 14.667969 1.125 13.417969 1.207031 12.011719 1.691406 C 9.976562 2.390625 8.617188 3.605469 8.078125 5.199219 C 7.816406 5.972656 7.863281 7.574219 8.628906 8.449219 C 9.078125 8.960938 9.71875 9.179688 10.496094 9.082031 C 10.988281 11.390625 12.148438 14.042969 13.332031 16.652344 C 13.003906 16.6875 12.675781 16.738281 12.34375 16.800781 C 11.9375 16.070312 11.261719 15.769531 10.425781 15.96875 C 9.992188 16.070312 9.667969 16.351562 9.523438 16.496094 C 7.511719 16.097656 6.109375 16.683594 5.800781 16.832031 C 5.410156 16.757812 3.765625 16.46875 3.148438 16.667969 C 2.492188 16.878906 1.839844 17.757812 1.625 18.148438 C 1.277344 18.777344 1.160156 19.296875 1.289062 19.652344 C 1.347656 19.828125 1.46875 19.957031 1.628906 20.023438 C 2.617188 20.441406 3.515625 19.253906 3.765625 18.878906 L 4.078125 18.921875 C 4.074219 19.273438 4.0625 20.078125 4.082031 20.402344 C 4.148438 21.4375 4.628906 21.699219 5.023438 21.742188 C 5.296875 21.769531 5.523438 21.703125 5.699219 21.550781 C 5.816406 21.445312 5.890625 21.3125 5.9375 21.191406 C 6.101562 21.292969 6.289062 21.316406 6.445312 21.304688 C 6.453125 21.695312 6.398438 21.910156 6.332031 22.085938 C 6.015625 22.945312 5.953125 23.515625 6.140625 23.878906 C 6.234375 24.066406 6.394531 24.195312 6.617188 24.257812 C 6.707031 24.285156 6.792969 24.296875 6.882812 24.296875 C 8.027344 24.296875 8.808594 22.167969 8.984375 21.632812 C 9.960938 21.292969 10.292969 20.554688 10.398438 20.175781 C 11.304688 20.484375 11.84375 20.246094 12.140625 19.980469 C 12.445312 19.710938 12.613281 19.316406 12.6875 18.890625 C 12.714844 18.886719 12.742188 18.882812 12.769531 18.875 C 13.207031 18.804688 13.683594 18.730469 14.25 18.671875 C 15.253906 20.898438 16.144531 23 16.574219 24.832031 C 16.457031 24.890625 16.339844 24.957031 16.21875 25.03125 C 15.375 25.542969 14.375 26.503906 14.015625 28.246094 C 13.46875 28.269531 13.058594 28.417969 12.789062 28.699219 C 12.375 29.125 12.410156 29.714844 12.46875 30.03125 C 11.390625 30.214844 10.828125 30.949219 10.636719 31.253906 C 9.199219 30.9375 8.042969 31.105469 7.199219 31.753906 C 6.011719 32.664062 5.835938 34.210938 5.808594 34.605469 C 5.453125 34.894531 5.367188 35.210938 5.359375 35.429688 C 5.347656 35.734375 5.476562 36.03125 5.707031 36.226562 C 6.523438 36.917969 8.367188 37.222656 10.039062 37.222656 C 10.984375 37.222656 11.875 37.125 12.492188 36.945312 C 14.03125 36.503906 15.960938 35.417969 16.507812 34.28125 C 16.820312 33.621094 16.585938 33.171875 16.347656 32.957031 C 16.644531 32.078125 16.476562 31.394531 16.363281 31.089844 C 16.628906 30.921875 16.832031 30.671875 16.929688 30.390625 C 17.039062 30.078125 17.019531 29.746094 16.878906 29.453125 C 16.699219 29.082031 16.347656 28.808594 15.933594 28.617188 C 16.128906 28.070312 16.503906 27.472656 17.421875 27.003906 C 17.503906 27.050781 17.601562 27.082031 17.707031 27.09375 C 17.847656 27.113281 18.167969 27.089844 18.382812 26.878906 C 18.394531 26.871094 18.402344 26.859375 18.414062 26.847656 C 18.601562 27.300781 18.875 28.035156 18.980469 28.753906 C 19.007812 28.941406 19.019531 29.210938 19.035156 29.519531 C 19.089844 30.644531 19.15625 32.046875 19.996094 32.191406 C 20.039062 32.199219 20.078125 32.203125 20.121094 32.203125 C 20.3125 32.203125 20.496094 32.132812 20.65625 31.992188 C 21.015625 31.679688 21.195312 31.082031 21.164062 30.308594 C 21.160156 30.230469 21.148438 30.113281 21.128906 29.976562 C 21.105469 29.777344 21.042969 29.285156 21.082031 29.089844 C 21.398438 29.292969 21.675781 29.351562 21.933594 29.261719 C 22.257812 29.152344 22.507812 28.820312 22.695312 28.25 C 22.84375 27.8125 22.992188 27.378906 23.140625 26.957031 C 23.925781 27.363281 24.820312 28.027344 25.53125 29.117188 C 25.285156 29.285156 25.078125 29.492188 24.957031 29.742188 C 24.8125 30.039062 24.796875 30.371094 24.90625 30.679688 C 25.003906 30.964844 25.207031 31.214844 25.472656 31.382812 C 25.359375 31.6875 25.191406 32.371094 25.488281 33.246094 C 25.25 33.460938 25.011719 33.914062 25.328125 34.570312 C 25.875 35.707031 27.804688 36.792969 29.34375 37.238281 C 29.960938 37.417969 30.851562 37.511719 31.792969 37.511719 C 33.46875 37.511719 35.3125 37.210938 36.128906 36.515625 C 36.359375 36.320312 36.488281 36.023438 36.476562 35.722656 C 36.46875 35.503906 36.382812 35.1875 36.027344 34.898438 " fill-opacity="1" fill-rule="nonzero"/></g><g clip-path="url(#81ee10b35b)"><path fill="#ffffff" d="M 16.921875 21.203125 C 16.910156 21.148438 16.890625 21.097656 16.863281 21.046875 C 16.808594 20.949219 16.722656 20.863281 16.65625 20.769531 C 16.621094 20.722656 16.597656 20.671875 16.570312 20.625 C 16.554688 20.597656 16.535156 20.578125 16.511719 20.554688 L 16.472656 20.527344 C 16.46875 20.523438 16.453125 20.519531 16.429688 20.523438 L 16.382812 20.527344 L 16.3125 20.546875 L 16.25 20.582031 L 16.214844 20.609375 C 16.195312 20.625 16.183594 20.632812 16.183594 20.640625 L 16.175781 20.691406 C 16.175781 20.722656 16.175781 20.75 16.183594 20.777344 C 16.195312 20.832031 16.21875 20.882812 16.222656 20.941406 C 16.238281 21.054688 16.234375 21.179688 16.265625 21.285156 C 16.28125 21.339844 16.300781 21.390625 16.332031 21.441406 L 16.425781 21.582031 C 16.457031 21.628906 16.488281 21.679688 16.53125 21.722656 C 16.550781 21.742188 16.574219 21.761719 16.601562 21.78125 L 16.644531 21.8125 C 16.652344 21.824219 16.6875 21.824219 16.816406 21.789062 C 16.929688 21.726562 16.957031 21.703125 16.953125 21.6875 L 16.964844 21.636719 C 16.96875 21.605469 16.972656 21.574219 16.972656 21.542969 C 16.972656 21.484375 16.960938 21.429688 16.953125 21.371094 Z M 16.308594 20.019531 C 16.28125 19.921875 16.257812 19.820312 16.226562 19.722656 C 16.164062 19.527344 16.089844 19.339844 16.019531 19.148438 C 15.960938 18.992188 15.902344 18.839844 15.84375 18.683594 C 15.828125 18.648438 15.816406 18.613281 15.800781 18.578125 C 15.785156 18.535156 15.765625 18.496094 15.75 18.453125 C 15.714844 18.375 15.683594 18.296875 15.644531 18.222656 C 15.617188 18.15625 15.585938 18.089844 15.554688 18.027344 C 15.375 17.660156 15.167969 17.3125 14.976562 16.957031 C 14.917969 16.851562 14.863281 16.746094 14.8125 16.640625 C 14.773438 16.566406 14.738281 16.488281 14.699219 16.414062 C 14.695312 16.410156 14.695312 16.40625 14.691406 16.40625 C 14.652344 16.324219 14.605469 16.246094 14.558594 16.167969 C 14.554688 16.164062 14.550781 16.15625 14.546875 16.152344 L 14.460938 16.023438 C 14.433594 15.980469 14.386719 15.945312 14.273438 15.945312 C 14.203125 16.035156 14.199219 16.089844 14.214844 16.140625 L 14.226562 16.175781 L 14.257812 16.285156 C 14.273438 16.328125 14.289062 16.371094 14.304688 16.414062 C 14.324219 16.464844 14.34375 16.519531 14.367188 16.570312 C 14.375 16.59375 14.386719 16.621094 14.398438 16.648438 C 14.46875 16.808594 14.539062 16.964844 14.601562 17.125 C 14.75 17.5 14.878906 17.878906 15.035156 18.246094 C 15.035156 18.25 15.039062 18.253906 15.039062 18.257812 C 15.070312 18.332031 15.101562 18.402344 15.132812 18.476562 C 15.167969 18.554688 15.207031 18.628906 15.242188 18.707031 C 15.257812 18.738281 15.273438 18.773438 15.289062 18.808594 L 15.5625 19.347656 C 15.65625 19.527344 15.742188 19.707031 15.835938 19.882812 C 15.886719 19.972656 15.933594 20.058594 15.988281 20.148438 L 16.066406 20.277344 C 16.089844 20.320312 16.128906 20.359375 16.257812 20.367188 C 16.347656 20.277344 16.355469 20.21875 16.339844 20.171875 Z M 13.097656 17.3125 L 13.039062 17.292969 C 13 17.28125 12.964844 17.269531 12.925781 17.265625 C 12.855469 17.253906 12.789062 17.257812 12.71875 17.257812 C 12.714844 17.257812 12.714844 17.257812 12.710938 17.257812 L 12.496094 17.261719 C 12.46875 17.261719 12.4375 17.265625 12.410156 17.269531 C 12.371094 17.277344 12.328125 17.285156 12.289062 17.300781 C 12.234375 17.3125 12.179688 17.335938 12.128906 17.363281 C 12.050781 17.398438 11.972656 17.441406 11.894531 17.476562 C 11.828125 17.507812 11.761719 17.519531 11.691406 17.542969 C 11.660156 17.554688 11.628906 17.570312 11.597656 17.59375 L 11.550781 17.628906 C 11.542969 17.636719 11.535156 17.648438 11.53125 17.675781 L 11.527344 17.726562 L 11.53125 17.808594 L 11.558594 17.882812 L 11.582031 17.929688 C 11.597656 17.953125 11.605469 17.964844 11.617188 17.964844 L 11.671875 17.984375 C 11.710938 17.992188 11.746094 17.996094 11.78125 17.992188 C 11.855469 17.988281 11.921875 17.976562 11.996094 17.980469 C 12.085938 17.980469 12.183594 17.992188 12.273438 17.996094 C 12.328125 18 12.378906 18 12.425781 17.992188 C 12.476562 17.988281 12.527344 17.980469 12.574219 17.96875 C 12.59375 17.960938 12.613281 17.957031 12.632812 17.949219 L 12.832031 17.871094 C 12.839844 17.867188 12.847656 17.863281 12.855469 17.859375 C 12.914062 17.839844 12.972656 17.816406 13.03125 17.78125 C 13.0625 17.765625 13.09375 17.742188 13.125 17.714844 L 13.167969 17.675781 C 13.183594 17.667969 13.195312 17.628906 13.183594 17.484375 C 13.140625 17.34375 13.113281 17.3125 13.097656 17.3125 Z M 16.683594 1.3125 C 16.625 1.203125 16.585938 1.1875 16.550781 1.191406 L 16.441406 1.195312 C 16.371094 1.199219 16.300781 1.203125 16.230469 1.222656 C 16.164062 1.238281 16.09375 1.257812 16.027344 1.277344 C 15.960938 1.300781 15.894531 1.328125 15.828125 1.355469 C 15.695312 1.40625 15.570312 1.472656 15.441406 1.539062 C 15.320312 1.609375 15.203125 1.695312 15.101562 1.792969 C 14.886719 1.980469 14.71875 2.210938 14.570312 2.445312 C 14.53125 2.503906 14.496094 2.5625 14.457031 2.617188 C 14.417969 2.675781 14.378906 2.730469 14.347656 2.792969 C 14.3125 2.851562 14.285156 2.914062 14.261719 2.980469 C 14.25 3.015625 14.242188 3.050781 14.230469 3.085938 C 14.226562 3.101562 14.226562 3.121094 14.238281 3.144531 C 14.25 3.167969 14.273438 3.203125 14.316406 3.238281 C 14.425781 3.253906 14.464844 3.238281 14.484375 3.214844 L 14.550781 3.144531 C 14.59375 3.097656 14.632812 3.050781 14.671875 3 L 14.78125 2.851562 C 14.824219 2.800781 14.863281 2.753906 14.90625 2.710938 C 15.082031 2.53125 15.289062 2.386719 15.480469 2.242188 C 15.675781 2.101562 15.855469 1.941406 16.066406 1.816406 C 16.117188 1.785156 16.167969 1.75 16.222656 1.722656 C 16.277344 1.695312 16.332031 1.667969 16.382812 1.632812 C 16.4375 1.601562 16.492188 1.570312 16.546875 1.539062 L 16.628906 1.488281 C 16.660156 1.472656 16.683594 1.441406 16.683594 1.3125 Z M 30.417969 7.996094 C 30.429688 8.007812 30.4375 8.019531 30.449219 8.03125 C 30.480469 8.058594 30.515625 8.085938 30.554688 8.109375 C 30.625 8.148438 30.707031 8.179688 30.78125 8.222656 C 30.933594 8.304688 31.097656 8.394531 31.285156 8.417969 C 31.332031 8.425781 31.382812 8.425781 31.429688 8.429688 C 31.453125 8.429688 31.476562 8.429688 31.503906 8.429688 C 31.527344 8.425781 31.550781 8.421875 31.578125 8.414062 C 31.671875 8.398438 31.769531 8.363281 31.863281 8.328125 C 31.953125 8.277344 32.042969 8.234375 32.113281 8.160156 C 32.152344 8.125 32.183594 8.085938 32.207031 8.042969 L 32.238281 7.976562 C 32.253906 7.957031 32.25 7.917969 32.175781 7.824219 C 32.070312 7.753906 32.039062 7.742188 32.023438 7.75 L 31.96875 7.761719 C 31.9375 7.773438 31.902344 7.777344 31.871094 7.785156 C 31.8125 7.804688 31.753906 7.8125 31.699219 7.824219 C 31.640625 7.828125 31.582031 7.832031 31.523438 7.824219 C 31.507812 7.820312 31.492188 7.824219 31.476562 7.824219 C 31.464844 7.820312 31.449219 7.820312 31.433594 7.820312 C 31.402344 7.820312 31.371094 7.824219 31.339844 7.820312 C 31.214844 7.824219 31.070312 7.832031 30.925781 7.8125 C 30.851562 7.804688 30.785156 7.777344 30.714844 7.753906 C 30.679688 7.742188 30.644531 7.734375 30.605469 7.730469 C 30.585938 7.726562 30.566406 7.726562 30.542969 7.726562 C 30.535156 7.722656 30.523438 7.730469 30.503906 7.742188 L 30.46875 7.773438 L 30.433594 7.8125 L 30.421875 7.824219 C 30.414062 7.84375 30.40625 7.871094 30.402344 7.890625 L 30.394531 7.933594 C 30.394531 7.957031 30.398438 7.972656 30.40625 7.980469 C 30.410156 7.984375 30.414062 7.992188 30.417969 7.996094 Z M 26.871094 6.160156 C 26.910156 6.191406 26.949219 6.222656 26.988281 6.246094 C 27.070312 6.296875 27.15625 6.339844 27.238281 6.390625 C 27.402344 6.496094 27.566406 6.609375 27.75 6.683594 C 27.839844 6.722656 27.933594 6.757812 28.03125 6.777344 C 28.128906 6.796875 28.230469 6.808594 28.332031 6.820312 C 28.382812 6.828125 28.433594 6.828125 28.484375 6.832031 C 28.535156 6.835938 28.585938 6.835938 28.640625 6.832031 C 28.691406 6.824219 28.742188 6.820312 28.796875 6.804688 L 28.875 6.78125 C 28.898438 6.777344 28.925781 6.746094 28.941406 6.632812 C 28.914062 6.519531 28.890625 6.488281 28.871094 6.484375 L 28.808594 6.460938 C 28.765625 6.445312 28.722656 6.425781 28.683594 6.414062 L 28.4375 6.335938 L 28.3125 6.289062 C 28.273438 6.273438 28.234375 6.253906 28.191406 6.238281 C 28.109375 6.207031 28.027344 6.179688 27.941406 6.15625 C 27.769531 6.105469 27.589844 6.074219 27.410156 6.019531 C 27.324219 5.996094 27.242188 5.957031 27.15625 5.921875 C 27.113281 5.902344 27.070312 5.890625 27.023438 5.878906 C 27 5.875 26.976562 5.871094 26.953125 5.867188 C 26.941406 5.863281 26.925781 5.867188 26.90625 5.878906 L 26.871094 5.90625 L 26.824219 5.953125 C 26.820312 5.972656 26.8125 5.996094 26.808594 6.015625 L 26.804688 6.058594 C 26.804688 6.082031 26.8125 6.097656 26.820312 6.105469 C 26.835938 6.125 26.855469 6.140625 26.871094 6.160156 Z M 17.761719 5.101562 C 17.816406 5.132812 17.871094 5.160156 17.929688 5.191406 C 18.042969 5.246094 18.15625 5.296875 18.273438 5.335938 C 18.390625 5.378906 18.511719 5.414062 18.632812 5.449219 C 18.75 5.484375 18.871094 5.515625 18.992188 5.546875 C 19.46875 5.683594 19.960938 5.789062 20.457031 5.839844 C 20.957031 5.886719 21.457031 5.867188 21.953125 5.8125 L 22.136719 5.792969 L 22.324219 5.769531 C 22.445312 5.75 22.570312 5.730469 22.691406 5.710938 C 22.8125 5.6875 22.933594 5.652344 23.050781 5.621094 L 23.230469 5.566406 C 23.292969 5.554688 23.347656 5.519531 23.386719 5.394531 C 23.304688 5.289062 23.242188 5.269531 23.183594 5.273438 L 23 5.277344 C 22.878906 5.277344 22.761719 5.289062 22.640625 5.289062 C 22.519531 5.292969 22.398438 5.296875 22.28125 5.304688 L 22.101562 5.3125 L 21.921875 5.3125 L 21.566406 5.316406 L 21.210938 5.300781 C 21.089844 5.296875 20.972656 5.296875 20.855469 5.289062 L 20.5 5.273438 C 20.027344 5.25 19.550781 5.222656 19.082031 5.148438 L 18.90625 5.117188 L 18.730469 5.074219 C 18.613281 5.050781 18.5 5.015625 18.386719 4.984375 C 18.273438 4.953125 18.15625 4.921875 18.042969 4.894531 C 17.984375 4.878906 17.925781 4.867188 17.871094 4.847656 C 17.8125 4.832031 17.75 4.835938 17.648438 4.902344 C 17.660156 5.019531 17.707031 5.070312 17.761719 5.101562 Z M 14.398438 5.671875 L 14.324219 5.683594 C 14.273438 5.6875 14.226562 5.699219 14.179688 5.707031 C 14.132812 5.710938 14.089844 5.71875 14.042969 5.730469 L 13.976562 5.746094 L 13.910156 5.753906 L 13.777344 5.773438 C 13.730469 5.777344 13.6875 5.773438 13.640625 5.777344 C 13.597656 5.78125 13.554688 5.785156 13.511719 5.785156 C 13.46875 5.785156 13.425781 5.792969 13.382812 5.792969 C 13.207031 5.800781 13.03125 5.808594 12.851562 5.773438 C 12.761719 5.761719 12.675781 5.722656 12.59375 5.6875 C 12.550781 5.671875 12.507812 5.65625 12.464844 5.640625 L 12.398438 5.621094 C 12.375 5.613281 12.34375 5.621094 12.261719 5.679688 C 12.242188 5.722656 12.234375 5.757812 12.234375 5.777344 C 12.230469 5.800781 12.238281 5.816406 12.246094 5.828125 C 12.265625 5.847656 12.285156 5.871094 12.304688 5.890625 C 12.34375 5.929688 12.386719 5.960938 12.433594 5.992188 C 12.527344 6.046875 12.628906 6.089844 12.730469 6.136719 C 12.929688 6.226562 13.144531 6.304688 13.371094 6.316406 C 13.597656 6.332031 13.824219 6.28125 14.027344 6.203125 C 14.054688 6.195312 14.078125 6.1875 14.105469 6.175781 L 14.179688 6.144531 C 14.230469 6.121094 14.277344 6.097656 14.324219 6.070312 C 14.371094 6.042969 14.414062 6.007812 14.457031 5.972656 L 14.519531 5.921875 C 14.539062 5.90625 14.554688 5.871094 14.527344 5.765625 C 14.453125 5.679688 14.421875 5.667969 14.398438 5.671875 Z M 9.113281 7.355469 C 9.167969 7.496094 9.25 7.632812 9.363281 7.742188 C 9.472656 7.851562 9.617188 7.9375 9.765625 7.972656 C 9.910156 8.011719 10.0625 8.015625 10.199219 8.003906 C 10.324219 7.992188 10.441406 7.96875 10.554688 7.929688 C 10.570312 7.925781 10.585938 7.921875 10.597656 7.914062 C 10.660156 7.890625 10.722656 7.859375 10.78125 7.828125 L 10.863281 7.773438 C 10.894531 7.757812 10.917969 7.722656 10.914062 7.605469 C 10.875 7.546875 10.847656 7.515625 10.824219 7.503906 C 10.808594 7.496094 10.796875 7.496094 10.789062 7.496094 L 10.699219 7.5 C 10.664062 7.503906 10.632812 7.503906 10.597656 7.503906 C 10.574219 7.503906 10.550781 7.507812 10.527344 7.507812 C 10.417969 7.511719 10.308594 7.523438 10.207031 7.511719 C 10.105469 7.503906 10.015625 7.480469 9.9375 7.445312 C 9.855469 7.40625 9.785156 7.371094 9.71875 7.316406 C 9.585938 7.214844 9.460938 7.046875 9.386719 6.832031 C 9.351562 6.726562 9.335938 6.609375 9.320312 6.496094 C 9.3125 6.4375 9.304688 6.378906 9.292969 6.320312 L 9.273438 6.230469 C 9.269531 6.199219 9.246094 6.171875 9.152344 6.132812 C 9.050781 6.160156 9.027344 6.195312 9.015625 6.226562 C 9.007812 6.261719 9 6.292969 8.996094 6.328125 C 8.980469 6.394531 8.976562 6.460938 8.976562 6.53125 C 8.976562 6.667969 8.996094 6.800781 9.011719 6.9375 C 9.03125 7.078125 9.0625 7.21875 9.113281 7.355469 Z M 21.84375 13.394531 C 21.828125 13.347656 21.808594 13.304688 21.777344 13.261719 C 21.722656 13.179688 21.644531 13.113281 21.570312 13.066406 C 21.488281 13.019531 21.410156 12.988281 21.328125 12.96875 C 21.25 12.949219 21.179688 12.921875 21.105469 12.910156 C 21.066406 12.902344 21.027344 12.90625 20.988281 12.910156 C 20.96875 12.914062 20.949219 12.917969 20.933594 12.921875 C 20.921875 12.925781 20.910156 12.933594 20.898438 12.953125 L 20.882812 12.992188 C 20.875 13.011719 20.871094 13.035156 20.863281 13.054688 C 20.867188 13.078125 20.871094 13.101562 20.871094 13.121094 L 20.878906 13.164062 C 20.882812 13.183594 20.886719 13.195312 20.894531 13.199219 C 20.90625 13.210938 20.921875 13.21875 20.933594 13.226562 C 20.957031 13.246094 20.984375 13.257812 21.007812 13.269531 C 21.058594 13.292969 21.109375 13.308594 21.148438 13.34375 C 21.230469 13.410156 21.261719 13.5 21.277344 13.550781 C 21.285156 13.566406 21.289062 13.582031 21.292969 13.597656 C 21.296875 13.601562 21.300781 13.609375 21.304688 13.617188 C 21.308594 13.625 21.308594 13.632812 21.3125 13.640625 C 21.316406 13.65625 21.332031 13.671875 21.335938 13.695312 L 21.347656 13.761719 C 21.355469 13.804688 21.347656 13.859375 21.359375 13.914062 C 21.359375 13.941406 21.363281 13.972656 21.367188 14.007812 L 21.378906 14.054688 C 21.378906 14.070312 21.398438 14.09375 21.503906 14.15625 C 21.617188 14.183594 21.648438 14.175781 21.660156 14.164062 L 21.703125 14.121094 C 21.726562 14.089844 21.753906 14.0625 21.773438 14.03125 C 21.808594 13.957031 21.839844 13.886719 21.855469 13.804688 L 21.875 13.675781 C 21.882812 13.632812 21.878906 13.582031 21.875 13.535156 C 21.875 13.511719 21.875 13.488281 21.867188 13.464844 C 21.859375 13.441406 21.851562 13.417969 21.84375 13.394531 Z M 15.605469 26.515625 L 15.539062 26.546875 C 15.496094 26.570312 15.453125 26.59375 15.417969 26.621094 C 15.34375 26.679688 15.277344 26.742188 15.21875 26.808594 C 15.089844 26.945312 14.960938 27.085938 14.890625 27.261719 C 14.816406 27.433594 14.785156 27.621094 14.757812 27.808594 C 14.742188 27.898438 14.71875 27.988281 14.707031 28.082031 C 14.699219 28.128906 14.703125 28.175781 14.710938 28.222656 C 14.714844 28.25 14.71875 28.273438 14.726562 28.296875 C 14.726562 28.308594 14.738281 28.320312 14.761719 28.335938 L 14.804688 28.355469 C 14.824219 28.363281 14.851562 28.371094 14.875 28.375 C 14.898438 28.371094 14.925781 28.367188 14.949219 28.363281 L 14.992188 28.351562 C 15.015625 28.34375 15.027344 28.335938 15.03125 28.328125 C 15.042969 28.308594 15.054688 28.292969 15.066406 28.273438 C 15.085938 28.238281 15.101562 28.203125 15.113281 28.167969 C 15.136719 28.09375 15.15625 28.015625 15.195312 27.949219 C 15.273438 27.808594 15.378906 27.683594 15.457031 27.554688 C 15.503906 27.488281 15.539062 27.421875 15.574219 27.351562 C 15.605469 27.28125 15.636719 27.207031 15.675781 27.136719 C 15.710938 27.066406 15.753906 27 15.785156 26.921875 C 15.804688 26.882812 15.820312 26.84375 15.832031 26.800781 L 15.851562 26.738281 C 15.863281 26.71875 15.851562 26.683594 15.769531 26.578125 C 15.660156 26.507812 15.621094 26.503906 15.605469 26.515625 Z M 32.117188 32.277344 L 32.019531 32.265625 C 31.953125 32.257812 31.890625 32.253906 31.828125 32.257812 C 31.703125 32.265625 31.578125 32.289062 31.457031 32.316406 C 31.335938 32.34375 31.214844 32.375 31.097656 32.410156 C 30.976562 32.453125 30.863281 32.503906 30.757812 32.570312 C 30.542969 32.695312 30.363281 32.871094 30.183594 33.039062 C 30.097656 33.125 29.996094 33.195312 29.910156 33.277344 C 29.863281 33.320312 29.824219 33.367188 29.789062 33.421875 C 29.773438 33.449219 29.757812 33.476562 29.742188 33.503906 C 29.734375 33.519531 29.730469 33.539062 29.738281 33.570312 C 29.746094 33.601562 29.769531 33.648438 29.808594 33.707031 C 29.871094 33.75 29.914062 33.777344 29.941406 33.785156 C 29.972656 33.800781 29.992188 33.800781 30.003906 33.792969 C 30.03125 33.785156 30.058594 33.777344 30.085938 33.765625 C 30.140625 33.742188 30.1875 33.71875 30.234375 33.6875 C 30.328125 33.632812 30.414062 33.566406 30.515625 33.519531 C 30.71875 33.425781 30.933594 33.367188 31.128906 33.285156 C 31.226562 33.238281 31.328125 33.199219 31.417969 33.144531 C 31.511719 33.09375 31.601562 33.03125 31.699219 32.984375 C 31.796875 32.933594 31.894531 32.890625 31.992188 32.835938 C 32.039062 32.804688 32.085938 32.777344 32.132812 32.742188 L 32.207031 32.691406 C 32.230469 32.675781 32.25 32.632812 32.246094 32.464844 C 32.183594 32.308594 32.148438 32.28125 32.117188 32.277344 Z M 9.5 31.671875 C 9.453125 31.660156 9.402344 31.652344 9.355469 31.644531 C 9.257812 31.628906 9.160156 31.628906 9.0625 31.632812 C 8.964844 31.644531 8.867188 31.652344 8.773438 31.679688 C 8.726562 31.691406 8.679688 31.703125 8.632812 31.71875 L 8.496094 31.765625 C 8.449219 31.785156 8.402344 31.800781 8.359375 31.820312 L 8.226562 31.878906 L 8.089844 31.941406 C 8.050781 31.96875 8.007812 31.992188 7.964844 32.019531 C 7.882812 32.070312 7.796875 32.125 7.730469 32.191406 C 7.660156 32.257812 7.582031 32.324219 7.523438 32.398438 C 7.460938 32.472656 7.402344 32.550781 7.347656 32.628906 C 7.292969 32.703125 7.253906 32.789062 7.207031 32.875 C 7.113281 33.039062 7.054688 33.214844 6.984375 33.378906 C 6.964844 33.421875 6.949219 33.464844 6.9375 33.507812 L 6.890625 33.632812 C 6.859375 33.714844 6.820312 33.796875 6.792969 33.882812 C 6.769531 33.96875 6.757812 34.054688 6.75 34.144531 C 6.746094 34.1875 6.742188 34.234375 6.742188 34.28125 C 6.742188 34.300781 6.75 34.328125 6.777344 34.355469 C 6.800781 34.386719 6.847656 34.421875 6.921875 34.464844 C 7.011719 34.46875 7.070312 34.464844 7.109375 34.457031 C 7.148438 34.445312 7.167969 34.433594 7.179688 34.414062 C 7.207031 34.378906 7.230469 34.347656 7.253906 34.3125 C 7.300781 34.246094 7.335938 34.175781 7.367188 34.101562 C 7.445312 33.96875 7.5 33.820312 7.59375 33.695312 C 7.691406 33.574219 7.777344 33.449219 7.894531 33.351562 C 7.945312 33.300781 7.992188 33.242188 8.046875 33.195312 C 8.101562 33.148438 8.15625 33.101562 8.207031 33.050781 C 8.257812 33 8.316406 32.960938 8.363281 32.914062 C 8.414062 32.863281 8.46875 32.820312 8.519531 32.777344 C 8.546875 32.753906 8.570312 32.730469 8.597656 32.703125 L 8.679688 32.640625 L 8.761719 32.574219 C 8.789062 32.554688 8.820312 32.535156 8.851562 32.519531 L 8.941406 32.460938 C 8.972656 32.445312 9.003906 32.429688 9.035156 32.414062 C 9.097656 32.378906 9.164062 32.351562 9.226562 32.316406 L 9.429688 32.214844 C 9.460938 32.195312 9.496094 32.179688 9.53125 32.164062 C 9.570312 32.152344 9.59375 32.109375 9.640625 31.914062 C 9.605469 31.71875 9.546875 31.675781 9.5 31.671875 Z M 18.171875 16.023438 C 17.992188 15.957031 17.78125 15.910156 17.582031 15.910156 C 17.371094 15.910156 17.167969 15.960938 17.023438 16.078125 C 16.875 16.203125 16.800781 16.394531 16.800781 16.648438 C 16.800781 16.707031 16.808594 16.773438 16.816406 16.839844 C 16.820312 16.867188 16.824219 16.890625 16.828125 16.917969 C 16.835938 16.957031 16.84375 16.992188 16.855469 17.03125 C 16.96875 17.421875 17.300781 17.863281 17.796875 18.246094 C 17.890625 18.316406 17.988281 18.386719 18.09375 18.453125 C 18.109375 18.464844 18.128906 18.476562 18.148438 18.488281 L 18.15625 18.457031 L 18.1875 18.273438 L 18.238281 18 L 18.332031 17.5 L 18.578125 16.171875 C 18.445312 16.125 18.3125 16.078125 18.171875 16.023438 Z M 20.773438 16.671875 L 20.671875 19.160156 C 21.152344 19.144531 21.804688 19.015625 22.425781 18.75 L 22.242188 16.554688 C 21.820312 16.660156 21.347656 16.714844 20.773438 16.671875 Z M 24.148438 17.199219 C 24.3125 16.800781 24.3125 16.445312 24.140625 16.273438 C 23.957031 16.089844 23.570312 16.097656 23.046875 16.296875 C 22.878906 16.359375 22.714844 16.421875 22.539062 16.472656 L 22.714844 18.613281 C 23.335938 18.300781 23.886719 17.835938 24.148438 17.199219 Z M 18.578125 17.824219 L 18.53125 18.074219 L 18.457031 18.480469 L 18.425781 18.648438 C 18.441406 18.65625 18.453125 18.660156 18.46875 18.667969 C 19.011719 18.945312 19.660156 19.136719 20.371094 19.160156 L 20.472656 16.640625 C 20.007812 16.585938 19.484375 16.46875 18.867188 16.269531 Z M 28.109375 19.578125 C 28.105469 19.578125 28.101562 19.578125 28.097656 19.578125 C 28.046875 19.617188 28 19.660156 27.949219 19.699219 C 27.796875 19.828125 27.648438 19.964844 27.519531 20.117188 C 27.421875 20.21875 27.339844 20.339844 27.253906 20.453125 C 27.210938 20.511719 27.175781 20.574219 27.136719 20.632812 L 27.078125 20.722656 L 27.027344 20.816406 C 26.882812 21.066406 26.777344 21.335938 26.695312 21.609375 C 26.652344 21.746094 26.628906 21.886719 26.597656 22.027344 L 26.570312 22.238281 C 26.5625 22.308594 26.5625 22.382812 26.558594 22.453125 C 26.550781 22.738281 26.582031 23.023438 26.667969 23.285156 C 26.753906 23.546875 26.90625 23.785156 27.125 23.9375 C 27.34375 24.089844 27.621094 24.148438 27.902344 24.132812 C 28.042969 24.128906 28.1875 24.105469 28.324219 24.074219 C 28.445312 24.046875 28.570312 24.007812 28.683594 23.960938 C 28.726562 23.660156 28.785156 23.371094 28.855469 23.078125 C 28.929688 22.765625 29.019531 22.460938 29.121094 22.15625 C 29.222656 21.851562 29.34375 21.554688 29.476562 21.261719 C 29.558594 21.085938 29.648438 20.914062 29.75 20.746094 C 29.78125 20.691406 29.8125 20.636719 29.847656 20.582031 C 29.855469 20.570312 29.859375 20.5625 29.867188 20.550781 L 29.402344 20.191406 C 29.398438 20.191406 29.398438 20.1875 29.394531 20.183594 C 29.390625 20.183594 29.390625 20.183594 29.390625 20.179688 C 29.386719 20.179688 29.328125 20.125 29.222656 20.046875 C 29.101562 19.953125 28.914062 19.828125 28.683594 19.730469 C 28.511719 19.65625 28.316406 19.597656 28.109375 19.578125 Z M 30.554688 24.433594 C 30.808594 24.277344 31.027344 24.0625 31.210938 23.8125 C 31.394531 23.566406 31.542969 23.289062 31.664062 23 C 31.789062 22.714844 31.890625 22.410156 31.964844 22.109375 C 31.972656 22 31.96875 21.894531 31.949219 21.792969 C 31.9375 21.738281 31.921875 21.6875 31.902344 21.636719 C 31.886719 21.589844 31.863281 21.542969 31.839844 21.5 C 31.816406 21.460938 31.785156 21.421875 31.757812 21.382812 C 31.65625 21.257812 31.523438 21.152344 31.378906 21.066406 C 31.1875 20.957031 30.976562 20.875 30.757812 20.8125 C 30.582031 20.765625 30.390625 20.726562 30.210938 20.707031 C 30.203125 20.71875 30.195312 20.730469 30.1875 20.742188 C 30.148438 20.792969 30.113281 20.847656 30.082031 20.902344 C 29.976562 21.066406 29.878906 21.238281 29.789062 21.410156 C 29.648438 21.6875 29.519531 21.96875 29.410156 22.261719 C 29.300781 22.550781 29.203125 22.847656 29.113281 23.144531 C 29.023438 23.441406 28.949219 23.742188 28.882812 24.042969 C 28.902344 24.144531 28.917969 24.242188 28.96875 24.320312 C 29.015625 24.398438 29.078125 24.46875 29.160156 24.519531 C 29.242188 24.570312 29.335938 24.605469 29.433594 24.628906 C 29.460938 24.636719 29.484375 24.640625 29.511719 24.644531 C 29.535156 24.652344 29.5625 24.65625 29.585938 24.660156 C 29.632812 24.664062 29.6875 24.667969 29.726562 24.667969 C 29.871094 24.664062 30.015625 24.644531 30.15625 24.605469 C 30.292969 24.566406 30.429688 24.507812 30.554688 24.433594 Z M 28.726562 24.429688 C 28.691406 24.355469 28.675781 24.273438 28.671875 24.195312 C 28.578125 24.230469 28.480469 24.265625 28.382812 24.292969 C 28.230469 24.332031 28.074219 24.363281 27.917969 24.375 C 27.601562 24.398438 27.257812 24.34375 26.972656 24.15625 C 26.832031 24.066406 26.714844 23.945312 26.617188 23.808594 C 26.523438 23.675781 26.453125 23.53125 26.398438 23.378906 C 26.289062 23.074219 26.253906 22.757812 26.253906 22.445312 C 26.257812 22.367188 26.257812 22.289062 26.265625 22.210938 L 26.289062 21.980469 C 26.316406 21.828125 26.339844 21.671875 26.382812 21.523438 C 26.464844 21.222656 26.578125 20.929688 26.726562 20.65625 L 26.777344 20.554688 L 26.839844 20.453125 C 26.882812 20.386719 26.921875 20.320312 26.964844 20.253906 C 27.058594 20.128906 27.144531 20 27.25 19.882812 C 27.367188 19.734375 27.503906 19.601562 27.644531 19.472656 C 27.695312 19.429688 27.742188 19.386719 27.789062 19.347656 C 27.804688 19.335938 27.820312 19.324219 27.832031 19.3125 C 27.820312 19.257812 27.804688 19.1875 27.78125 19.101562 C 27.71875 18.886719 27.613281 18.597656 27.433594 18.328125 C 27.386719 18.261719 27.335938 18.199219 27.28125 18.136719 C 27.234375 18.082031 27.179688 18.027344 27.125 17.980469 C 27.085938 17.945312 27.042969 17.914062 27 17.882812 C 26.863281 17.789062 26.710938 17.722656 26.546875 17.683594 C 26.476562 17.664062 26.402344 17.65625 26.324219 17.648438 C 26.257812 17.640625 26.191406 17.640625 26.117188 17.640625 C 25.980469 17.644531 25.835938 17.660156 25.683594 17.695312 C 25.320312 17.777344 24.796875 18.078125 24.476562 19.722656 C 24.390625 20.160156 24.398438 20.773438 24.707031 21.058594 C 24.785156 21.132812 24.882812 21.183594 24.996094 21.210938 C 25.058594 21.226562 25.121094 21.234375 25.191406 21.234375 C 25.257812 21.238281 25.328125 21.234375 25.402344 21.226562 C 25.496094 21.214844 25.597656 21.199219 25.703125 21.171875 C 25.710938 21.167969 25.726562 21.160156 25.738281 21.15625 C 25.757812 21.148438 25.773438 21.136719 25.792969 21.128906 C 25.824219 21.109375 25.859375 21.089844 25.894531 21.0625 C 25.960938 21.015625 26.023438 20.957031 26.082031 20.894531 C 26.199219 20.769531 26.292969 20.617188 26.371094 20.453125 C 26.425781 20.335938 26.46875 20.210938 26.503906 20.082031 C 26.515625 20.035156 26.53125 19.984375 26.542969 19.933594 L 26.550781 19.894531 L 26.589844 19.6875 L 26.59375 19.660156 C 26.605469 19.566406 26.617188 19.476562 26.628906 19.382812 L 26.632812 19.375 C 26.640625 19.316406 26.691406 19.277344 26.75 19.285156 C 26.773438 19.289062 26.792969 19.300781 26.808594 19.316406 C 26.828125 19.335938 26.839844 19.359375 26.839844 19.386719 C 26.839844 19.488281 26.835938 19.585938 26.835938 19.683594 C 26.835938 19.6875 26.835938 19.6875 26.835938 19.691406 C 26.828125 19.789062 26.816406 19.886719 26.804688 19.984375 C 26.804688 19.988281 26.804688 19.992188 26.804688 20 C 26.769531 20.191406 26.726562 20.382812 26.652344 20.570312 C 26.578125 20.761719 26.480469 20.949219 26.34375 21.117188 C 26.277344 21.199219 26.203125 21.277344 26.117188 21.347656 C 26.074219 21.382812 26.027344 21.414062 25.980469 21.445312 C 25.953125 21.460938 25.929688 21.476562 25.90625 21.488281 C 25.894531 21.492188 25.882812 21.5 25.871094 21.503906 C 25.832031 21.5625 25.734375 21.738281 25.753906 22.066406 C 25.757812 22.167969 25.683594 22.257812 25.582031 22.265625 C 25.574219 22.265625 25.269531 22.296875 24.898438 22.402344 C 24.882812 22.410156 24.867188 22.414062 24.851562 22.417969 C 24.789062 22.4375 24.726562 22.457031 24.660156 22.484375 C 24.59375 22.507812 24.53125 22.535156 24.464844 22.5625 C 24.449219 22.570312 24.429688 22.578125 24.414062 22.585938 C 23.945312 22.808594 23.507812 23.175781 23.5 23.78125 C 23.496094 24.003906 23.53125 24.230469 23.675781 24.429688 C 23.683594 24.441406 23.695312 24.449219 23.703125 24.460938 C 23.734375 24.503906 23.773438 24.542969 23.820312 24.582031 C 23.855469 24.613281 23.898438 24.644531 23.945312 24.671875 C 23.957031 24.679688 23.964844 24.6875 23.976562 24.695312 C 24.222656 24.839844 24.585938 24.953125 25.128906 25.011719 C 25.359375 25.035156 25.902344 25.09375 26.15625 24.863281 C 26.253906 24.777344 26.300781 24.652344 26.304688 24.480469 C 26.304688 24.476562 26.304688 24.472656 26.304688 24.46875 C 26.3125 24.273438 26.292969 24.082031 26.242188 23.894531 C 26.214844 23.804688 26.179688 23.714844 26.136719 23.628906 C 26.09375 23.542969 26.039062 23.460938 25.980469 23.382812 C 25.859375 23.230469 25.707031 23.097656 25.539062 22.988281 C 25.375 22.875 25.183594 22.78125 25 22.71875 L 24.992188 22.714844 C 24.9375 22.695312 24.910156 22.636719 24.929688 22.582031 C 24.945312 22.535156 24.996094 22.507812 25.046875 22.515625 C 25.277344 22.5625 25.480469 22.648438 25.679688 22.757812 C 25.878906 22.871094 26.0625 23.015625 26.214844 23.1875 C 26.292969 23.277344 26.363281 23.371094 26.421875 23.472656 C 26.480469 23.574219 26.53125 23.679688 26.570312 23.789062 C 26.636719 23.972656 26.667969 24.164062 26.675781 24.355469 C 26.992188 24.5 28.019531 24.929688 29.054688 24.820312 C 29.027344 24.800781 29.003906 24.785156 28.976562 24.765625 C 28.871094 24.679688 28.777344 24.5625 28.726562 24.429688 Z M 32.449219 21.675781 C 32.429688 21.582031 32.40625 21.488281 32.375 21.398438 C 32.347656 21.316406 32.308594 21.230469 32.269531 21.152344 C 32.210938 21.039062 32.144531 20.929688 32.0625 20.828125 C 31.632812 20.316406 30.933594 20.097656 29.972656 20.179688 L 30.160156 20.332031 C 30.179688 20.339844 30.199219 20.347656 30.21875 20.355469 C 30.21875 20.359375 30.21875 20.359375 30.21875 20.359375 C 30.4375 20.394531 30.644531 20.441406 30.851562 20.507812 C 31.089844 20.585938 31.320312 20.683594 31.53125 20.820312 C 31.710938 20.9375 31.878906 21.085938 32 21.269531 C 32.023438 21.304688 32.046875 21.339844 32.066406 21.378906 C 32.085938 21.421875 32.105469 21.464844 32.121094 21.511719 C 32.144531 21.582031 32.164062 21.652344 32.175781 21.726562 C 32.179688 21.734375 32.179688 21.746094 32.183594 21.753906 C 32.199219 21.882812 32.191406 22.015625 32.171875 22.140625 C 32.171875 22.144531 32.171875 22.144531 32.171875 22.144531 C 32.144531 22.3125 32.109375 22.46875 32.066406 22.628906 C 32.023438 22.789062 31.972656 22.945312 31.914062 23.101562 C 31.796875 23.410156 31.652344 23.710938 31.460938 23.988281 C 31.320312 24.199219 31.148438 24.398438 30.945312 24.566406 C 31.472656 24.390625 32.042969 23.984375 32.367188 23.101562 C 32.488281 22.773438 32.5625 22.214844 32.449219 21.675781 Z M 4.460938 20.378906 C 4.519531 21.3125 4.925781 21.355469 5.0625 21.367188 C 5.226562 21.382812 5.355469 21.351562 5.445312 21.269531 C 5.628906 21.109375 5.636719 20.804688 5.636719 20.800781 C 5.636719 20.800781 5.636719 20.800781 5.636719 20.796875 C 5.640625 20.6875 5.640625 20.578125 5.648438 20.464844 L 5.660156 20.128906 C 5.664062 19.949219 5.671875 19.769531 5.683594 19.589844 C 5.25 19.226562 4.738281 19.058594 4.457031 18.992188 C 4.449219 19.363281 4.441406 20.089844 4.460938 20.378906 Z M 11.425781 19.050781 C 10.894531 19.050781 10.527344 18.796875 10.429688 18.347656 C 10.320312 17.859375 10.582031 17.304688 10.992188 17.160156 C 11.308594 17.050781 11.632812 16.960938 11.957031 16.882812 C 11.632812 16.375 11.140625 16.183594 10.515625 16.332031 C 10.054688 16.441406 9.738281 16.816406 9.738281 16.820312 C 9.734375 16.820312 9.734375 16.820312 9.734375 16.824219 C 9.726562 16.832031 9.722656 16.835938 9.714844 16.84375 C 9.714844 16.839844 9.707031 16.851562 9.699219 16.855469 C 9.691406 16.863281 9.683594 16.871094 9.679688 16.878906 C 9.664062 16.894531 9.648438 16.910156 9.636719 16.929688 C 9.609375 16.96875 9.582031 17.007812 9.558594 17.050781 C 9.511719 17.136719 9.476562 17.234375 9.449219 17.332031 C 9.421875 17.429688 9.40625 17.535156 9.394531 17.640625 C 9.386719 17.695312 9.386719 17.75 9.382812 17.800781 C 9.382812 17.855469 9.378906 17.910156 9.375 17.964844 L 9.375 17.972656 C 9.371094 18.027344 9.324219 18.074219 9.265625 18.070312 C 9.214844 18.066406 9.175781 18.03125 9.167969 17.984375 C 9.160156 17.925781 9.148438 17.871094 9.140625 17.8125 C 9.132812 17.753906 9.128906 17.691406 9.125 17.632812 C 9.125 17.511719 9.128906 17.390625 9.148438 17.269531 C 9.167969 17.148438 9.199219 17.027344 9.246094 16.910156 C 9.257812 16.882812 9.265625 16.859375 9.28125 16.832031 C 7.265625 16.488281 5.929688 17.183594 5.914062 17.191406 C 5.875 17.214844 5.832031 17.21875 5.789062 17.210938 C 5.25 17.105469 3.746094 16.867188 3.265625 17.023438 C 2.792969 17.175781 2.199219 17.878906 1.957031 18.328125 C 1.675781 18.835938 1.558594 19.285156 1.644531 19.53125 C 1.667969 19.605469 1.710938 19.652344 1.777344 19.679688 C 2.617188 20.03125 3.5 18.59375 3.511719 18.578125 C 3.550781 18.515625 3.625 18.480469 3.699219 18.492188 L 4.296875 18.574219 C 4.324219 18.578125 6.789062 18.960938 6.820312 21.222656 C 6.820312 21.230469 6.820312 21.238281 6.820312 21.246094 C 6.820312 21.25 6.824219 21.257812 6.824219 21.265625 C 6.832031 21.644531 6.789062 21.9375 6.6875 22.214844 C 6.347656 23.128906 6.386719 23.53125 6.476562 23.710938 C 6.523438 23.804688 6.601562 23.863281 6.71875 23.898438 C 7.59375 24.148438 8.414062 22.199219 8.65625 21.425781 C 8.671875 21.367188 8.71875 21.320312 8.78125 21.304688 C 9.714844 21.019531 9.980469 20.296875 10.050781 20.015625 C 10.019531 19.996094 9.984375 19.972656 9.953125 19.949219 C 9.882812 19.894531 9.816406 19.835938 9.757812 19.769531 C 9.695312 19.703125 9.640625 19.628906 9.59375 19.550781 C 9.546875 19.476562 9.515625 19.386719 9.492188 19.300781 C 9.480469 19.246094 9.515625 19.191406 9.570312 19.175781 C 9.613281 19.164062 9.65625 19.183594 9.683594 19.21875 L 9.6875 19.226562 C 9.730469 19.289062 9.765625 19.347656 9.816406 19.398438 C 9.863281 19.453125 9.910156 19.503906 9.96875 19.546875 C 10.027344 19.589844 10.085938 19.628906 10.148438 19.664062 C 10.179688 19.679688 10.210938 19.699219 10.242188 19.710938 C 10.273438 19.726562 10.308594 19.742188 10.332031 19.75 C 11.019531 20.03125 11.542969 20.015625 11.890625 19.703125 C 12.089844 19.523438 12.21875 19.253906 12.285156 18.953125 C 12.058594 18.984375 11.832031 19.015625 11.605469 19.039062 C 11.542969 19.046875 11.484375 19.050781 11.425781 19.050781 Z M 6.421875 20.929688 C 6.304688 20.941406 6.128906 20.921875 6.011719 20.742188 C 6.003906 20.648438 6 20.554688 5.992188 20.460938 L 5.964844 20.121094 C 5.960938 20.03125 5.953125 19.9375 5.945312 19.847656 C 6.179688 20.121094 6.363281 20.472656 6.421875 20.929688 " fill-opacity="1" fill-rule="nonzero"/></g><path fill="#f4e038" d="M 21.558594 20.832031 C 21.617188 20.808594 21.644531 20.746094 21.621094 20.6875 C 21.597656 20.628906 21.53125 20.601562 21.472656 20.625 C 20.398438 21.0625 19.429688 20.632812 19.417969 20.628906 C 19.359375 20.601562 19.292969 20.625 19.265625 20.683594 C 19.242188 20.738281 19.265625 20.804688 19.324219 20.832031 C 19.351562 20.84375 19.808594 21.046875 20.449219 21.046875 C 20.78125 21.046875 21.164062 20.996094 21.558594 20.832031 Z M 20.5625 26.585938 L 20.5625 26.589844 C 20.546875 26.824219 20.527344 27.058594 20.460938 27.265625 C 20.425781 27.363281 20.378906 27.460938 20.320312 27.507812 C 20.292969 27.53125 20.269531 27.542969 20.242188 27.542969 C 20.21875 27.546875 20.175781 27.539062 20.148438 27.523438 C 20.085938 27.5 20.03125 27.425781 19.988281 27.335938 C 19.945312 27.246094 19.917969 27.136719 19.890625 27.027344 C 19.847656 26.804688 19.824219 26.570312 19.804688 26.335938 L 19.804688 26.332031 C 19.800781 26.304688 19.78125 26.277344 19.75 26.273438 C 19.714844 26.265625 19.679688 26.289062 19.671875 26.324219 C 19.671875 26.335938 19.667969 26.347656 19.667969 26.355469 C 19.621094 26.589844 19.605469 26.824219 19.628906 27.066406 C 19.644531 27.195312 19.667969 27.320312 19.71875 27.449219 C 19.746094 27.515625 19.78125 27.578125 19.828125 27.640625 C 19.878906 27.703125 19.941406 27.757812 20.023438 27.796875 C 20.101562 27.832031 20.183594 27.847656 20.28125 27.835938 C 20.375 27.824219 20.460938 27.777344 20.519531 27.71875 C 20.582031 27.660156 20.621094 27.59375 20.652344 27.527344 C 20.679688 27.460938 20.703125 27.398438 20.714844 27.332031 C 20.769531 27.070312 20.746094 26.816406 20.6875 26.578125 C 20.683594 26.550781 20.660156 26.53125 20.628906 26.527344 C 20.59375 26.527344 20.566406 26.550781 20.5625 26.585938 Z M 16.855469 21.433594 C 16.855469 21.390625 16.847656 21.351562 16.839844 21.3125 L 16.820312 21.195312 C 16.8125 21.15625 16.796875 21.117188 16.777344 21.085938 C 16.742188 21.015625 16.679688 20.953125 16.632812 20.886719 C 16.605469 20.855469 16.59375 20.820312 16.570312 20.785156 C 16.5625 20.769531 16.546875 20.75 16.53125 20.738281 L 16.503906 20.714844 C 16.5 20.710938 16.488281 20.710938 16.472656 20.710938 L 16.441406 20.71875 L 16.390625 20.730469 L 16.347656 20.753906 L 16.320312 20.773438 C 16.304688 20.785156 16.300781 20.792969 16.300781 20.796875 L 16.292969 20.832031 C 16.292969 20.851562 16.292969 20.875 16.296875 20.894531 C 16.308594 20.933594 16.324219 20.96875 16.328125 21.007812 C 16.335938 21.089844 16.335938 21.175781 16.359375 21.25 C 16.367188 21.289062 16.382812 21.328125 16.402344 21.359375 L 16.472656 21.460938 C 16.492188 21.492188 16.515625 21.527344 16.542969 21.558594 C 16.558594 21.574219 16.574219 21.589844 16.59375 21.601562 L 16.625 21.621094 C 16.628906 21.628906 16.65625 21.628906 16.742188 21.605469 C 16.824219 21.5625 16.84375 21.542969 16.84375 21.535156 L 16.851562 21.5 C 16.855469 21.476562 16.855469 21.453125 16.855469 21.433594 Z M 16.128906 19.769531 L 16.101562 19.648438 C 16.082031 19.566406 16.0625 19.488281 16.035156 19.410156 C 15.988281 19.253906 15.929688 19.101562 15.871094 18.949219 C 15.824219 18.824219 15.777344 18.703125 15.730469 18.578125 C 15.71875 18.550781 15.707031 18.523438 15.695312 18.496094 C 15.683594 18.460938 15.667969 18.425781 15.652344 18.394531 C 15.628906 18.332031 15.601562 18.269531 15.574219 18.207031 C 15.546875 18.15625 15.523438 18.101562 15.496094 18.050781 C 15.355469 17.757812 15.191406 17.480469 15.035156 17.195312 C 14.988281 17.113281 14.945312 17.027344 14.90625 16.941406 C 14.875 16.882812 14.84375 16.820312 14.8125 16.761719 C 14.8125 16.757812 14.8125 16.757812 14.808594 16.753906 C 14.777344 16.691406 14.738281 16.628906 14.703125 16.566406 C 14.699219 16.5625 14.695312 16.554688 14.691406 16.550781 L 14.625 16.449219 C 14.601562 16.414062 14.566406 16.386719 14.472656 16.386719 C 14.417969 16.457031 14.414062 16.503906 14.425781 16.542969 L 14.4375 16.574219 L 14.460938 16.660156 C 14.472656 16.691406 14.488281 16.726562 14.5 16.761719 C 14.515625 16.804688 14.53125 16.84375 14.546875 16.886719 C 14.558594 16.90625 14.566406 16.929688 14.574219 16.949219 C 14.628906 17.078125 14.6875 17.203125 14.738281 17.332031 C 14.855469 17.628906 14.957031 17.933594 15.082031 18.230469 C 15.085938 18.230469 15.085938 18.234375 15.085938 18.238281 C 15.113281 18.296875 15.136719 18.355469 15.164062 18.414062 C 15.191406 18.472656 15.21875 18.535156 15.25 18.597656 C 15.261719 18.625 15.273438 18.648438 15.289062 18.675781 L 15.507812 19.109375 C 15.578125 19.25 15.648438 19.398438 15.726562 19.539062 C 15.761719 19.609375 15.804688 19.679688 15.84375 19.75 L 15.90625 19.851562 C 15.925781 19.890625 15.960938 19.917969 16.0625 19.921875 C 16.132812 19.855469 16.140625 19.808594 16.128906 19.769531 Z M 16.128906 10.039062 C 16.1875 10.066406 16.253906 10.039062 16.277344 9.980469 C 16.410156 9.679688 16.707031 9.484375 17.042969 9.484375 C 17.378906 9.484375 17.675781 9.683594 17.804688 9.988281 C 17.824219 10.03125 17.867188 10.054688 17.910156 10.054688 C 17.925781 10.054688 17.9375 10.054688 17.953125 10.046875 C 18.011719 10.023438 18.039062 9.957031 18.015625 9.898438 C 17.847656 9.511719 17.46875 9.257812 17.042969 9.257812 C 17.042969 9.257812 17.042969 9.257812 17.039062 9.257812 C 16.617188 9.257812 16.238281 9.507812 16.070312 9.894531 C 16.046875 9.949219 16.074219 10.015625 16.128906 10.039062 Z M 17.351562 12.691406 L 18.339844 12.378906 C 18.230469 11.636719 17.785156 11.09375 17.28125 11.125 C 16.722656 11.160156 16.300781 11.890625 16.339844 12.753906 C 16.382812 13.621094 16.867188 14.296875 17.425781 14.261719 C 17.929688 14.230469 18.320312 13.632812 18.363281 12.882812 Z M 18.824219 22.226562 C 18.816406 22.199219 18.792969 22.179688 18.765625 22.175781 C 18.730469 22.175781 18.699219 22.203125 18.699219 22.238281 C 18.6875 22.503906 18.691406 22.773438 18.652344 23.015625 C 18.632812 23.136719 18.59375 23.25 18.542969 23.285156 C 18.515625 23.304688 18.484375 23.316406 18.4375 23.320312 C 18.386719 23.328125 18.339844 23.324219 18.300781 23.308594 C 18.226562 23.285156 18.160156 23.214844 18.113281 23.117188 C 18.0625 23.015625 18.03125 22.894531 18.007812 22.773438 C 17.964844 22.527344 17.953125 22.261719 17.945312 22 C 17.945312 21.96875 17.925781 21.941406 17.894531 21.9375 C 17.859375 21.925781 17.824219 21.949219 17.816406 21.984375 C 17.75 22.253906 17.722656 22.527344 17.746094 22.808594 C 17.757812 22.949219 17.785156 23.09375 17.84375 23.238281 C 17.875 23.308594 17.921875 23.378906 17.980469 23.445312 C 18.039062 23.507812 18.117188 23.5625 18.207031 23.59375 C 18.296875 23.621094 18.386719 23.625 18.46875 23.617188 C 18.554688 23.605469 18.65625 23.574219 18.734375 23.503906 C 18.808594 23.433594 18.851562 23.347656 18.875 23.273438 C 18.898438 23.195312 18.910156 23.121094 18.914062 23.046875 C 18.929688 22.757812 18.886719 22.492188 18.824219 22.226562 Z M 18.757812 15.914062 C 18.605469 15.863281 18.445312 15.804688 18.28125 15.742188 C 17.863281 15.585938 17.234375 15.515625 16.832031 15.847656 C 16.671875 15.976562 16.503906 16.210938 16.5 16.621094 C 16.5 16.679688 16.503906 16.742188 16.507812 16.8125 C 16.515625 16.863281 16.519531 16.914062 16.53125 16.972656 C 16.53125 16.980469 16.535156 16.992188 16.539062 17.003906 C 16.621094 17.410156 16.898438 17.839844 17.3125 18.222656 C 17.386719 18.289062 17.464844 18.355469 17.546875 18.421875 C 17.632812 18.492188 17.726562 18.558594 17.824219 18.625 C 17.929688 18.695312 18.039062 18.761719 18.152344 18.828125 C 18.171875 18.847656 18.199219 18.863281 18.230469 18.871094 C 18.894531 19.226562 19.695312 19.464844 20.523438 19.464844 C 20.578125 19.464844 20.628906 19.460938 20.683594 19.460938 C 21.851562 19.417969 23.8125 18.8125 24.429688 17.316406 C 24.644531 16.796875 24.617188 16.328125 24.359375 16.066406 C 24.164062 15.867188 23.761719 15.703125 22.9375 16.015625 C 22.746094 16.089844 22.558594 16.15625 22.359375 16.214844 C 22.34375 16.214844 22.328125 16.222656 22.3125 16.226562 C 21.851562 16.359375 21.339844 16.429688 20.6875 16.367188 C 20.671875 16.359375 20.652344 16.355469 20.636719 16.355469 C 20.625 16.355469 20.613281 16.355469 20.601562 16.359375 C 20.109375 16.304688 19.53125 16.175781 18.839844 15.941406 C 18.820312 15.929688 18.800781 15.921875 18.777344 15.917969 C 18.769531 15.914062 18.765625 15.914062 18.757812 15.914062 Z M 18.851562 7.636719 C 18.875 7.828125 18.933594 8.011719 19.027344 8.191406 C 19.074219 8.28125 19.132812 8.363281 19.210938 8.441406 C 19.285156 8.519531 19.382812 8.582031 19.492188 8.625 C 19.601562 8.664062 19.726562 8.667969 19.835938 8.652344 C 19.890625 8.640625 19.941406 8.628906 20.003906 8.605469 C 20.058594 8.582031 20.117188 8.546875 20.164062 8.5 C 20.257812 8.402344 20.300781 8.292969 20.328125 8.191406 C 20.339844 8.152344 20.347656 8.109375 20.351562 8.070312 C 20.402344 8.085938 20.457031 8.097656 20.515625 8.097656 C 20.578125 8.097656 20.652344 8.085938 20.71875 8.050781 C 20.785156 8.015625 20.835938 7.957031 20.867188 7.898438 C 20.925781 7.78125 20.929688 7.667969 20.929688 7.5625 C 20.925781 7.453125 20.910156 7.351562 20.886719 7.25 C 20.882812 7.222656 20.855469 7.203125 20.824219 7.203125 C 20.789062 7.203125 20.761719 7.230469 20.761719 7.265625 L 20.761719 7.269531 C 20.765625 7.363281 20.761719 7.460938 20.75 7.554688 C 20.742188 7.644531 20.71875 7.734375 20.679688 7.789062 C 20.636719 7.847656 20.597656 7.859375 20.527344 7.851562 C 20.460938 7.84375 20.371094 7.808594 20.308594 7.765625 C 20.292969 7.757812 20.277344 7.75 20.257812 7.746094 C 20.183594 7.734375 20.117188 7.785156 20.105469 7.855469 L 20.105469 7.867188 C 20.089844 7.953125 20.074219 8.035156 20.050781 8.113281 C 20.023438 8.1875 19.992188 8.253906 19.953125 8.289062 C 19.933594 8.304688 19.914062 8.320312 19.886719 8.328125 C 19.863281 8.339844 19.824219 8.351562 19.785156 8.359375 C 19.714844 8.371094 19.648438 8.367188 19.582031 8.347656 C 19.453125 8.3125 19.332031 8.203125 19.234375 8.066406 C 19.132812 7.929688 19.050781 7.765625 18.980469 7.605469 L 18.980469 7.601562 C 18.96875 7.574219 18.941406 7.558594 18.910156 7.5625 C 18.875 7.566406 18.847656 7.597656 18.851562 7.636719 Z M 20.097656 12.863281 C 20.0625 12.914062 20.074219 12.984375 20.125 13.023438 C 20.140625 13.03125 20.15625 13.039062 20.175781 13.039062 L 20.042969 14.113281 C 20.003906 14.109375 19.964844 14.121094 19.9375 14.15625 C 19.898438 14.203125 19.910156 14.273438 19.960938 14.3125 C 20.335938 14.597656 20.714844 14.707031 21.046875 14.707031 C 21.296875 14.707031 21.519531 14.644531 21.695312 14.550781 C 22.070312 14.351562 22.289062 13.980469 22.261719 13.585938 C 22.226562 13.054688 21.914062 12.664062 21.398438 12.523438 C 20.894531 12.382812 20.335938 12.527344 20.097656 12.863281 Z M 22.945312 9.871094 C 23.003906 9.894531 23.070312 9.867188 23.09375 9.8125 C 23.226562 9.507812 23.523438 9.3125 23.855469 9.3125 C 23.855469 9.3125 23.859375 9.3125 23.859375 9.3125 C 24.191406 9.3125 24.492188 9.511719 24.621094 9.816406 C 24.636719 9.859375 24.679688 9.886719 24.726562 9.886719 C 24.738281 9.886719 24.753906 9.882812 24.769531 9.875 C 24.828125 9.851562 24.851562 9.785156 24.828125 9.730469 C 24.664062 9.339844 24.285156 9.089844 23.859375 9.085938 C 23.433594 9.089844 23.054688 9.335938 22.886719 9.722656 C 22.863281 9.78125 22.886719 9.847656 22.945312 9.871094 Z M 23.898438 12.691406 L 24.886719 12.378906 C 24.773438 11.636719 24.328125 11.09375 23.824219 11.125 C 23.265625 11.160156 22.847656 11.890625 22.886719 12.753906 C 22.925781 13.621094 23.414062 14.296875 23.972656 14.261719 C 24.476562 14.230469 24.867188 13.632812 24.910156 12.882812 Z M 14.769531 8.324219 C 14.765625 8.300781 14.742188 8.277344 14.714844 8.273438 C 14.679688 8.269531 14.644531 8.292969 14.640625 8.328125 L 14.636719 8.332031 C 14.609375 8.515625 14.582031 8.699219 14.539062 8.871094 C 14.519531 8.957031 14.496094 9.039062 14.464844 9.113281 C 14.4375 9.191406 14.394531 9.253906 14.355469 9.289062 C 14.335938 9.308594 14.316406 9.320312 14.292969 9.328125 C 14.28125 9.332031 14.269531 9.335938 14.253906 9.335938 C 14.242188 9.335938 14.230469 9.335938 14.214844 9.335938 C 14.160156 9.328125 14.097656 9.296875 14.046875 9.25 C 14 9.203125 13.957031 9.140625 13.933594 9.0625 C 13.910156 8.984375 13.898438 8.898438 13.890625 8.808594 L 13.890625 8.804688 C 13.886719 8.777344 13.871094 8.757812 13.84375 8.75 C 13.808594 8.738281 13.773438 8.757812 13.765625 8.792969 C 13.738281 8.886719 13.722656 8.992188 13.730469 9.101562 C 13.742188 9.207031 13.777344 9.320312 13.851562 9.417969 C 13.890625 9.464844 13.9375 9.507812 13.988281 9.542969 C 14.042969 9.574219 14.101562 9.601562 14.164062 9.613281 C 14.195312 9.621094 14.234375 9.625 14.269531 9.625 C 14.300781 9.625 14.335938 9.621094 14.371094 9.613281 C 14.4375 9.59375 14.503906 9.558594 14.554688 9.515625 C 14.65625 9.425781 14.703125 9.316406 14.742188 9.21875 C 14.777344 9.113281 14.796875 9.015625 14.808594 8.914062 C 14.828125 8.714844 14.816406 8.519531 14.769531 8.324219 Z M 26.269531 8.511719 C 26.273438 8.601562 26.289062 8.691406 26.3125 8.78125 C 26.339844 8.871094 26.382812 8.96875 26.46875 9.058594 C 26.511719 9.097656 26.570312 9.136719 26.632812 9.15625 C 26.664062 9.164062 26.699219 9.167969 26.730469 9.171875 C 26.761719 9.171875 26.789062 9.171875 26.820312 9.167969 C 26.9375 9.148438 27.042969 9.089844 27.113281 9.003906 C 27.183594 8.921875 27.222656 8.820312 27.238281 8.726562 C 27.253906 8.632812 27.246094 8.539062 27.226562 8.453125 C 27.222656 8.429688 27.203125 8.410156 27.179688 8.40625 C 27.144531 8.394531 27.109375 8.417969 27.101562 8.453125 C 27.066406 8.609375 27.011719 8.75 26.921875 8.820312 C 26.902344 8.835938 26.878906 8.851562 26.855469 8.863281 C 26.832031 8.871094 26.804688 8.875 26.78125 8.878906 C 26.730469 8.882812 26.710938 8.871094 26.679688 8.84375 C 26.644531 8.8125 26.617188 8.757812 26.589844 8.691406 C 26.566406 8.625 26.550781 8.554688 26.53125 8.480469 C 26.5 8.328125 26.480469 8.167969 26.453125 8.007812 L 26.453125 8.003906 C 26.449219 7.980469 26.429688 7.957031 26.40625 7.949219 C 26.367188 7.941406 26.332031 7.960938 26.320312 7.996094 C 26.277344 8.167969 26.261719 8.335938 26.269531 8.511719 Z M 20.671875 23.453125 C 20.660156 23.496094 20.371094 24.5625 20.96875 25.464844 C 21.070312 25.621094 21.191406 25.757812 21.332031 25.882812 C 21.378906 25.925781 21.429688 25.964844 21.480469 26.003906 C 21.632812 26.121094 21.804688 26.21875 21.992188 26.304688 C 22.1875 26.390625 22.398438 26.460938 22.628906 26.515625 C 22.710938 26.535156 22.792969 26.554688 22.878906 26.570312 C 22.871094 26.582031 22.867188 26.597656 22.863281 26.613281 C 22.839844 26.671875 22.820312 26.734375 22.796875 26.792969 C 22.644531 27.230469 22.488281 27.679688 22.339844 28.132812 C 22.191406 28.570312 22.011719 28.839844 21.8125 28.910156 C 21.667969 28.957031 21.492188 28.910156 21.273438 28.765625 C 21.085938 28.640625 20.949219 28.691406 20.886719 28.726562 C 20.636719 28.882812 20.671875 29.339844 20.757812 30.023438 C 20.773438 30.148438 20.785156 30.257812 20.789062 30.324219 C 20.816406 30.96875 20.675781 31.476562 20.40625 31.710938 C 20.296875 31.804688 20.179688 31.84375 20.0625 31.824219 C 19.519531 31.726562 19.457031 30.390625 19.414062 29.503906 C 19.398438 29.183594 19.382812 28.90625 19.351562 28.699219 C 19.226562 27.84375 18.886719 26.988281 18.695312 26.546875 C 18.664062 26.480469 18.636719 26.421875 18.617188 26.375 C 18.585938 26.308594 18.5625 26.265625 18.554688 26.25 C 18.550781 26.234375 18.542969 26.21875 18.539062 26.203125 C 18.507812 26.128906 18.480469 26.054688 18.449219 25.980469 L 18.328125 25.691406 C 18.25 25.5 18.175781 25.304688 18.082031 25.117188 C 18.0625 25.078125 18.015625 25.054688 17.964844 25.0625 C 17.910156 25.074219 17.875 25.128906 17.882812 25.1875 C 17.925781 25.390625 17.984375 25.589844 18.039062 25.789062 L 18.121094 26.089844 C 18.140625 26.160156 18.160156 26.230469 18.179688 26.304688 C 18.1875 26.320312 18.191406 26.339844 18.199219 26.359375 C 18.203125 26.410156 18.199219 26.457031 18.1875 26.496094 C 18.175781 26.539062 18.152344 26.578125 18.121094 26.609375 C 18.011719 26.714844 17.824219 26.730469 17.753906 26.722656 C 17.714844 26.71875 17.679688 26.707031 17.648438 26.691406 C 17.582031 26.667969 17.523438 26.625 17.472656 26.570312 C 17.265625 26.34375 17.167969 25.902344 17.070312 25.367188 C 17.050781 25.261719 17.03125 25.152344 17.007812 25.042969 C 16.996094 24.980469 16.980469 24.917969 16.96875 24.855469 C 16.953125 24.792969 16.9375 24.734375 16.925781 24.671875 C 16.488281 22.855469 15.621094 20.804688 14.644531 18.636719 C 14.617188 18.574219 14.589844 18.515625 14.5625 18.453125 C 14.535156 18.394531 14.507812 18.332031 14.480469 18.273438 C 14.328125 17.929688 14.171875 17.585938 14.015625 17.242188 C 13.972656 17.15625 13.933594 17.070312 13.894531 16.984375 C 13.867188 16.921875 13.839844 16.859375 13.8125 16.796875 C 13.785156 16.738281 13.757812 16.675781 13.730469 16.613281 C 13.585938 16.304688 13.449219 15.992188 13.308594 15.683594 C 15.78125 14.714844 15.195312 12.558594 15.148438 12.402344 C 14.816406 10.871094 13.417969 10.234375 11.300781 10.632812 C 11.125 10.078125 10.980469 9.539062 10.867188 9.015625 C 12 8.761719 12.707031 8.144531 13.449219 7.246094 C 13.875 7.167969 16.023438 6.753906 16.949219 5.96875 C 17.539062 6.191406 20.292969 7.09375 24.28125 6.230469 C 24.59375 6.386719 26.023438 7.085938 27.742188 7.535156 C 27.953125 7.765625 28.894531 8.757812 30.03125 9.140625 C 29.980469 9.332031 29.929688 9.519531 29.878906 9.703125 C 29.128906 9.496094 27.925781 9.292969 27.105469 9.796875 C 26.679688 10.058594 26.417969 10.480469 26.320312 11.046875 C 26.3125 11.101562 26.007812 13.132812 28.242188 14.425781 C 27.910156 15.3125 27.601562 16.191406 27.339844 17.132812 C 27.324219 17.195312 27.304688 17.253906 27.289062 17.316406 C 27.273438 17.375 27.257812 17.4375 27.242188 17.5 C 27.234375 17.527344 27.226562 17.550781 27.222656 17.578125 C 27.21875 17.578125 27.21875 17.578125 27.214844 17.578125 C 27.140625 17.523438 27.0625 17.476562 26.980469 17.4375 C 26.742188 17.324219 26.480469 17.265625 26.195312 17.261719 C 26.132812 17.261719 26.070312 17.265625 26.003906 17.269531 C 25.871094 17.277344 25.738281 17.300781 25.597656 17.332031 C 24.847656 17.5 24.386719 18.21875 24.105469 19.652344 C 24.066406 19.84375 23.90625 20.828125 24.449219 21.332031 C 24.558594 21.4375 24.695312 21.511719 24.847656 21.558594 C 24.8125 21.640625 24.777344 21.71875 24.742188 21.800781 C 24.042969 21.570312 22.886719 21.324219 21.941406 21.800781 C 21.332031 22.101562 20.90625 22.660156 20.671875 23.449219 C 20.671875 23.453125 20.671875 23.453125 20.671875 23.453125 Z M 12.882812 17.535156 C 12.855469 17.449219 12.839844 17.429688 12.828125 17.425781 L 12.789062 17.414062 C 12.765625 17.40625 12.742188 17.402344 12.71875 17.398438 C 12.675781 17.390625 12.628906 17.394531 12.585938 17.394531 C 12.585938 17.394531 12.582031 17.394531 12.582031 17.394531 L 12.445312 17.394531 C 12.425781 17.394531 12.410156 17.398438 12.390625 17.402344 C 12.367188 17.40625 12.339844 17.410156 12.3125 17.417969 C 12.28125 17.429688 12.246094 17.441406 12.210938 17.460938 C 12.164062 17.480469 12.113281 17.507812 12.066406 17.53125 C 12.023438 17.550781 11.980469 17.558594 11.9375 17.574219 C 11.914062 17.582031 11.894531 17.589844 11.875 17.605469 L 11.84375 17.628906 C 11.839844 17.632812 11.835938 17.640625 11.835938 17.660156 L 11.832031 17.691406 L 11.832031 17.742188 L 11.851562 17.789062 L 11.867188 17.820312 C 11.875 17.835938 11.882812 17.839844 11.886719 17.84375 L 11.925781 17.851562 C 11.949219 17.859375 11.972656 17.859375 11.992188 17.859375 C 12.039062 17.859375 12.082031 17.847656 12.128906 17.851562 C 12.1875 17.851562 12.246094 17.859375 12.304688 17.863281 C 12.339844 17.863281 12.371094 17.863281 12.402344 17.859375 C 12.433594 17.855469 12.464844 17.851562 12.496094 17.84375 C 12.507812 17.839844 12.519531 17.835938 12.53125 17.832031 L 12.660156 17.78125 C 12.664062 17.78125 12.667969 17.777344 12.675781 17.777344 C 12.710938 17.761719 12.75 17.746094 12.785156 17.726562 C 12.804688 17.714844 12.824219 17.699219 12.84375 17.683594 L 12.871094 17.660156 C 12.882812 17.652344 12.890625 17.628906 12.882812 17.535156 Z M 13.671875 17.394531 C 13.808594 17.703125 13.949219 18.007812 14.085938 18.3125 C 13.574219 18.367188 13.132812 18.4375 12.726562 18.503906 C 12.71875 18.503906 12.714844 18.503906 12.707031 18.507812 C 12.648438 18.515625 12.59375 18.523438 12.535156 18.535156 C 12.46875 18.542969 12.40625 18.554688 12.339844 18.5625 C 12.078125 18.605469 11.824219 18.640625 11.566406 18.667969 C 11.136719 18.710938 10.863281 18.566406 10.796875 18.269531 C 10.730469 17.96875 10.886719 17.59375 11.117188 17.515625 C 11.445312 17.398438 11.789062 17.304688 12.132812 17.230469 C 12.195312 17.21875 12.257812 17.203125 12.320312 17.191406 C 12.382812 17.179688 12.445312 17.167969 12.507812 17.15625 C 12.839844 17.09375 13.171875 17.050781 13.496094 17.015625 C 13.554688 17.144531 13.613281 17.269531 13.671875 17.394531 Z M 15.5625 26.796875 C 15.484375 26.746094 15.457031 26.742188 15.445312 26.75 L 15.398438 26.773438 C 15.371094 26.789062 15.339844 26.804688 15.3125 26.824219 C 15.261719 26.867188 15.214844 26.910156 15.171875 26.957031 C 15.082031 27.054688 14.992188 27.152344 14.941406 27.277344 C 14.886719 27.398438 14.867188 27.535156 14.84375 27.664062 C 14.835938 27.730469 14.816406 27.792969 14.808594 27.859375 C 14.804688 27.890625 14.808594 27.925781 14.8125 27.957031 C 14.816406 27.976562 14.816406 27.992188 14.824219 28.011719 C 14.824219 28.019531 14.832031 28.027344 14.847656 28.039062 L 14.878906 28.054688 C 14.894531 28.058594 14.910156 28.0625 14.929688 28.066406 C 14.945312 28.0625 14.964844 28.0625 14.980469 28.058594 L 15.011719 28.050781 C 15.027344 28.046875 15.039062 28.039062 15.042969 28.03125 C 15.046875 28.019531 15.058594 28.007812 15.0625 27.996094 C 15.078125 27.96875 15.089844 27.945312 15.097656 27.917969 C 15.113281 27.867188 15.128906 27.8125 15.15625 27.765625 C 15.210938 27.664062 15.285156 27.578125 15.34375 27.484375 C 15.375 27.441406 15.398438 27.390625 15.421875 27.34375 C 15.445312 27.292969 15.46875 27.242188 15.496094 27.191406 C 15.519531 27.140625 15.550781 27.09375 15.574219 27.039062 C 15.585938 27.011719 15.597656 26.984375 15.605469 26.953125 L 15.621094 26.90625 C 15.628906 26.894531 15.621094 26.867188 15.5625 26.796875 Z M 16.699219 25.433594 C 16.78125 25.882812 16.878906 26.402344 17.125 26.738281 C 16.1875 27.253906 15.792969 27.898438 15.582031 28.476562 C 15.5625 28.535156 15.542969 28.597656 15.523438 28.65625 C 15.503906 28.714844 15.488281 28.773438 15.472656 28.832031 C 15.441406 28.9375 15.417969 29.042969 15.394531 29.136719 C 15.355469 29.308594 15.316406 29.453125 15.273438 29.574219 C 15.1875 29.792969 14.949219 29.828125 14.753906 29.785156 C 14.507812 29.734375 14.253906 29.546875 14.269531 29.253906 C 14.28125 29.035156 14.300781 28.824219 14.332031 28.621094 C 14.339844 28.558594 14.351562 28.496094 14.363281 28.4375 C 14.375 28.375 14.386719 28.3125 14.398438 28.25 C 14.671875 26.976562 15.34375 26.007812 16.402344 25.359375 C 16.488281 25.304688 16.574219 25.257812 16.660156 25.210938 C 16.671875 25.285156 16.6875 25.359375 16.699219 25.433594 Z M 32.183594 20.027344 C 31.542969 18.765625 29.183594 17.980469 27.609375 17.585938 C 27.585938 17.675781 27.5625 17.769531 27.539062 17.859375 C 27.964844 18.324219 28.136719 18.929688 28.195312 19.210938 C 28.867188 19.292969 29.394531 19.6875 29.578125 19.847656 C 30.847656 19.660156 31.777344 19.910156 32.34375 20.582031 C 32.332031 20.394531 32.277344 20.207031 32.183594 20.027344 Z M 27.335938 28.925781 C 27.457031 29.25 27.507812 29.507812 27.515625 29.660156 C 27.527344 29.871094 27.304688 30 27.109375 30.046875 C 26.820312 30.121094 26.457031 30.054688 26.332031 29.785156 C 26.242188 29.597656 26.148438 29.421875 26.054688 29.25 C 26.023438 29.195312 25.988281 29.140625 25.957031 29.089844 C 25.925781 29.035156 25.890625 28.980469 25.855469 28.929688 C 25.089844 27.746094 24.117188 27.03125 23.265625 26.605469 C 23.4375 26.128906 23.609375 25.664062 23.777344 25.214844 C 25.234375 25.984375 26.105469 26.902344 26.597656 27.578125 C 26.855469 27.933594 27.046875 28.265625 27.183594 28.5625 C 27.214844 28.625 27.242188 28.683594 27.265625 28.742188 C 27.292969 28.804688 27.316406 28.867188 27.335938 28.925781 " fill-opacity="1" fill-rule="nonzero"/><g clip-path="url(#d441ecb8f7)"><path fill="#f08c2b" d="M 21.789062 13.503906 C 21.785156 13.484375 21.785156 13.46875 21.78125 13.449219 C 21.777344 13.429688 21.769531 13.410156 21.761719 13.394531 C 21.75 13.355469 21.734375 13.320312 21.710938 13.289062 C 21.667969 13.222656 21.609375 13.171875 21.546875 13.136719 C 21.484375 13.101562 21.421875 13.078125 21.359375 13.058594 C 21.300781 13.042969 21.242188 13.023438 21.183594 13.011719 C 21.15625 13.007812 21.125 13.007812 21.09375 13.011719 C 21.078125 13.015625 21.0625 13.019531 21.050781 13.023438 C 21.042969 13.023438 21.03125 13.03125 21.023438 13.046875 L 21.011719 13.078125 C 21.003906 13.09375 21 13.113281 20.996094 13.128906 C 21 13.144531 21 13.164062 21 13.179688 L 21.007812 13.210938 C 21.011719 13.226562 21.015625 13.238281 21.019531 13.238281 C 21.03125 13.246094 21.039062 13.253906 21.050781 13.261719 C 21.070312 13.277344 21.089844 13.285156 21.109375 13.296875 C 21.148438 13.3125 21.1875 13.328125 21.21875 13.351562 C 21.28125 13.40625 21.304688 13.472656 21.320312 13.515625 C 21.328125 13.527344 21.328125 13.539062 21.332031 13.550781 C 21.332031 13.554688 21.335938 13.5625 21.339844 13.566406 C 21.34375 13.570312 21.34375 13.578125 21.347656 13.585938 C 21.351562 13.597656 21.359375 13.609375 21.363281 13.628906 L 21.375 13.679688 C 21.382812 13.714844 21.375 13.757812 21.382812 13.800781 C 21.382812 13.820312 21.386719 13.847656 21.390625 13.871094 L 21.398438 13.910156 C 21.398438 13.921875 21.414062 13.941406 21.496094 13.988281 C 21.585938 14.011719 21.609375 14.003906 21.621094 13.992188 L 21.652344 13.960938 C 21.671875 13.9375 21.691406 13.914062 21.707031 13.890625 C 21.734375 13.832031 21.757812 13.777344 21.773438 13.710938 L 21.789062 13.613281 C 21.792969 13.578125 21.789062 13.539062 21.789062 13.503906 Z M 22.035156 13.601562 C 22.054688 13.910156 21.886719 14.191406 21.585938 14.351562 C 21.246094 14.535156 20.675781 14.570312 20.097656 14.132812 C 20.082031 14.121094 20.0625 14.113281 20.042969 14.113281 L 20.175781 13.039062 C 20.214844 13.046875 20.257812 13.03125 20.28125 12.996094 C 20.464844 12.738281 20.929688 12.625 21.339844 12.738281 C 21.753906 12.855469 22.007812 13.167969 22.035156 13.601562 Z M 30.339844 8.691406 C 30.28125 8.664062 30.222656 8.636719 30.167969 8.605469 C 29.457031 8.234375 28.839844 7.691406 28.625 7.492188 C 28.507812 7.511719 28.390625 7.53125 28.273438 7.539062 C 28.648438 7.902344 29.347656 8.5 30.125 8.773438 C 30.1875 8.792969 30.246094 8.8125 30.304688 8.828125 C 30.367188 8.84375 30.429688 8.859375 30.488281 8.871094 C 30.644531 8.902344 30.804688 8.917969 30.960938 8.914062 C 30.8125 8.878906 30.664062 8.828125 30.515625 8.769531 C 30.457031 8.742188 30.398438 8.71875 30.339844 8.691406 Z M 22.675781 5.441406 C 22.613281 5.355469 22.5625 5.34375 22.515625 5.347656 L 22.371094 5.347656 C 22.273438 5.351562 22.179688 5.359375 22.085938 5.359375 C 21.988281 5.359375 21.894531 5.363281 21.800781 5.367188 L 21.660156 5.375 L 21.515625 5.378906 L 21.234375 5.378906 L 20.949219 5.367188 C 20.855469 5.363281 20.761719 5.363281 20.667969 5.355469 L 20.386719 5.347656 C 20.011719 5.324219 19.636719 5.304688 19.261719 5.246094 L 19.121094 5.21875 L 18.984375 5.1875 C 18.894531 5.167969 18.804688 5.140625 18.710938 5.117188 C 18.621094 5.089844 18.53125 5.066406 18.4375 5.042969 C 18.394531 5.03125 18.347656 5.023438 18.300781 5.007812 C 18.253906 4.996094 18.207031 4.996094 18.128906 5.050781 C 18.132812 5.144531 18.171875 5.183594 18.21875 5.207031 C 18.261719 5.234375 18.304688 5.257812 18.347656 5.28125 C 18.4375 5.324219 18.527344 5.363281 18.621094 5.394531 C 18.714844 5.429688 18.808594 5.457031 18.90625 5.484375 C 19 5.511719 19.09375 5.539062 19.191406 5.5625 C 19.570312 5.667969 19.960938 5.753906 20.355469 5.792969 C 20.75 5.832031 21.148438 5.816406 21.539062 5.773438 L 21.6875 5.757812 L 21.832031 5.738281 C 21.929688 5.722656 22.027344 5.707031 22.125 5.691406 C 22.222656 5.675781 22.316406 5.644531 22.414062 5.621094 L 22.554688 5.578125 C 22.601562 5.566406 22.644531 5.539062 22.675781 5.441406 Z M 14.363281 5.832031 C 14.300781 5.757812 14.273438 5.746094 14.253906 5.75 L 14.1875 5.757812 C 14.148438 5.765625 14.105469 5.773438 14.066406 5.78125 C 14.027344 5.785156 13.988281 5.792969 13.949219 5.800781 L 13.890625 5.816406 L 13.835938 5.824219 L 13.71875 5.835938 C 13.679688 5.839844 13.644531 5.839844 13.605469 5.839844 C 13.566406 5.84375 13.53125 5.847656 13.492188 5.847656 C 13.457031 5.847656 13.417969 5.851562 13.382812 5.855469 C 13.234375 5.859375 13.082031 5.867188 12.925781 5.839844 C 12.851562 5.824219 12.78125 5.792969 12.707031 5.765625 C 12.671875 5.75 12.636719 5.738281 12.597656 5.722656 L 12.539062 5.707031 C 12.519531 5.699219 12.496094 5.707031 12.425781 5.757812 C 12.40625 5.792969 12.398438 5.824219 12.398438 5.839844 C 12.398438 5.863281 12.402344 5.875 12.410156 5.882812 C 12.425781 5.902344 12.441406 5.921875 12.460938 5.9375 C 12.492188 5.972656 12.53125 6 12.570312 6.023438 C 12.652344 6.070312 12.738281 6.109375 12.824219 6.148438 C 12.996094 6.226562 13.179688 6.292969 13.375 6.304688 C 13.566406 6.316406 13.761719 6.273438 13.9375 6.207031 C 13.957031 6.199219 13.980469 6.191406 14.003906 6.183594 L 14.066406 6.152344 C 14.109375 6.136719 14.148438 6.113281 14.191406 6.089844 C 14.230469 6.070312 14.265625 6.039062 14.300781 6.007812 L 14.355469 5.964844 C 14.375 5.949219 14.386719 5.921875 14.363281 5.832031 Z M 10.6875 7.628906 C 10.65625 7.578125 10.632812 7.554688 10.613281 7.542969 C 10.601562 7.539062 10.589844 7.535156 10.582031 7.539062 L 10.507812 7.539062 C 10.476562 7.539062 10.449219 7.539062 10.421875 7.539062 C 10.402344 7.539062 10.378906 7.539062 10.359375 7.539062 C 10.265625 7.539062 10.175781 7.546875 10.089844 7.535156 C 10.003906 7.527344 9.925781 7.5 9.855469 7.472656 C 9.789062 7.441406 9.726562 7.410156 9.671875 7.363281 C 9.5625 7.277344 9.453125 7.136719 9.390625 6.964844 C 9.359375 6.878906 9.347656 6.785156 9.335938 6.691406 C 9.328125 6.644531 9.320312 6.59375 9.308594 6.546875 L 9.292969 6.476562 C 9.289062 6.449219 9.269531 6.425781 9.191406 6.394531 C 9.105469 6.410156 9.082031 6.4375 9.074219 6.464844 C 9.066406 6.492188 9.0625 6.519531 9.054688 6.546875 C 9.046875 6.601562 9.039062 6.652344 9.039062 6.707031 C 9.042969 6.816406 9.058594 6.925781 9.074219 7.039062 C 9.085938 7.152344 9.113281 7.265625 9.160156 7.378906 C 9.203125 7.492188 9.273438 7.605469 9.367188 7.695312 C 9.464844 7.789062 9.585938 7.859375 9.710938 7.894531 C 9.835938 7.929688 9.964844 7.9375 10.082031 7.929688 C 10.1875 7.925781 10.285156 7.90625 10.382812 7.882812 C 10.394531 7.878906 10.410156 7.875 10.421875 7.871094 C 10.472656 7.851562 10.527344 7.828125 10.574219 7.804688 L 10.648438 7.765625 C 10.671875 7.753906 10.691406 7.726562 10.6875 7.628906 Z M 14.46875 2.890625 C 14.476562 2.910156 14.496094 2.933594 14.527344 2.960938 C 14.613281 2.972656 14.640625 2.960938 14.65625 2.945312 L 14.707031 2.890625 C 14.738281 2.855469 14.769531 2.816406 14.796875 2.777344 L 14.882812 2.664062 C 14.914062 2.628906 14.945312 2.589844 14.980469 2.558594 C 15.113281 2.421875 15.269531 2.3125 15.414062 2.199219 C 15.566406 2.09375 15.703125 1.972656 15.863281 1.875 C 15.902344 1.851562 15.941406 1.824219 15.984375 1.800781 C 16.027344 1.78125 16.066406 1.761719 16.109375 1.734375 C 16.148438 1.707031 16.191406 1.6875 16.234375 1.664062 L 16.296875 1.625 C 16.320312 1.613281 16.335938 1.585938 16.335938 1.488281 C 16.292969 1.40625 16.261719 1.394531 16.234375 1.398438 L 16.152344 1.398438 C 16.097656 1.402344 16.042969 1.40625 15.992188 1.421875 C 15.9375 1.433594 15.886719 1.445312 15.835938 1.460938 C 15.78125 1.480469 15.734375 1.5 15.683594 1.519531 C 15.582031 1.558594 15.484375 1.613281 15.386719 1.660156 C 15.296875 1.71875 15.207031 1.78125 15.125 1.855469 C 14.964844 2 14.835938 2.175781 14.722656 2.355469 C 14.691406 2.398438 14.664062 2.441406 14.632812 2.488281 C 14.605469 2.53125 14.574219 2.574219 14.550781 2.621094 C 14.527344 2.667969 14.503906 2.714844 14.484375 2.765625 C 14.476562 2.789062 14.46875 2.816406 14.464844 2.84375 C 14.460938 2.855469 14.460938 2.871094 14.46875 2.890625 Z M 30.679688 7.847656 L 30.652344 7.878906 L 30.644531 7.886719 C 30.640625 7.902344 30.632812 7.921875 30.628906 7.9375 L 30.625 7.96875 C 30.625 7.988281 30.625 8 30.632812 8.003906 C 30.636719 8.007812 30.640625 8.011719 30.644531 8.015625 C 30.652344 8.023438 30.660156 8.035156 30.667969 8.042969 C 30.691406 8.066406 30.714844 8.085938 30.742188 8.101562 C 30.800781 8.132812 30.859375 8.15625 30.914062 8.1875 C 31.03125 8.246094 31.152344 8.3125 31.296875 8.332031 C 31.328125 8.339844 31.367188 8.339844 31.402344 8.339844 C 31.421875 8.339844 31.4375 8.339844 31.457031 8.339844 C 31.476562 8.335938 31.496094 8.335938 31.511719 8.332031 C 31.585938 8.320312 31.65625 8.289062 31.726562 8.265625 C 31.796875 8.230469 31.863281 8.195312 31.917969 8.140625 C 31.945312 8.113281 31.96875 8.085938 31.984375 8.050781 L 32.011719 8 C 32.019531 7.988281 32.019531 7.960938 31.960938 7.886719 C 31.882812 7.835938 31.859375 7.824219 31.847656 7.832031 L 31.808594 7.839844 C 31.785156 7.851562 31.757812 7.851562 31.734375 7.859375 C 31.691406 7.871094 31.644531 7.878906 31.605469 7.886719 C 31.558594 7.890625 31.519531 7.894531 31.472656 7.886719 C 31.460938 7.886719 31.449219 7.886719 31.4375 7.886719 C 31.425781 7.886719 31.417969 7.882812 31.40625 7.882812 C 31.382812 7.882812 31.359375 7.886719 31.335938 7.886719 C 31.242188 7.886719 31.132812 7.894531 31.023438 7.878906 C 30.96875 7.871094 30.917969 7.851562 30.863281 7.835938 C 30.839844 7.828125 30.8125 7.820312 30.78125 7.816406 C 30.769531 7.816406 30.753906 7.8125 30.738281 7.8125 C 30.730469 7.8125 30.71875 7.816406 30.707031 7.828125 Z M 28.726562 6.574219 C 28.703125 6.484375 28.6875 6.460938 28.671875 6.457031 L 28.621094 6.4375 C 28.585938 6.425781 28.554688 6.410156 28.519531 6.402344 L 28.324219 6.339844 L 28.226562 6.300781 C 28.191406 6.289062 28.160156 6.273438 28.128906 6.261719 C 28.0625 6.234375 27.996094 6.214844 27.925781 6.195312 C 27.792969 6.15625 27.644531 6.128906 27.503906 6.085938 C 27.433594 6.066406 27.367188 6.035156 27.300781 6.007812 C 27.265625 5.992188 27.230469 5.984375 27.195312 5.976562 C 27.175781 5.96875 27.15625 5.96875 27.136719 5.964844 C 27.128906 5.960938 27.117188 5.964844 27.101562 5.972656 L 27.074219 5.996094 L 27.035156 6.03125 C 27.03125 6.046875 27.027344 6.066406 27.023438 6.082031 L 27.019531 6.117188 C 27.019531 6.136719 27.023438 6.148438 27.03125 6.15625 C 27.046875 6.167969 27.058594 6.183594 27.074219 6.195312 C 27.101562 6.222656 27.132812 6.246094 27.167969 6.269531 C 27.230469 6.308594 27.300781 6.339844 27.367188 6.382812 C 27.496094 6.464844 27.628906 6.558594 27.773438 6.617188 C 27.847656 6.648438 27.921875 6.675781 28 6.691406 C 28.078125 6.707031 28.160156 6.714844 28.238281 6.726562 C 28.277344 6.730469 28.320312 6.734375 28.363281 6.734375 C 28.402344 6.738281 28.445312 6.738281 28.484375 6.734375 C 28.527344 6.730469 28.570312 6.726562 28.609375 6.710938 L 28.671875 6.695312 C 28.691406 6.691406 28.714844 6.667969 28.726562 6.574219 Z M 24.816406 5.65625 C 24.722656 5.695312 24.628906 5.730469 24.535156 5.761719 C 24.445312 5.792969 24.347656 5.828125 24.261719 5.851562 C 19.9375 6.800781 17.023438 5.59375 16.984375 5.578125 C 16.984375 5.578125 16.980469 5.578125 16.980469 5.578125 L 16.976562 5.578125 C 16.894531 5.546875 16.796875 5.507812 16.707031 5.472656 C 16.617188 5.433594 16.527344 5.390625 16.441406 5.347656 C 16.351562 5.304688 16.265625 5.253906 16.179688 5.207031 C 16.09375 5.15625 16.015625 5.101562 15.929688 5.050781 L 15.925781 5.050781 C 15.886719 5.027344 15.835938 5.03125 15.800781 5.0625 C 15.757812 5.101562 15.753906 5.167969 15.792969 5.207031 C 15.886719 5.308594 15.992188 5.398438 16.097656 5.480469 C 15.21875 6.300781 13.300781 6.757812 12.757812 6.875 C 12.71875 6.871094 12.679688 6.867188 12.640625 6.859375 C 12.523438 6.84375 12.410156 6.816406 12.296875 6.785156 C 12.1875 6.757812 12.078125 6.714844 11.96875 6.671875 L 11.964844 6.667969 C 11.917969 6.652344 11.867188 6.664062 11.839844 6.707031 C 11.804688 6.753906 11.816406 6.816406 11.863281 6.847656 C 11.972656 6.921875 12.085938 6.988281 12.207031 7.039062 C 12.273438 7.066406 12.339844 7.089844 12.40625 7.109375 C 11.847656 7.761719 11.261719 8.109375 10.757812 8.289062 C 10.691406 8.308594 10.632812 8.328125 10.570312 8.347656 C 10.507812 8.367188 10.445312 8.382812 10.382812 8.394531 C 10.160156 8.445312 9.964844 8.464844 9.808594 8.46875 C 9.507812 8.476562 9.265625 8.4375 9.09375 8.382812 C 9.03125 8.328125 8.96875 8.269531 8.914062 8.203125 C 8.214844 7.40625 8.230469 5.925781 8.4375 5.316406 C 9.390625 2.492188 12.835938 1.742188 14.289062 1.550781 C 14.1875 1.648438 14.089844 1.753906 14.003906 1.863281 C 13.890625 2.007812 13.785156 2.160156 13.699219 2.320312 C 13.652344 2.398438 13.613281 2.484375 13.574219 2.566406 C 13.539062 2.648438 13.507812 2.734375 13.476562 2.820312 C 13.457031 2.867188 13.476562 2.921875 13.523438 2.945312 C 13.570312 2.972656 13.636719 2.957031 13.664062 2.90625 L 13.667969 2.898438 C 13.710938 2.824219 13.75 2.746094 13.792969 2.675781 C 13.839844 2.601562 13.875 2.527344 13.925781 2.457031 C 14.019531 2.316406 14.125 2.1875 14.238281 2.0625 C 14.351562 1.9375 14.476562 1.824219 14.605469 1.722656 C 14.671875 1.671875 14.742188 1.625 14.808594 1.582031 C 14.84375 1.558594 14.878906 1.539062 14.914062 1.519531 C 14.945312 1.5 14.984375 1.480469 15.011719 1.46875 C 18.09375 0.210938 20.957031 0.277344 22.8125 0.554688 C 24.824219 0.851562 26.125 1.457031 26.144531 1.46875 L 26.152344 1.46875 C 26.222656 1.5 26.304688 1.539062 26.382812 1.582031 C 26.460938 1.621094 26.539062 1.667969 26.613281 1.710938 C 26.765625 1.804688 26.910156 1.910156 27.046875 2.019531 C 27.117188 2.074219 27.179688 2.136719 27.246094 2.195312 C 27.308594 2.261719 27.371094 2.320312 27.429688 2.386719 C 27.550781 2.519531 27.652344 2.664062 27.753906 2.808594 L 27.757812 2.816406 C 27.789062 2.855469 27.84375 2.871094 27.890625 2.847656 C 27.941406 2.824219 27.964844 2.761719 27.9375 2.710938 C 27.851562 2.539062 27.757812 2.371094 27.636719 2.21875 C 27.519531 2.066406 27.390625 1.925781 27.25 1.792969 C 27.214844 1.761719 27.179688 1.726562 27.144531 1.695312 C 29.21875 2.234375 31.386719 3.277344 32.1875 4.648438 C 32.71875 5.558594 32.867188 6.636719 32.585938 7.539062 C 32.414062 8.082031 32.109375 8.496094 31.722656 8.710938 C 31.367188 8.796875 30.960938 8.710938 30.566406 8.542969 C 30.507812 8.519531 30.449219 8.492188 30.390625 8.464844 C 30.332031 8.433594 30.273438 8.40625 30.214844 8.375 C 29.65625 8.070312 29.160156 7.664062 28.898438 7.433594 C 28.957031 7.417969 29.011719 7.402344 29.070312 7.382812 C 29.203125 7.339844 29.332031 7.28125 29.453125 7.214844 C 29.492188 7.191406 29.515625 7.140625 29.5 7.09375 C 29.480469 7.039062 29.421875 7.007812 29.367188 7.023438 L 29.363281 7.027344 C 29.242188 7.066406 29.121094 7.101562 28.996094 7.128906 C 28.875 7.152344 28.75 7.175781 28.621094 7.183594 C 28.582031 7.1875 28.539062 7.191406 28.5 7.191406 C 26.972656 6.824219 25.710938 6.011719 25.289062 5.71875 C 25.355469 5.671875 25.421875 5.621094 25.484375 5.566406 C 25.519531 5.535156 25.53125 5.484375 25.511719 5.441406 C 25.484375 5.390625 25.421875 5.371094 25.371094 5.394531 L 25.367188 5.394531 C 25.183594 5.484375 25.003906 5.578125 24.816406 5.65625 Z M 25.085938 5.851562 C 25.042969 5.878906 24.996094 5.902344 24.953125 5.929688 C 24.886719 5.96875 24.816406 6.003906 24.75 6.039062 C 25.199219 6.25 26.039062 6.625 27.058594 6.945312 C 26.066406 6.523438 25.328125 6.027344 25.085938 5.851562 Z M 12.964844 7.234375 C 12.964844 7.234375 12.964844 7.234375 12.960938 7.234375 C 12.855469 7.21875 12.753906 7.199219 12.648438 7.175781 C 12.019531 7.941406 11.347656 8.328125 10.777344 8.519531 C 10.714844 8.539062 10.652344 8.558594 10.59375 8.574219 C 10.53125 8.59375 10.46875 8.605469 10.410156 8.621094 C 10.179688 8.667969 9.976562 8.6875 9.8125 8.695312 C 9.796875 8.695312 9.777344 8.695312 9.761719 8.695312 C 9.964844 8.734375 10.183594 8.742188 10.425781 8.714844 C 10.484375 8.707031 10.546875 8.699219 10.613281 8.6875 C 10.617188 8.683594 10.621094 8.683594 10.628906 8.683594 C 10.683594 8.671875 10.742188 8.660156 10.796875 8.648438 C 11.722656 8.433594 12.34375 7.945312 12.964844 7.234375 Z M 16.554688 5.777344 C 16.460938 5.726562 16.375 5.671875 16.289062 5.613281 C 15.8125 6.074219 15.046875 6.421875 14.34375 6.667969 C 15.070312 6.484375 16.011719 6.191406 16.570312 5.789062 C 16.566406 5.785156 16.558594 5.78125 16.554688 5.777344 Z M 8.957031 32.226562 C 8.933594 32.101562 8.898438 32.074219 8.871094 32.070312 C 8.839844 32.066406 8.808594 32.058594 8.777344 32.054688 C 8.714844 32.046875 8.652344 32.046875 8.589844 32.046875 C 8.527344 32.054688 8.464844 32.0625 8.40625 32.078125 C 8.375 32.085938 8.347656 32.09375 8.316406 32.101562 L 8.230469 32.132812 C 8.199219 32.144531 8.171875 32.152344 8.140625 32.164062 L 8.058594 32.203125 L 7.972656 32.246094 C 7.945312 32.261719 7.917969 32.277344 7.890625 32.292969 C 7.839844 32.324219 7.785156 32.359375 7.742188 32.402344 C 7.695312 32.445312 7.648438 32.488281 7.609375 32.535156 C 7.570312 32.582031 7.535156 32.628906 7.5 32.679688 C 7.464844 32.730469 7.4375 32.785156 7.410156 32.835938 C 7.347656 32.941406 7.3125 33.054688 7.269531 33.160156 C 7.253906 33.1875 7.246094 33.210938 7.238281 33.238281 L 7.207031 33.320312 C 7.1875 33.371094 7.164062 33.425781 7.148438 33.476562 C 7.132812 33.53125 7.125 33.589844 7.117188 33.644531 C 7.117188 33.675781 7.113281 33.703125 7.113281 33.730469 C 7.113281 33.746094 7.117188 33.761719 7.136719 33.78125 C 7.148438 33.800781 7.179688 33.824219 7.226562 33.851562 C 7.285156 33.851562 7.324219 33.851562 7.347656 33.84375 C 7.371094 33.835938 7.386719 33.828125 7.394531 33.816406 C 7.410156 33.796875 7.425781 33.773438 7.4375 33.753906 C 7.46875 33.710938 7.492188 33.664062 7.511719 33.617188 C 7.5625 33.53125 7.597656 33.4375 7.65625 33.359375 C 7.71875 33.285156 7.773438 33.203125 7.84375 33.140625 C 7.878906 33.109375 7.910156 33.070312 7.945312 33.042969 C 7.980469 33.011719 8.011719 32.980469 8.046875 32.949219 C 8.078125 32.917969 8.113281 32.894531 8.144531 32.863281 C 8.175781 32.832031 8.210938 32.804688 8.246094 32.773438 C 8.261719 32.761719 8.277344 32.746094 8.292969 32.730469 L 8.34375 32.6875 L 8.398438 32.644531 C 8.417969 32.632812 8.4375 32.621094 8.453125 32.609375 L 8.511719 32.574219 C 8.53125 32.566406 8.550781 32.554688 8.574219 32.546875 C 8.613281 32.523438 8.652344 32.503906 8.695312 32.484375 L 8.824219 32.417969 C 8.84375 32.40625 8.867188 32.394531 8.886719 32.386719 C 8.910156 32.378906 8.929688 32.351562 8.957031 32.226562 Z M 16.539062 29.613281 C 16.636719 29.820312 16.648438 30.050781 16.574219 30.265625 C 16.488281 30.511719 16.292969 30.71875 16.039062 30.839844 C 16.039062 30.839844 16.035156 30.84375 16.035156 30.84375 C 16.03125 30.84375 16.03125 30.84375 16.027344 30.847656 C 16.03125 30.847656 16.019531 30.851562 16.011719 30.855469 L 15.988281 30.871094 C 15.96875 30.878906 15.949219 30.886719 15.929688 30.894531 C 15.890625 30.910156 15.851562 30.925781 15.8125 30.941406 C 15.730469 30.96875 15.640625 30.988281 15.554688 31.007812 C 15.464844 31.023438 15.375 31.035156 15.285156 31.042969 C 15.195312 31.054688 15.105469 31.058594 15.011719 31.070312 L 15.007812 31.070312 C 14.960938 31.074219 14.925781 31.105469 14.914062 31.152344 C 14.902344 31.207031 14.941406 31.261719 14.996094 31.273438 C 15.09375 31.292969 15.191406 31.304688 15.292969 31.3125 C 15.390625 31.316406 15.492188 31.316406 15.59375 31.308594 C 15.695312 31.300781 15.796875 31.292969 15.898438 31.273438 C 15.9375 31.265625 15.976562 31.253906 16.015625 31.242188 C 16.113281 31.515625 16.261719 32.140625 15.945312 32.957031 C 15.9375 32.972656 15.9375 32.992188 15.933594 33.011719 C 14.667969 34.488281 13.089844 35.449219 11.691406 35.589844 C 8.414062 35.914062 6.609375 34.921875 6.183594 34.652344 C 6.203125 34.347656 6.355469 32.875 7.433594 32.050781 C 7.933594 31.667969 8.566406 31.476562 9.320312 31.476562 C 9.738281 31.476562 10.191406 31.53125 10.679688 31.648438 C 10.84375 31.695312 11.019531 31.765625 11.183594 31.835938 C 11.351562 31.910156 11.515625 31.996094 11.667969 32.089844 C 11.828125 32.183594 11.972656 32.292969 12.109375 32.410156 C 12.25 32.527344 12.371094 32.660156 12.488281 32.800781 L 12.492188 32.804688 C 12.523438 32.84375 12.582031 32.855469 12.625 32.828125 C 12.675781 32.796875 12.6875 32.734375 12.660156 32.683594 C 12.554688 32.515625 12.433594 32.355469 12.292969 32.214844 C 12.152344 32.078125 12.003906 31.949219 11.839844 31.835938 C 11.679688 31.722656 11.511719 31.617188 11.335938 31.527344 C 11.246094 31.480469 11.160156 31.4375 11.066406 31.398438 C 11.046875 31.390625 11.027344 31.382812 11.007812 31.375 C 11.210938 31.078125 11.714844 30.511719 12.613281 30.386719 C 12.621094 30.394531 12.625 30.398438 12.628906 30.40625 C 12.664062 30.441406 12.695312 30.476562 12.730469 30.511719 C 12.800781 30.578125 12.871094 30.640625 12.949219 30.695312 C 13.105469 30.808594 13.273438 30.902344 13.453125 30.953125 C 13.496094 30.964844 13.542969 30.949219 13.570312 30.914062 C 13.601562 30.867188 13.589844 30.800781 13.542969 30.769531 L 13.539062 30.765625 C 13.46875 30.71875 13.398438 30.671875 13.335938 30.621094 C 13.269531 30.574219 13.207031 30.519531 13.148438 30.460938 C 13.089844 30.40625 13.035156 30.34375 12.988281 30.28125 C 12.964844 30.25 12.941406 30.21875 12.917969 30.1875 C 12.902344 30.164062 12.886719 30.136719 12.875 30.117188 C 12.84375 30.019531 12.671875 29.359375 13.058594 28.957031 C 13.25 28.761719 13.546875 28.652344 13.949219 28.625 C 13.921875 28.820312 13.902344 29.019531 13.890625 29.234375 C 13.863281 29.746094 14.277344 30.070312 14.675781 30.152344 C 14.75 30.167969 14.824219 30.175781 14.894531 30.175781 C 15.230469 30.175781 15.511719 30.003906 15.625 29.707031 C 15.679688 29.566406 15.71875 29.398438 15.761719 29.226562 C 15.78125 29.144531 15.800781 29.0625 15.824219 28.980469 C 16.164062 29.148438 16.417969 29.367188 16.539062 29.613281 Z M 11.722656 35.886719 C 11.246094 35.933594 10.800781 35.957031 10.386719 35.957031 C 7.863281 35.957031 6.449219 35.183594 6.03125 34.910156 C 5.84375 35.070312 5.742188 35.253906 5.734375 35.445312 C 5.726562 35.667969 5.839844 35.847656 5.953125 35.941406 C 7.015625 36.84375 10.636719 37.089844 12.386719 36.585938 C 14.074219 36.097656 15.734375 35.015625 16.164062 34.117188 C 16.394531 33.644531 16.234375 33.375 16.117188 33.257812 C 14.8125 34.761719 13.179688 35.742188 11.722656 35.886719 Z M 30.058594 33.433594 C 30.0625 33.453125 30.082031 33.488281 30.109375 33.535156 C 30.15625 33.566406 30.1875 33.585938 30.207031 33.59375 C 30.230469 33.601562 30.246094 33.601562 30.253906 33.597656 C 30.277344 33.59375 30.296875 33.585938 30.316406 33.578125 C 30.355469 33.5625 30.394531 33.542969 30.425781 33.519531 C 30.496094 33.476562 30.5625 33.429688 30.636719 33.394531 C 30.789062 33.324219 30.949219 33.28125 31.09375 33.21875 C 31.167969 33.1875 31.242188 33.15625 31.308594 33.113281 C 31.378906 33.074219 31.445312 33.03125 31.519531 32.996094 C 31.589844 32.957031 31.664062 32.925781 31.734375 32.882812 C 31.769531 32.863281 31.808594 32.839844 31.84375 32.816406 L 31.898438 32.777344 C 31.914062 32.765625 31.929688 32.734375 31.925781 32.609375 C 31.878906 32.492188 31.851562 32.46875 31.828125 32.46875 L 31.757812 32.460938 C 31.707031 32.453125 31.660156 32.449219 31.613281 32.453125 C 31.519531 32.457031 31.429688 32.476562 31.339844 32.5 C 31.25 32.519531 31.160156 32.542969 31.070312 32.566406 C 30.980469 32.597656 30.894531 32.636719 30.816406 32.6875 C 30.65625 32.777344 30.523438 32.910156 30.390625 33.035156 C 30.324219 33.101562 30.25 33.152344 30.183594 33.214844 C 30.152344 33.246094 30.121094 33.28125 30.097656 33.320312 C 30.082031 33.339844 30.070312 33.363281 30.058594 33.382812 C 30.054688 33.394531 30.050781 33.40625 30.058594 33.433594 Z M 25.792969 31.132812 C 25.542969 31.011719 25.347656 30.800781 25.261719 30.558594 C 25.183594 30.339844 25.199219 30.109375 25.296875 29.90625 C 25.378906 29.734375 25.53125 29.578125 25.726562 29.4375 C 25.820312 29.597656 25.90625 29.765625 25.988281 29.945312 C 26.160156 30.304688 26.527344 30.449219 26.886719 30.449219 C 26.992188 30.449219 27.101562 30.4375 27.203125 30.414062 C 27.640625 30.304688 27.914062 30 27.894531 29.640625 C 27.886719 29.472656 27.835938 29.21875 27.730469 28.910156 C 28.210938 28.917969 28.5625 29.03125 28.777344 29.25 C 29.160156 29.648438 28.988281 30.308594 28.960938 30.40625 C 28.949219 30.429688 28.933594 30.457031 28.917969 30.476562 C 28.894531 30.507812 28.871094 30.542969 28.847656 30.574219 C 28.796875 30.636719 28.746094 30.695312 28.6875 30.753906 C 28.628906 30.8125 28.566406 30.863281 28.5 30.914062 C 28.4375 30.964844 28.367188 31.007812 28.296875 31.058594 L 28.292969 31.058594 C 28.257812 31.085938 28.238281 31.128906 28.25 31.175781 C 28.269531 31.230469 28.324219 31.261719 28.382812 31.246094 C 28.5625 31.191406 28.730469 31.101562 28.886719 30.988281 C 28.964844 30.933594 29.035156 30.871094 29.105469 30.804688 C 29.140625 30.769531 29.171875 30.734375 29.203125 30.695312 C 29.210938 30.691406 29.214844 30.683594 29.21875 30.679688 C 30.121094 30.800781 30.625 31.371094 30.828125 31.664062 C 30.808594 31.671875 30.789062 31.679688 30.769531 31.691406 C 30.675781 31.730469 30.589844 31.773438 30.5 31.816406 C 30.324219 31.910156 30.15625 32.011719 29.996094 32.125 C 29.832031 32.238281 29.683594 32.367188 29.542969 32.507812 C 29.402344 32.648438 29.28125 32.808594 29.175781 32.976562 C 29.148438 33.019531 29.15625 33.078125 29.199219 33.109375 C 29.242188 33.144531 29.308594 33.140625 29.34375 33.097656 L 29.347656 33.09375 C 29.464844 32.953125 29.585938 32.820312 29.726562 32.703125 C 29.863281 32.585938 30.007812 32.472656 30.164062 32.378906 C 30.320312 32.285156 30.484375 32.199219 30.652344 32.125 C 30.816406 32.054688 30.992188 31.988281 31.152344 31.941406 C 32.535156 31.613281 33.628906 31.746094 34.402344 32.34375 C 35.480469 33.164062 35.628906 34.640625 35.648438 34.941406 C 35.226562 35.214844 33.421875 36.207031 30.144531 35.878906 C 28.746094 35.738281 27.167969 34.777344 25.902344 33.300781 C 25.898438 33.285156 25.894531 33.265625 25.890625 33.246094 C 25.574219 32.433594 25.722656 31.804688 25.816406 31.535156 C 25.859375 31.546875 25.898438 31.554688 25.9375 31.5625 C 26.039062 31.582031 26.140625 31.59375 26.242188 31.601562 C 26.34375 31.605469 26.445312 31.605469 26.542969 31.601562 C 26.644531 31.597656 26.742188 31.585938 26.839844 31.566406 C 26.882812 31.558594 26.917969 31.519531 26.921875 31.472656 C 26.925781 31.417969 26.886719 31.367188 26.828125 31.359375 L 26.824219 31.359375 C 26.730469 31.351562 26.640625 31.347656 26.550781 31.335938 C 26.457031 31.328125 26.367188 31.316406 26.28125 31.296875 C 26.191406 31.28125 26.105469 31.257812 26.023438 31.230469 C 25.984375 31.214844 25.941406 31.203125 25.90625 31.1875 C 25.886719 31.179688 25.867188 31.167969 25.847656 31.160156 L 25.824219 31.148438 C 25.816406 31.144531 25.804688 31.136719 25.804688 31.136719 C 25.804688 31.136719 25.800781 31.136719 25.800781 31.136719 C 25.796875 31.132812 25.796875 31.132812 25.792969 31.132812 Z M 36.101562 35.738281 C 36.109375 35.957031 35.992188 36.136719 35.882812 36.230469 C 34.820312 37.132812 31.199219 37.382812 29.449219 36.878906 C 27.757812 36.390625 26.101562 35.304688 25.667969 34.410156 C 25.441406 33.9375 25.601562 33.667969 25.714844 33.550781 C 27.023438 35.054688 28.65625 36.03125 30.113281 36.179688 C 30.589844 36.226562 31.035156 36.246094 31.449219 36.246094 C 33.972656 36.246094 35.386719 35.472656 35.804688 35.203125 C 35.988281 35.359375 36.09375 35.542969 36.101562 35.738281 " fill-opacity="1" fill-rule="nonzero"/></g><path fill="#df3821" d="M 29.796875 9.992188 C 29.175781 9.824219 28.003906 9.597656 27.265625 10.050781 C 26.917969 10.265625 26.699219 10.617188 26.617188 11.097656 C 26.605469 11.175781 26.332031 12.945312 28.347656 14.140625 C 28.359375 14.148438 28.367188 14.15625 28.378906 14.160156 C 28.40625 14.09375 28.433594 14.023438 28.457031 13.953125 C 28.449219 13.945312 28.4375 13.941406 28.425781 13.933594 C 26.492188 12.558594 27.082031 10.777344 27.085938 10.757812 C 27.105469 10.699219 27.171875 10.667969 27.230469 10.6875 C 27.289062 10.710938 27.320312 10.773438 27.300781 10.832031 C 27.277344 10.902344 26.773438 12.449219 28.507812 13.714844 C 28.519531 13.722656 28.53125 13.730469 28.539062 13.738281 C 28.542969 13.730469 28.546875 13.726562 28.546875 13.71875 C 28.929688 12.703125 29.324219 11.660156 29.691406 10.46875 C 29.679688 10.464844 29.667969 10.460938 29.65625 10.457031 C 28.957031 10.226562 28.25 10.269531 28.242188 10.269531 C 28.179688 10.277344 28.125 10.226562 28.121094 10.167969 C 28.117188 10.105469 28.164062 10.050781 28.226562 10.046875 C 28.261719 10.042969 28.984375 10 29.722656 10.242188 C 29.734375 10.246094 29.746094 10.25 29.757812 10.253906 C 29.78125 10.171875 29.808594 10.085938 29.832031 10 C 29.820312 10 29.808594 9.996094 29.796875 9.992188 Z M 21.597656 25.210938 C 21.617188 25.246094 21.65625 25.265625 21.691406 25.265625 C 21.714844 25.265625 21.734375 25.257812 21.75 25.25 C 21.804688 25.214844 21.820312 25.148438 21.789062 25.09375 C 21.414062 24.480469 21.347656 23.882812 21.597656 23.355469 C 21.867188 22.800781 22.46875 22.410156 22.898438 22.351562 C 22.960938 22.34375 23.003906 22.285156 22.996094 22.226562 C 22.988281 22.164062 22.929688 22.121094 22.867188 22.128906 C 22.386719 22.191406 21.707031 22.609375 21.394531 23.261719 C 21.195312 23.675781 21.070312 24.351562 21.597656 25.210938 Z M 24.625 22.082031 C 24.632812 22.082031 24.640625 22.085938 24.644531 22.085938 C 24.636719 22.089844 24.628906 22.09375 24.621094 22.09375 C 23.941406 22.324219 23.136719 22.800781 23.125 23.777344 C 23.117188 24.09375 23.1875 24.359375 23.324219 24.578125 C 23.378906 24.667969 23.445312 24.746094 23.523438 24.820312 C 23.535156 24.832031 23.542969 24.839844 23.554688 24.847656 C 23.550781 24.859375 23.542969 24.875 23.539062 24.886719 C 23.519531 24.945312 23.496094 25.003906 23.472656 25.0625 C 23.316406 25.472656 23.164062 25.882812 23.019531 26.289062 C 23.003906 26.289062 22.992188 26.285156 22.980469 26.28125 C 22.554688 26.210938 22.1875 26.085938 21.890625 25.914062 C 21.832031 25.882812 21.773438 25.847656 21.722656 25.808594 C 21.667969 25.773438 21.617188 25.734375 21.570312 25.691406 C 21.433594 25.578125 21.316406 25.449219 21.222656 25.304688 C 20.703125 24.523438 20.953125 23.566406 20.960938 23.535156 C 21.171875 22.824219 21.546875 22.332031 22.078125 22.066406 C 22.917969 21.644531 23.972656 21.867188 24.625 22.082031 Z M 14.859375 12.484375 C 14.886719 12.566406 15.484375 14.515625 13.183594 15.410156 C 13.171875 15.414062 13.160156 15.417969 13.148438 15.421875 C 13.125 15.363281 13.097656 15.300781 13.070312 15.242188 C 13.082031 15.234375 13.089844 15.230469 13.105469 15.226562 C 13.535156 15.039062 14.570312 14.496094 14.585938 13.503906 C 14.589844 13.441406 14.539062 13.390625 14.476562 13.390625 C 14.410156 13.390625 14.363281 13.4375 14.359375 13.5 C 14.347656 14.351562 13.402344 14.851562 13.011719 15.019531 C 13 15.023438 12.988281 15.027344 12.976562 15.035156 C 12.46875 13.878906 11.929688 12.601562 11.496094 11.351562 C 11.511719 11.347656 11.523438 11.347656 11.535156 11.34375 C 12.066406 11.257812 13.535156 11.113281 14.167969 12.039062 C 14.191406 12.070312 14.226562 12.089844 14.261719 12.089844 C 14.285156 12.089844 14.308594 12.082031 14.328125 12.070312 C 14.378906 12.035156 14.390625 11.964844 14.355469 11.914062 C 13.625 10.84375 12.003906 11.03125 11.460938 11.128906 C 11.449219 11.128906 11.4375 11.132812 11.425781 11.136719 C 11.402344 11.066406 11.378906 10.996094 11.355469 10.929688 C 11.367188 10.925781 11.378906 10.925781 11.394531 10.921875 C 12.601562 10.699219 14.464844 10.671875 14.855469 12.46875 C 14.855469 12.472656 14.855469 12.480469 14.859375 12.484375 " fill-opacity="1" fill-rule="nonzero"/></svg>